<?xml version="1.0" standalone="no"?>
<!DOCTYPE svg PUBLIC "-//W3C//DTD SVG 1.1//EN" "http://www.w3.org/Graphics/SVG/1.1/DTD/svg11.dtd" >
<svg xmlns="http://www.w3.org/2000/svg" xmlns:xlink="http://www.w3.org/1999/xlink" version="1.1">
<metadata>
Created by FontForge 20161003 at Fri Feb  9 11:57:49 2018
 By www-data
Rakel Tomas
</metadata>
<defs>
<font id="SilkTypeSilkSerifRegular" horiz-adv-x="499" >
  <font-face 
    font-family="SilkTypeSilkSerifRegular"
    font-weight="400"
    font-stretch="normal"
    units-per-em="1000"
    panose-1="0 0 5 0 0 0 0 0 0 0"
    ascent="800"
    descent="-200"
    x-height="450"
    cap-height="700"
    bbox="-97 -603 1129 909.471"
    underline-thickness="50"
    underline-position="-150"
    unicode-range="U+0020-2265"
  />
<missing-glyph horiz-adv-x="458" 
d="M375 700v-915h-290v915h290zM305 639h-151v-30h59v-34h-60v-31h152v31h-61v34h61v30zM244 521h-91v-95h152v31h-61v64zM213 490v-33h-30v33h30zM305 401h-152v-30h60v-34h-60v-30h91v64h61v30zM305 346h-30v-60h-122v-32h152v92zM305 234h-92v-51h31v21h31v-43h-92v73
h-30v-103h152v103zM305 76h-152v-103h152v103zM275 46v-43h-92v43h92zM305 -48h-152v-31h64l-64 -43v-30h152v30h-94l64 43h30v31z" />
    <glyph glyph-name=".notdef" horiz-adv-x="458" 
d="M375 700v-915h-290v915h290zM305 639h-151v-30h59v-34h-60v-31h152v31h-61v34h61v30zM244 521h-91v-95h152v31h-61v64zM213 490v-33h-30v33h30zM305 401h-152v-30h60v-34h-60v-30h91v64h61v30zM305 346h-30v-60h-122v-32h152v92zM305 234h-92v-51h31v21h31v-43h-92v73
h-30v-103h152v103zM305 76h-152v-103h152v103zM275 46v-43h-92v43h92zM305 -48h-152v-31h64l-64 -43v-30h152v30h-94l64 43h30v31z" />
    <glyph glyph-name=".null" horiz-adv-x="0" 
 />
    <glyph glyph-name="nonmarkingreturn" horiz-adv-x="333" 
 />
    <glyph glyph-name="space" unicode=" " horiz-adv-x="276" 
 />
    <glyph glyph-name="exclam" unicode="!" horiz-adv-x="228" 
d="M112 140q0 98 -21.5 254t-21.5 231t44 75q22 0 33 -16.5t13 -48t-2 -71t-11.5 -92t-14.5 -104t-13 -113.5t-6 -115zM112 140v-4v4zM111 88q19 0 32 -13.5t13 -32.5q0 -18 -13 -31.5t-32 -13.5t-32.5 13.5t-13.5 31.5q0 19 13.5 32.5t32.5 13.5z" />
    <glyph glyph-name="quotedbl" unicode="&#x22;" horiz-adv-x="238" 
d="M122 724q16 1 22.5 -11.5t3.5 -31.5l-23 -149l-1 3v-3l-26 151q-3 17 4 29t20 12z" />
    <glyph glyph-name="numbersign" unicode="#" horiz-adv-x="622" 
d="M594 429h-140l-59 -181h139l-2 -11h-141l-79 -243h-16l79 243h-182l-79 -243h-16l79 243h-161l2 11h163l59 181h-165l2 11h166l79 242h16l-79 -242l183 -1l79 243h15l-79 -243h139zM379 248l59 181h-182l-59 -181h182z" />
    <glyph glyph-name="dollar" unicode="$" horiz-adv-x="563" 
d="M326 405q101 -20 144 -79t36 -137q-6 -72 -57.5 -121t-122.5 -63v-51h-10v363q-25 6 -42 8q-14 2 -22 4v-375h-9v48h-2q-63 7 -124 48q-78 53 -73 150q0 33 16 61.5t48 28.5q30 0 40.5 -25t-0.5 -44q-6 -11 -25.5 -26t-22.5 -33q-7 -49 22.5 -88t85.5 -56q17 -6 35 -8
v321q-85 20 -123.5 75.5t-34.5 123.5q6 65 48.5 109t109.5 58v40h9v-318q29 -8 51 -10q2 -1 6.5 -1t6.5 -1v330h10v-35q137 -12 162 -126q7 -33 -4.5 -60t-39.5 -27q-25 0 -40 15.5t-13 34.5q1 14 17 33.5t15 41.5q-4 48 -60 69q-18 6 -37 9v-287zM190 670
q-30 -18 -46.5 -52t-14.5 -71t31 -72t83 -53v268q-32 -8 -53 -20zM463 149q4 127 -137 166v-302q58 11 96.5 47t40.5 89z" />
    <glyph glyph-name="percent" unicode="%" horiz-adv-x="660" 
d="M196 425q-19 -1 -39 2.5t-42.5 14t-40 34.5t-24.5 59q-12 60 17 107.5t87 62.5q69 16 117.5 -15.5t55.5 -105.5q7 -67 -31 -111t-100 -48zM282 590q-11 61 -44 92t-81 17q-43 -14 -56 -59t-5 -91q11 -66 44 -94t71 -22q48 5 65 50t6 107zM84 0l459 701h17l-457 -701h-19z
M477 -3q-19 -1 -39 2.5t-42.5 14t-40 34.5t-24.5 59q-12 60 17 107.5t87 62.5q69 16 117.5 -15.5t55.5 -105.5q7 -67 -31 -111t-100 -48zM563 162q-11 61 -44 92t-81 17q-43 -14 -56.5 -60t-4.5 -91q11 -66 43.5 -93.5t71.5 -22.5q48 6 65 51t6 107z" />
    <glyph glyph-name="ampersand" unicode="&#x26;" horiz-adv-x="759" 
d="M648 43q32 -2 58 17.5t35 54.5q-3 -44 -32.5 -83t-81.5 -40q-42 -1 -73 13.5t-60 56.5l-55 79q-57 -78 -103 -115.5t-113 -38.5q-73 -2 -123 40.5t-49 120.5q0 25 6 47t21 42.5t25.5 34t37 33t38 27.5t45.5 29t43 27l-11 16q-52 74 -63 102q-14 36 -14 76
q1 66 47.5 101.5t112.5 36.5q55 1 98 -31t44 -90q1 -91 -87 -147q-9 -6 -29.5 -18t-30.5 -19l145 -204q26 34 45 60q57 82 54.5 122t-56.5 56h200q-28 0 -66 -26q-24 -16 -45.5 -43.5t-54 -76t-56.5 -79.5q-6 -7 -16 -21l57 -80q21 -29 32.5 -42t31 -25t43.5 -13zM245 591
q3 -38 19.5 -70.5t57.5 -88.5l7 -9q22 16 32 26q70 66 66 160q-2 41 -24.5 73t-64.5 32q-48 1 -73 -30t-20 -93zM246 53q87 -4 185 100l-159 228l-25 -19q-59 -47 -89.5 -88.5t-30.5 -97.5q0 -52 30.5 -87t88.5 -36z" />
    <glyph glyph-name="quotesingle" unicode="'" horiz-adv-x="161" 
d="M82 532l-26 151q-4 17 3 29t20 12q16 1 22.5 -11.5t3.5 -31.5z" />
    <glyph glyph-name="parenleft" unicode="(" horiz-adv-x="256" 
d="M220 -183q-8 5 -26 23.5t-44.5 58t-49.5 88.5t-39.5 121.5t-16.5 150.5q0 82 17 157.5t41.5 125.5t50.5 87.5t44 55t22 17.5q-5 -6 -13 -18t-28.5 -53.5t-36 -89t-28.5 -124t-13 -158.5q0 -77 12.5 -150.5t30 -124t35 -90t30.5 -58.5z" />
    <glyph glyph-name="parenright" unicode=")" horiz-adv-x="260" 
d="M23 -183q8 5 26 23.5t44.5 58t49.5 88.5t39.5 121.5t16.5 150.5q0 82 -17 157.5t-41.5 125.5t-50.5 87.5t-44 55t-22 17.5q5 -6 13 -18t28.5 -53.5t36 -89t28.5 -124t13 -158.5q0 -77 -12.5 -150.5t-30 -124t-35 -90t-29.5 -58.5z" />
    <glyph glyph-name="asterisk" unicode="*" horiz-adv-x="359" 
d="M178 693q12 1 16.5 -10t2.5 -28l-17 -85l-44 -80q-19 -29 -38 -14q-19 17 13 42l68 52l-88 19q-16 2 -23.5 11.5t-3.5 18.5q6 11 19 10.5t25 -10.5l71 -49l1 1l-20 88q-3 15 2 24.5t16 9.5zM294 618q4 -12 -3.5 -20.5t-23.5 -10.5l-87 -17l75 52q13 8 23.5 7t15.5 -11z
M260 474q-9 -7 -20 -2t-19 20l-41 78l71 -57q26 -21 9 -39z" />
    <glyph glyph-name="plus" unicode="+" horiz-adv-x="541" 
d="M484 355v-11h-207v-210h-11v210h-209v11h209v206h11v-206h207z" />
    <glyph glyph-name="comma" unicode="," horiz-adv-x="199" 
d="M122 85q22 -12 27 -52.5t-13 -87t-54 -70.5q24 21 37 60.5t6 73.5q-9 -7 -23 -9q-20 -2 -34.5 10t-15.5 31q-2 19 9.5 33.5t30.5 16.5q16 1 30 -6z" />
    <glyph glyph-name="hyphen" unicode="-" horiz-adv-x="420" 
d="M57 275h306v-11h-306v11z" />
    <glyph glyph-name="period" unicode="." horiz-adv-x="206" 
d="M104 -3q-19 0 -32.5 13.5t-13.5 31.5q0 19 13.5 32.5t32.5 13.5t32.5 -13.5t13.5 -32.5q0 -18 -13.5 -31.5t-32.5 -13.5z" />
    <glyph glyph-name="slash" unicode="/" horiz-adv-x="374" 
d="M29 -6l273 707h14l-273 -707h-14z" />
    <glyph glyph-name="zero" unicode="0" horiz-adv-x="649" 
d="M337 703q66 1 116 -30.5t78 -84.5t41.5 -115t13.5 -130q-1 -90 -32 -170t-91.5 -131t-135.5 -51q-68 0 -121.5 34t-84 88t-45.5 116t-14 125q2 151 77.5 249t197.5 100zM507 337q-8 151 -58 248.5t-125 101.5q-88 6 -135.5 -86.5t-40.5 -236.5q6 -145 60 -246.5
t133 -108.5q46 -4 81 24.5t53.5 78.5t26.5 107.5t5 117.5z" />
    <glyph glyph-name="one" unicode="1" horiz-adv-x="319" 
d="M201 72q0 -25 10.5 -41.5t27 -22t25 -7t16.5 -1.5h-230q6 0 11.5 0.5t18 4.5t21 10.5t16 21.5t7.5 35v403q-1 25 0 82q0 52 -20 63t-51 -8l149 105q0 -55 -0.5 -99t-0.5 -70v-56v-420z" />
    <glyph glyph-name="two" unicode="2" horiz-adv-x="529" 
d="M298 60q88 0 130.5 17.5t60.5 74.5l-47 -152h-415q110 82 219 212q69 83 100 149t27 148q-4 69 -56.5 109t-117.5 29q-30 -5 -57.5 -19t-45 -30.5t-30.5 -32t-19 -25.5l-6 -10q2 6 6.5 17t20.5 39.5t36 51t55 43t74 25.5q102 12 159.5 -46.5t57.5 -136.5q0 -35 -8 -65
t-33 -67t-41 -58t-64 -75t-71 -81q-76 -89 -67 -107q6 -10 56 -10h11h65z" />
    <glyph glyph-name="three" unicode="3" horiz-adv-x="553" 
d="M371 399q65 -18 102 -67.5t36 -126.5q-1 -111 -87 -171.5t-204 -36.5q-124 26 -167 173q13 -24 25.5 -41t35 -39t55.5 -35t74 -15q75 -5 126 36.5t54 118.5q4 84 -50 133t-130 38q-2 0 -4 -0.5t-3 -0.5l10 3q17 7 34.5 17t42 29.5t42 52t20.5 72.5q4 52 -27.5 91.5
t-92.5 41.5q-97 5 -165 -74q60 104 174 111q88 6 135.5 -39t49.5 -105q4 -113 -86 -166z" />
    <glyph glyph-name="four" unicode="4" horiz-adv-x="610" 
d="M545 161h-111v-125l-73 -82v207h-325l398 558v-491h176zM361 228v310q0 31 -11 32.5t-26 -20.5l-201 -286q-24 -36 12 -37z" />
    <glyph glyph-name="five" unicode="5" horiz-adv-x="540" 
d="M97 454q-6 -27 -1 -30q2 -2 14 4q44 32 80 42t80 11q88 2 146.5 -50.5t58.5 -148.5q0 -91 -77 -168q-47 -47 -134 -87.5t-150 -58.5l-64 -17q142 47 239 128t99 185q1 59 -29.5 101t-95.5 48q-37 5 -71.5 -1t-57.5 -17.5t-40 -24t-25 -21.5l-8 -9l77 361h312l-53 -72
h-218q-17 0 -27 -3.5t-16.5 -14t-8.5 -18.5t-6 -27z" />
    <glyph glyph-name="six" unicode="6" horiz-adv-x="587" 
d="M197 605q116 124 262 124q-52 -6 -111 -38t-105 -104q-54 -83 -73 -171q29 24 71 34q109 28 193 -23.5t96 -172.5q11 -110 -52.5 -186t-165.5 -78q-199 -2 -244 186q-8 35 -8 80.5t9.5 104t42.5 124t85 120.5zM335 2q70 8 97 85.5t12 177.5q-15 97 -71.5 148.5
t-128.5 25.5q-64 -24 -84 -99t-7 -156q18 -105 72 -147t110 -35z" />
    <glyph glyph-name="seven" unicode="7" horiz-adv-x="538" 
d="M524 702q-83 -112 -156 -267q-13 -28 -23.5 -52.5t-19 -50t-14 -42.5t-10.5 -43t-7.5 -37t-5.5 -40t-3.5 -35.5t-3 -40t-2.5 -38.5q-4 -51 -38 -60q-28 -6 -43 20q-9 14 -7 34q6 58 36 134.5t57 128.5t95 176q17 29 27.5 50.5t17 38.5t8 27.5t-0.5 18t-9 11t-17 6t-24 2
t-31 -0.5h-22h-91q-86 0 -128.5 -17.5t-63.5 -75.5l39 153h440z" />
    <glyph glyph-name="eight" unicode="8" horiz-adv-x="566" 
d="M393 365q55 -27 92.5 -80.5t29.5 -124.5q-8 -88 -93 -135.5t-191 -33.5q-89 11 -137.5 65t-38.5 133q4 35 20 62.5t43.5 48.5t51.5 34t60 29q-49 22 -95.5 75t-39.5 127q7 76 72 116.5t147 34.5q78 -4 123.5 -49.5t43.5 -111.5q-4 -101 -154 -156zM162 572
q3 -58 42 -96.5t113 -72.5q95 72 100 150q3 58 -30 105.5t-96 49.5q-65 2 -98 -37t-31 -99zM240 358q-101 -64 -110 -170q-5 -72 37.5 -127.5t121.5 -59.5q53 -3 90 16t51 50t16.5 69.5t-13.5 75.5q-9 24 -26 45t-41.5 37t-43 25.5t-46.5 22t-36 16.5z" />
    <glyph glyph-name="nine" unicode="9" horiz-adv-x="567" 
d="M377 106q-118 -126 -264 -126q51 6 111 39.5t107 104.5q55 84 74 175q-26 -22 -70 -34q-108 -28 -191 23.5t-95 170.5q-10 107 53.5 182t162.5 79q36 2 70 -5t69.5 -25.5t62.5 -57.5t39 -96q8 -38 9 -78.5t-7 -100t-41.5 -125.5t-89.5 -126zM241 709q-45 -8 -73 -48
t-33 -95t2 -118q14 -96 70 -146t126 -25q45 16 69 62.5t23.5 95.5t-5.5 94q-19 108 -69.5 149t-109.5 31z" />
    <glyph glyph-name="colon" unicode=":" horiz-adv-x="218" 
d="M111 366q-19 0 -32.5 13.5t-13.5 32.5t13.5 32t32.5 13t32 -13t13 -32t-13 -32.5t-32 -13.5zM111 -3q-19 0 -32.5 13.5t-13.5 31.5q0 19 13.5 32.5t32.5 13.5t32 -13.5t13 -32.5q0 -18 -13 -31.5t-32 -13.5z" />
    <glyph glyph-name="semicolon" unicode=";" horiz-adv-x="208" 
d="M116 366q-19 0 -33 13.5t-14 32.5t14 32.5t33 13.5t32 -13.5t13 -32.5t-13 -32.5t-32 -13.5zM164 60q17 -34 0.5 -94.5t-60.5 -90.5q24 21 37.5 61t6.5 73q-10 -7 -24 -9q-19 -2 -33.5 9.5t-16.5 31.5q-2 19 9.5 33.5t30.5 16.5q18 2 31.5 -6.5t18.5 -24.5z" />
    <glyph glyph-name="less" unicode="&#x3c;" horiz-adv-x="424" 
d="M358 470v-12l-318 -131l318 -138v-12l-347 151z" />
    <glyph glyph-name="equal" unicode="=" horiz-adv-x="536" 
d="M57 429h422v-11h-422v11zM57 273h422v-11h-422v11z" />
    <glyph glyph-name="greater" unicode="&#x3e;" horiz-adv-x="461" 
d="M57 470v-12l318 -131l-318 -138v-12l347 151z" />
    <glyph glyph-name="question" unicode="?" horiz-adv-x="446" 
d="M208 133q0 52 29 110.5t64 102t64.5 98t29.5 99.5q1 78 -53 121t-138 38q-75 -5 -118 -53t-41 -101q0 -24 13 -41.5t32 -17.5q22 0 35 16.5t10 39.5q-1 12 -14.5 34t-14.5 33q-1 38 29 58.5t70 21.5q52 0 83.5 -37.5t33.5 -101.5q1 -42 -20 -95.5t-46 -97.5t-41 -106
t-7 -121zM209 -3q-19 0 -32.5 13.5t-13.5 31.5q0 19 13.5 32.5t32.5 13.5t32 -13.5t13 -32.5q0 -18 -13 -31.5t-32 -13.5z" />
    <glyph glyph-name="at" unicode="@" horiz-adv-x="703" 
d="M376 138l74 197q13 42 11 65q-2 43 -40 43q-29 0 -67.5 -32t-65.5 -81q-41 -76 -41 -141q0 -52 33 -58q30 -6 59.5 14.5t43.5 44.5l14 23q0 -1 -6 -14t-18.5 -33t-28 -39.5t-38 -33t-46.5 -13.5q-35 0 -53 23.5t-18 62.5q0 65 34 129q86 161 208 154q36 -2 56 -32l45 25
l-98 -288q-9 -15 -8.5 -36t21.5 -20q72 4 124.5 66t52.5 161q0 82 -64.5 149.5t-161.5 66.5q-73 -1 -132.5 -30t-95.5 -76t-55 -102t-19 -111q0 -112 67 -176t174 -63q178 0 285 141q-48 -78 -125.5 -128.5t-184.5 -51.5q-128 -1 -198.5 79t-70.5 192q0 150 99.5 255.5
t252.5 107.5q113 2 188 -65t71 -177q-2 -63 -25.5 -114.5t-58.5 -82t-72.5 -47t-71.5 -17.5q-32 -2 -46 15.5t-4 47.5z" />
    <glyph glyph-name="A" unicode="A" horiz-adv-x="624" 
d="M553 87q14 -35 37 -56.5t36.5 -25.5t26.5 -5h-268q4 0 9.5 1.5t21 7t22.5 15t13 26.5t-6 41l-71 195h-231l-65 -171q-20 -46 -3 -78.5t71 -36.5h-198q35 2 65.5 32.5t51.5 85.5l238 612q1 -4 3 -9zM261 561q-13 0 -42 -76l-71 -189l222 1l-74 208q-21 56 -35 56zM657 0
h-4h4z" />
    <glyph glyph-name="B" unicode="B" horiz-adv-x="639" 
d="M401 364q26 0 50 -4t51 -16t47 -31.5t33 -53t13 -77.5q0 -41 -11.5 -72.5t-32.5 -50.5t-44.5 -32t-55.5 -18.5t-56 -7.5t-55 -2l-322 1q10 0 22 2t31 9t31.5 26.5t12.5 47.5v533q-1 23 -11 40t-22.5 24.5t-29 12t-23 5t-11.5 0.5l302 2q112 0 169 -40t57 -129
q0 -72 -39 -117.5t-106 -51.5zM208 693v-328q75 0 109 4q78 6 109 54.5t29 113.5q-1 50 -18.5 83t-52 48.5t-75.5 21t-101 3.5zM498 175q1 91 -47 133.5t-136 44.5q-43 3 -107 1v-264q0 -23 7.5 -39.5t17 -24.5t26.5 -12.5t28 -5t30 -0.5q50 -1 88.5 13t65 53t27.5 101z" />
    <glyph glyph-name="C" unicode="C" horiz-adv-x="711" 
d="M142 362q10 -136 96.5 -220t206.5 -85q48 0 89 13.5t64.5 33t40.5 39t23 33.5l6 14q-2 -7 -6 -18.5t-21.5 -41.5t-40.5 -54.5t-64 -47.5t-90 -30q-88 -12 -164 13t-126 75t-78.5 116t-30.5 136q-2 85 25.5 154.5t75.5 114t108.5 70t129.5 30.5q66 5 131 -8
q37 -7 68 -19.5t44 -21.5l13 -8l-1 -143q-57 113 -159 161q-118 54 -221 -6q-63 -37 -95 -118t-24 -182z" />
    <glyph glyph-name="D" unicode="D" horiz-adv-x="710" 
d="M660 374q2 -103 -33 -186.5t-108.5 -135t-174.5 -52.5h-60h-275q9 0 20 2t30 8.5t31 25t12 45.5v534q0 29 -12 48.5t-31 26t-29.5 8.5t-20.5 2h283q87 1 150.5 -13t113.5 -49.5t76 -101.5t28 -162zM346 12q108 7 162 103t51 260q-1 92 -23.5 156t-62 97t-83 47t-100.5 15
q-67 0 -90 -2v-594q0 -49 22.5 -66t73.5 -17q43 0 50 1z" />
    <glyph glyph-name="E" unicode="E" horiz-adv-x="651" 
d="M510 70q36 26 62 53t34 41l9 15l-43 -179h-552q8 0 19.5 2.5t28.5 9.5t28.5 25.5t11.5 45.5v537q0 27 -11.5 45t-29 24.5t-28 8.5t-19.5 2h517l35 -160q-9 16 -37.5 48t-62.5 55q-42 28 -81 37.5t-127 9.5h-62v-321h56q34 1 60.5 11t40.5 24t23.5 28t11.5 24l3 10v-207
q-1 4 -3 10.5t-11.5 23.5t-23 30t-40.5 24t-61 11h-56v-263q0 -28 7 -47t20 -26.5t23.5 -10t23.5 -2.5h63q88 0 171 61z" />
    <glyph glyph-name="F" unicode="F" horiz-adv-x="606" 
d="M540 700l37 -163q-4 14 -34 49.5t-59 54.5q-27 17 -46 25.5t-61 16t-103 7.5h-70v-70v-56v-195h69q33 1 59 11.5t39.5 24.5t23 28t11.5 24l3 10v-211q-1 4 -3 11t-11.5 24.5t-23 30.5t-39.5 24.5t-59 11.5h-69v-280q0 -26 11 -43t28 -24t28 -9t19 -2h-264q9 0 19 2
t27 8.5t28 24t11 43.5v18v52v457v17q0 26 -11 43.5t-28 24t-27 8.5t-19 2h514z" />
    <glyph glyph-name="G" unicode="G" horiz-adv-x="745" 
d="M719 290q-3 0 -7.5 -1t-16 -6.5t-20.5 -13t-16 -23.5t-7 -37v-219q-8 32 -33 59.5t-44 29.5q-1 -1 -11 -11.5t-14.5 -14.5t-17 -14.5t-21.5 -16t-24.5 -13.5t-30.5 -12t-35 -7t-41 -3q-157 0 -245.5 102t-88.5 257q0 76 24.5 139t65.5 105t94.5 70t111.5 38t117 5
q102 -9 188 -60l-2 -157q-8 19 -24 45t-53 65.5t-79 60.5q-118 59 -219 5q-65 -33 -98.5 -115t-25.5 -198q9 -149 84.5 -236.5t177.5 -93.5q71 -3 115 31q59 41 59 152v5q0 34 -23 54.5t-45 24.5l-23 4h228z" />
    <glyph glyph-name="H" unicode="H" horiz-adv-x="727" 
d="M624 85q0 -29 11 -48t28.5 -26t27.5 -9t19 -2h-263q13 0 27 2.5t34 22t22 54.5v280h-340v-274q0 -29 11 -48t28 -26t27 -9t19 -2h-263q13 0 27 2.5t34.5 22t22.5 54.5v536q0 29 -11 48t-28 26t-27 9t-19 2h264q-9 0 -19 -2t-27 -9t-28 -26t-11 -48v-245h340v245
q0 29 -10.5 48t-27.5 26t-27 9t-19 2h264q-9 0 -19 -2t-27.5 -9t-28.5 -26t-11 -48v-530z" />
    <glyph glyph-name="I" unicode="I" horiz-adv-x="335" 
d="M211 85q0 -23 8.5 -40t19.5 -25.5t25.5 -13t22 -5.5t14.5 -1h-272q9 0 19.5 2t28.5 9t29.5 26.5t11.5 47.5v530q0 29 -11.5 48t-29.5 26t-28.5 9t-19.5 2h272q-9 0 -20 -2t-29 -9t-29.5 -26t-11.5 -48v-530z" />
    <glyph glyph-name="J" unicode="J" horiz-adv-x="439" 
d="M247 622q0 26 -10 43.5t-26.5 24t-26 8.5t-18.5 2h256q-9 0 -18.5 -2t-26 -8.5t-27 -24t-10.5 -43.5v-456q0 -50 -15.5 -85t-42 -52t-53 -24t-57.5 -7q-22 0 -45.5 5t-49 16t-42.5 34.5t-18 55.5q0 20 12.5 36t33.5 16q29 0 40.5 -22t4.5 -52q-7 -35 12 -58t52 -23
q44 0 59.5 36.5t15.5 117.5v462z" />
    <glyph glyph-name="K" unicode="K" horiz-adv-x="636" 
d="M190 78q0 -26 11 -43t27.5 -24t27.5 -9t19 -2h-264q8 0 18.5 2t27 9t27.5 24t11 43v544q0 26 -10.5 43.5t-27.5 24t-27 8.5t-19 2h264q-9 0 -19 -2t-27 -8.5t-28 -24t-11 -43.5v-544zM532 118q35 -45 70 -74.5t52 -37.5l17 -7l-160 2q-32 31 -74 85l-174 228
q-15 16 -30.5 14.5t-26.5 -11.5l-12 -10l229 273q33 41 16.5 77.5t-59.5 40.5h224h-2q-3 -1 -9 -2.5t-14 -4.5t-19 -8.5t-23 -12.5t-26.5 -18.5t-29.5 -24.5q-16 -14 -42 -45t-61 -74t-42 -52q-21 -26 -21 -43.5t17 -40.5z" />
    <glyph glyph-name="L" unicode="L" horiz-adv-x="607" 
d="M317 9q91 0 168.5 53t100.5 118l-38 -180h-536q9 0 19.5 2t28.5 9.5t29.5 27.5t11.5 50v526q0 29 -11 48t-28 26t-27 9t-19 2h264q-9 0 -19 -2t-27.5 -9t-28.5 -26t-11 -48v-517q0 -50 20.5 -69.5t59.5 -19.5h43z" />
    <glyph glyph-name="M" unicode="M" horiz-adv-x="953" 
d="M843 89q0 -29 11.5 -48.5t29.5 -27.5t29.5 -10.5t19.5 -2.5h-275q8 0 19.5 2.5t28.5 10.5t28.5 27.5t11.5 48.5v440q0 59 -12 60q-9 0 -25 -38l-5 -10l-235 -551l-295 566q-20 37 -31.5 30.5t-11.5 -47.5l-1 -402q0 -38 12.5 -66.5t28 -41.5t36 -20t28.5 -8t13 -1h-240
q5 0 13.5 1t27.5 8.5t33.5 21t26 42t11.5 66.5v410q0 23 -3.5 43t-9 34t-13 25.5t-16 19.5t-17 13.5t-16 8.5t-13 5t-8.5 2l-4 1h188l254 -487q19 -35 32 -46.5t25.5 -1.5t27.5 44l212 490h168q-4 0 -11 -1t-20.5 -6.5t-24.5 -14.5t-19.5 -27.5t-8.5 -43.5v-518z" />
    <glyph glyph-name="N" unicode="N" horiz-adv-x="734" 
d="M599 576q0 40 -13.5 67t-35 38t-34.5 14.5t-26 4.5h227q-12 -1 -25 -4.5t-34 -14.5t-34.5 -38t-13.5 -67v-588h-1l-8 12l-429 571q-22 27 -32 -1q-4 -13 -4 -32v-409q0 -34 11.5 -59.5t27.5 -38t32 -20.5t27 -9l12 -2h-231q4 0 11.5 1.5t26.5 9.5t33.5 20.5t26.5 38.5
t12 60v408q0 25 -3.5 46.5t-9 36.5t-13 27.5t-16 21t-16.5 14.5t-15.5 9t-13 5t-8.5 2l-4 1h170l359 -479q20 -28 33 -25q11 2 11 57v322z" />
    <glyph glyph-name="O" unicode="O" horiz-adv-x="809" 
d="M420 708q86 0 152 -32t103.5 -86t55.5 -116.5t16 -129.5q-4 -153 -101 -254t-255 -100q-88 0 -156.5 34t-108 89t-59 117.5t-17.5 125.5q2 161 107 256.5t263 95.5zM640 347q-5 144 -76 244t-176 100q-111 3 -175 -85.5t-57 -240.5q8 -141 81 -245t176 -112
q121 -11 178.5 83.5t48.5 255.5z" />
    <glyph glyph-name="P" unicode="P" horiz-adv-x="579" 
d="M511 618q37 -63 24.5 -140t-61.5 -116q-91 -71 -266 -43q241 -11 243 191q1 105 -52.5 146t-150.5 39q-28 0 -58 -2v-607q0 -29 11.5 -48.5t29.5 -26.5t28.5 -9t19.5 -2h-272q9 0 19.5 2t28.5 9t29.5 26.5t11.5 48.5v540q0 25 -11 41.5t-28 22.5t-27 8t-19 2
q35 0 118.5 2t118.5 2q107 1 168.5 -16t94.5 -70z" />
    <glyph glyph-name="Q" unicode="Q" horiz-adv-x="802" 
d="M432 708q86 0 152 -32t103.5 -86t55.5 -116.5t16 -129.5q-4 -153 -101 -254t-255 -100q-88 0 -156.5 34t-108 89t-59 117.5t-17.5 125.5q2 161 107 256.5t263 95.5zM652 347q-5 143 -76 243.5t-175 100.5q-111 3 -175.5 -85.5t-57.5 -240.5q8 -141 81 -245t176 -112
q121 -11 178.5 83.5t48.5 255.5zM289 -25q31 -2 61 -17.5t50.5 -34t49 -39t55.5 -29.5q47 -19 101.5 -7t86.5 57q-50 -111 -167 -109q-42 1 -79.5 20t-61 42t-57 45.5t-67.5 29.5q-46 8 -88.5 -5.5t-65.5 -35.5q74 90 182 83z" />
    <glyph glyph-name="R" unicode="R" horiz-adv-x="606" 
d="M542 95q19 -34 46 -58t44 -31l17 -6h-148q-30 33 -68 102l-91 157q-7 13 -15 23.5t-15 18t-16.5 13.5t-15 10t-16 7t-15.5 4.5t-17 2t-16 0.5h-17h-16l-1 -276q0 -27 17.5 -42.5t30.5 -17.5t26 -2h-253q9 0 19 2t27 8.5t28 24t11 43.5v544q0 26 -11.5 44t-29 24t-27 8
t-17.5 2q41 0 127 2.5t127 1.5q99 -1 155.5 -17t86.5 -61q31 -42 29 -105q-3 -88 -68 -139q-44 -36 -94 -40q39 -12 86 -94zM274 354q79 9 120 54t42 115q1 105 -63.5 142t-190.5 30l1 -346q56 0 91 5z" />
    <glyph glyph-name="S" unicode="S" horiz-adv-x="597" 
d="M511 520q-18 47 -80 104q-52 51 -122 66t-122 -15q-29 -18 -42 -51.5t-7 -70.5q17 -103 173 -136q143 -30 199.5 -87.5t45.5 -155.5q-8 -97 -77 -142.5t-164 -45.5q-163 2 -262 76l-2 190q31 -87 99.5 -151.5t150.5 -84.5q81 -17 141.5 8.5t63.5 97.5q3 63 -46 111
t-184 79q-118 28 -162 81.5t-40 132.5q3 84 70.5 134.5t170.5 49.5q53 0 101.5 -12.5t71.5 -24.5l22 -12z" />
    <glyph glyph-name="T" unicode="T" horiz-adv-x="675" 
d="M625 700l26 -168q-26 58 -68 98q-62 59 -162 59h-36v-600q0 -30 12 -50t31 -27.5t30 -9.5t21 -2h-280q10 0 20.5 2t29.5 9.5t31 27.5t12 50v600h-42q-97 0 -162 -61q-20 -18 -38 -42.5t-26 -39.5l-8 -16l29 170h580z" />
    <glyph glyph-name="U" unicode="U" horiz-adv-x="683" 
d="M579 580q0 37 -12 63.5t-30.5 37.5t-30.5 14.5t-23 4.5h197q-9 -1 -20 -5t-29 -15t-29.5 -38t-11.5 -66v-283q0 -300 -235 -300q-49 0 -88.5 11.5t-66 30.5t-46 48.5t-30 59t-17 69.5t-8 72.5t-1.5 74.5v240q0 27 -8 47.5t-18.5 30t-24.5 15.5t-22 7t-14 1h273
q-7 0 -15 -1t-22 -7t-25 -15.5t-19 -30t-8 -47.5v-297q0 -128 46 -202t147 -72q97 2 144 67.5t47 203.5v281z" />
    <glyph glyph-name="V" unicode="V" horiz-adv-x="725" 
d="M373 -16l238 592q26 62 56 89t69 35h-218q59 -2 80 -35.5t-3 -96.5q-46 -114 -84.5 -211.5t-42.5 -107.5q-22 -54 -31.5 -68t-22.5 -14q-20 0 -41 47q-13 29 -166 389q-10 27 -7 45t16 28.5t27.5 15.5t25.5 6l11 2h-96h-120.5h-93.5q79 0 116 -75z" />
    <glyph glyph-name="W" unicode="W" horiz-adv-x="1107" 
d="M892 700h223q-84 -15 -128 -124l-234 -602l-198 450l-179 -450q-280 636 -287 651q-35 75 -111 75h91.5h118.5h93q-2 0 -6 -0.5t-14 -3t-19 -6.5t-18.5 -12t-14.5 -17.5t-5 -25t8 -34.5q37 -94 164 -387q24 -47 40 -47q12 0 21 10.5t27 53.5q10 25 18 44.5t25.5 63
t40.5 101.5l-82 185q-35 75 -111 75h91.5h118.5h93q-2 0 -6 -0.5t-14 -3t-18.5 -6.5t-18 -12t-14.5 -17.5t-5 -25t7 -34.5l164 -387q1 -2 4.5 -8t5 -9.5t5 -8.5t6 -8t6 -6.5t6.5 -5t7 -1.5q11 0 20.5 13t25.5 53q64 160 132 335q23 57 2 93.5t-81 38.5z" />
    <glyph glyph-name="X" unicode="X" horiz-adv-x="688" 
d="M424 0q18 0 37 8.5t31 28.5t-10 52q-2 2 -24.5 35t-64 93t-78.5 112l-136 -190q-42 -59 -28 -94.5t78 -44.5h-256q103 23 182 130l153 210q-187 268 -197 280q-33 42 -66 61t-55 19l290 -1q-40 -2 -52.5 -29.5t16.5 -71.5q104 -152 130 -189l107 149q24 34 31.5 62.5
t-9 51t-59.5 28.5h227q-84 -12 -163 -122l-127 -180q116 -170 164 -233q66 -89 107.5 -125.5t82.5 -39.5h-311z" />
    <glyph glyph-name="Y" unicode="Y" horiz-adv-x="579" 
d="M428 700h194q-77 -17 -128 -109l-118 -213q-26 -48 -26 -110v-186q0 -32 19 -52t35 -24.5t30 -5.5h-263q13 0 30 4.5t36.5 24t19.5 49.5l1 179q0 53 -24 92l-158 270q-26 42 -59 61.5t-55 19.5l263 -1q-39 -2 -51.5 -29t8.5 -63l133 -233q24 -41 49 5l108 194
q29 49 18.5 84t-62.5 43z" />
    <glyph glyph-name="Z" unicode="Z" horiz-adv-x="645" 
d="M216 9h39q136 3 240 79q33 25 60.5 57.5t38.5 52.5l10 19l-50 -217h-543l418 622q25 36 16.5 52t-51.5 16h-40q-133 0 -219 -64q-28 -20 -53.5 -49t-37.5 -48l-11 -19l50 190h507q-10 -13 -206 -307.5t-213 -321.5q-40 -62 45 -62z" />
    <glyph glyph-name="bracketleft" unicode="[" horiz-adv-x="287" 
d="M264 699l-142 -27v-811l142 -27l-175 -2v868z" />
    <glyph glyph-name="backslash" unicode="\" horiz-adv-x="356" 
d="M309 -6l-273 707h-13l272 -707h14z" />
    <glyph glyph-name="bracketright" unicode="]" horiz-adv-x="260" 
d="M14 700l142 -27v-811l-142 -27l175 -2v868z" />
    <glyph glyph-name="asciicircum" unicode="^" horiz-adv-x="395" 
d="M344 359l-143 225l-150 -215l151 247z" />
    <glyph glyph-name="underscore" unicode="_" 
d="M51 13h397v-11h-397v11z" />
    <glyph glyph-name="grave" unicode="`" horiz-adv-x="248" 
d="M93 512l-122 85q-20 15 -24 31t6 23q11 12 26.5 7t29.5 -26z" />
    <glyph glyph-name="a" unicode="a" 
d="M480 56q11 1 17 19q-5 -17 -10 -29t-15 -26t-25 -21t-36 -7q-69 0 -69 82v193q-49 -15 -82 -27.5t-65 -30t-48.5 -39.5t-18.5 -49q-2 -34 18.5 -60t61.5 -28q63 -5 130 48q-20 -21 -31 -31.5t-34 -28t-49.5 -25.5t-56.5 -8q-63 0 -91.5 36t-25.5 80q1 20 9 37t18.5 29.5
t30.5 24.5t35.5 20t45 17.5t47.5 14.5t53 14.5t53 14.5v56q0 71 -31 102t-81 22q-38 -7 -64 -28.5t-26 -57.5q0 -10 6.5 -25.5t7.5 -25.5q1 -20 -13 -32.5t-32 -12.5t-31.5 12t-12.5 38q1 50 53.5 89t113.5 51q78 15 134.5 -16t54.5 -122v-245q0 -39 21.5 -44t37.5 19z" />
    <glyph glyph-name="b" unicode="b" horiz-adv-x="544" 
d="M154 195q0 -103 53.5 -155.5t123.5 -34.5q52 13 74.5 79t17.5 158q-4 87 -47.5 139t-108.5 50q-34 -1 -63 -20t-43 -41q15 32 50.5 64t88.5 34q85 2 142 -57.5t56 -176.5q-1 -100 -61 -172.5t-160 -72.5q-66 0 -115 33l-42 35l-45 -73v604q0 31 -13.5 42.5t-32.5 6.5
l125 79v-521z" />
    <glyph glyph-name="c" unicode="c" horiz-adv-x="513" 
d="M117 212q11 -75 59.5 -118.5t119.5 -46.5q130 -6 183 97q-17 -68 -70.5 -113t-132.5 -45q-97 1 -165 63t-69 170q-1 129 90.5 196.5t206.5 48.5q47 -8 83 -37.5t37 -69.5q1 -25 -12.5 -39t-34.5 -13q-25 1 -36.5 21.5t-5.5 44.5q11 41 -10.5 64t-63.5 25
q-91 4 -143 -69.5t-36 -178.5z" />
    <glyph glyph-name="d" unicode="d" horiz-adv-x="536" 
d="M387 85q-10 -19 -17.5 -30t-24 -29t-40.5 -27.5t-55 -10.5q-89 -2 -151.5 61.5t-63.5 173.5q-3 114 63.5 179t156.5 67q85 2 137 -48v165q0 32 -15.5 43.5t-30.5 6.5l123 80v-610q0 -18 7 -28.5t15 -12t17 -1.5h9l-125 -81v256q0 101 -39.5 160.5t-101.5 61.5
q-60 2 -100 -59.5t-35 -160.5q4 -94 50 -152.5t108 -63.5q71 -3 113 60z" />
    <glyph glyph-name="e" unicode="e" horiz-adv-x="515" 
d="M297 47q125 -5 174 95q-14 -65 -69 -109.5t-132 -43.5q-95 2 -159.5 67.5t-66.5 169.5q-3 142 112 210q59 37 137 33q78 -5 127 -61.5t47 -146.5h-347q0 -93 48.5 -152t128.5 -62zM191 434q-66 -48 -71 -165q148 0 179 4q64 6 85 34q11 14 14.5 36t-5.5 48.5t-32 44.5
q-33 28 -82 27t-88 -29z" />
    <glyph glyph-name="f" unicode="f" horiz-adv-x="322" 
d="M312 708q32 -8 57 -29.5t25 -57.5q0 -15 -11.5 -28t-28.5 -13q-24 0 -34.5 20t-6.5 48q3 31 -12.5 46t-40.5 15q-23 0 -37.5 -12t-21.5 -37.5t-9 -51.5t-2 -67v-91h136l-9 -9h-127v-369q0 -25 10.5 -41.5t27 -22t25 -7t16.5 -1.5h-234q6 0 11.5 0.5t18.5 4.5t22.5 10.5
t17 21.5t7.5 35v369h-52l-12 9h64v91q0 55 19 94t48 55t64.5 22.5t68.5 -4.5z" />
    <glyph glyph-name="g" unicode="g" horiz-adv-x="481" 
d="M471 476q17 0 25 -9.5t5 -21.5t-15.5 -16.5t-30.5 4.5q-10 8 -17 11t-20 0t-29 -17q42 49 82 49zM287 58q78 -3 118 -23t57 -63q13 -32 8.5 -64t-16.5 -55t-29 -41q-76 -79 -212 -69q-90 6 -138.5 45t-48.5 94q0 33 14.5 60.5t29.5 39.5l14 11q-43 -84 13.5 -142.5
t163.5 -65.5q77 -6 132 24.5t51 79.5q3 45 -43.5 71t-125.5 25q-94 -1 -146.5 14.5t-61.5 60.5q-13 56 79 97l-5 2q-41 19 -65.5 59.5t-22.5 91.5q2 100 114 143q41 16 90.5 13.5t84.5 -21.5q50 -25 70.5 -83.5t0.5 -109.5q-15 -36 -40 -59t-70 -38q-74 -24 -146 -2
q-54 -32 -28 -67q7 -11 19.5 -17t31.5 -8.5t34 -3t39 0t34 0.5zM137 255q26 -66 70 -87t89 -6q33 12 47 49t11.5 76.5t-15.5 73.5q-18 47 -45 71.5t-55 25.5t-57 -9q-42 -17 -54.5 -73.5t9.5 -120.5z" />
    <glyph glyph-name="h" unicode="h" horiz-adv-x="564" 
d="M174 68q0 -23 10 -38.5t26.5 -21t25 -7t16.5 -1.5h-234q8 0 16.5 1.5t25 7t26.5 21t10 38.5v524q0 14 -2.5 23.5t-6 14t-9.5 7t-9 3t-9 0.5l-6 -1l120 77v-648zM480 68q0 -23 9.5 -38.5t24 -21t22.5 -7t15 -1.5h-219q7 0 14.5 1.5t22.5 7t24 21t9 38.5v172v14
q0 34 -0.5 49.5t-3 38.5t-7.5 34t-15 21t-25 15q-32 12 -80.5 -4.5t-86.5 -51.5q37 45 92 79t113 29q22 -2 38.5 -9t26 -22t15.5 -26.5t8 -37.5t2.5 -38.5t0.5 -44.5v-20v-198z" />
    <glyph glyph-name="i" unicode="i" horiz-adv-x="296" 
d="M146 527q-20 0 -34.5 15t-14.5 35q0 21 14.5 35.5t34.5 14.5t35 -14.5t15 -35.5q0 -20 -15 -35t-35 -15zM190 68q0 -24 9 -39t23.5 -20.5t22.5 -7t15 -1.5h-222q8 0 16 1.5t23.5 7t25 20.5t9.5 39v277q0 30 -12.5 41.5t-28.5 7.5l119 76v-402z" />
    <glyph glyph-name="j" unicode="j" horiz-adv-x="264" 
d="M137 527q-20 0 -35 15t-15 35q0 21 15 35.5t35 14.5t34.5 -14.5t14.5 -35.5q0 -20 -14.5 -35t-34.5 -15zM105 344q0 55 -43 50l121 76v-521q0 -93 -48 -130.5t-118 -27.5q-48 3 -81 26t-33 62q0 17 12 29.5t28 12.5q24 0 35.5 -21t7.5 -48q-3 -31 16 -44.5t43 -10.5
q36 1 48 30t12 108v409z" />
    <glyph glyph-name="k" unicode="k" horiz-adv-x="464" 
d="M170 68q0 -23 9 -38.5t22.5 -21t21.5 -7t14 -1.5h-219q7 0 15.5 1.5t23.5 7t25 21t10 38.5v523q0 29 -13.5 41.5t-29.5 5.5l122 78zM172 221l120 131q32 37 16.5 68t-61.5 33h200q-9 -2 -27 -10t-54 -34.5t-72 -65.5l-37 -40q-18 -21 1 -50q20 -28 76.5 -102t82.5 -102
q18 -20 37.5 -32.5t29.5 -14.5l11 -2h-187q11 1 16 7.5t3.5 18t-11.5 24.5q-14 20 -61.5 82t-58.5 74q-16 19 -24 15z" />
    <glyph glyph-name="l" unicode="l" horiz-adv-x="264" 
d="M168 68q0 -23 10 -38.5t26.5 -21t25 -7t16.5 -1.5h-234q8 0 16.5 1.5t25 7t26.5 21t10 38.5v517q0 26 -9 39.5t-17.5 15t-15.5 -0.5l120 77v-648z" />
    <glyph glyph-name="m" unicode="m" horiz-adv-x="859" 
d="M178 68q0 -23 9.5 -38.5t24 -21t22.5 -7t15 -1.5h-218q7 0 14.5 1.5t22 7t24 21t9.5 38.5v277q0 23 -9.5 35t-18 13.5t-14.5 -0.5l119 77v-402zM180 356q108 117 205 109q15 -1 27 -5.5t21 -9.5t16 -14.5t11.5 -16.5t7.5 -21t4.5 -22.5t2 -26t0.5 -26.5v-29v-28v-198
q0 -23 9.5 -38.5t24 -21t22.5 -7t15 -1.5h-219q7 0 14.5 1.5t22 7t24 21t9.5 38.5v193q0 93 -10 117q-12 29 -45 37q-34 8 -78 -9.5t-84 -49.5zM479 356q42 46 96.5 79.5t107.5 28.5q15 -1 27 -5.5t21 -9t16 -14.5t11.5 -16.5t7.5 -21t5 -22.5t2.5 -26t0.5 -26v-29v-28v-198
q0 -23 9.5 -38.5t24 -21t22.5 -7t15 -1.5h-219q7 0 14.5 1.5t22 7t24 21t9.5 38.5v190v9q0 73 -8 103t-44 40q-33 13 -78 -3.5t-87 -50.5z" />
    <glyph glyph-name="n" unicode="n" horiz-adv-x="567" 
d="M177 68q0 -23 9.5 -38.5t24 -21t22.5 -7t15 -1.5h-219q7 0 14.5 1.5t22.5 7t24 21t9 38.5v280q0 22 -9.5 33.5t-19 11t-13.5 -0.5l120 78v-402zM477 68q0 -23 9.5 -38.5t24 -21t22.5 -7t15 -1.5h-220q7 0 14.5 1.5t22.5 7t24 21t9 38.5v172v14q0 34 -0.5 49.5t-3 38.5
t-7.5 34t-15 21t-25 15q-32 12 -79.5 -4.5t-85.5 -51.5q39 46 92.5 79.5t110.5 28.5q19 -2 34 -9t25 -14.5t16.5 -23.5t10 -26.5t5 -34t1.5 -34v-38.5v-18v-198z" />
    <glyph glyph-name="o" unicode="o" horiz-adv-x="541" 
d="M294 -9q-32 -1 -64.5 5t-71 22.5t-68.5 55.5t-43 95q-21 102 26 183.5t141 106.5q112 29 196 -23t98 -174q12 -111 -51.5 -188.5t-162.5 -82.5zM421 279q-18 92 -76.5 145t-132.5 25q-40 -15 -63 -58t-25 -95t8 -108q20 -100 73.5 -144t112.5 -39q49 5 77.5 47.5t32 101
t-6.5 125.5z" />
    <glyph glyph-name="p" unicode="p" horiz-adv-x="553" 
d="M318 465q83 2 137 -60t53 -170q-1 -106 -61.5 -173.5t-141.5 -69.5q-91 0 -146 54v-196q0 -22 10 -37t25.5 -20t23.5 -6.5t16 -1.5h-221q3 0 8 0.5t16.5 4t20.5 9.5t16 19.5t7 31.5v491q0 32 -14 44t-30 8l122 77v-93v-1v-166q0 -105 50.5 -159t115.5 -47q51 4 79.5 64.5
t27.5 153.5q-2 93 -40.5 145t-96.5 58q-77 7 -128 -67q4 10 12.5 23.5t26 34t47.5 34.5t65 15zM166 358h1h-1z" />
    <glyph glyph-name="q" unicode="q" horiz-adv-x="533" 
d="M468 -150q0 -22 9.5 -37t25 -20t23.5 -6.5t16 -1.5h-226q8 0 16 1.5t23.5 6.5t25 20t9.5 37v359l5 38l-5 -13q0 104 -39.5 167.5t-110.5 56.5q-54 -5 -88.5 -66.5t-28.5 -157.5q5 -95 47.5 -150.5t102.5 -61.5q45 -3 72.5 15t36.5 39q-2 -10 -14 -27.5t-45 -37t-76 -19.5
q-84 -1 -144 60t-62 169q-3 109 62 176.5t158 69.5q97 2 156 -64l51 61v-614z" />
    <glyph glyph-name="r" unicode="r" horiz-adv-x="407" 
d="M337 465q29 -1 41.5 -17.5t12.5 -34.5q0 -17 -10 -32t-32 -16q-16 0 -26.5 6t-18.5 17.5t-13 14.5q-11 9 -25 11t-39.5 -12t-52.5 -50v-287q0 -22 10 -37t25.5 -20t23.5 -6.5t16 -1.5h-227q8 0 16 1.5t23.5 6.5t25 20t9.5 37v13v270q0 27 -12.5 38t-27.5 9l118 75v-69
v-23v-21q28 52 73 81t90 27z" />
    <glyph glyph-name="s" unicode="s" horiz-adv-x="436" 
d="M374 327q-29 58 -77.5 93.5t-99.5 34.5q-71 -2 -79 -61q-5 -11 -0.5 -26.5t13.5 -31t37 -32t71 -27.5q92 -25 128.5 -58.5t36.5 -83.5q1 -60 -41 -103t-125 -43q-20 0 -39 1.5t-36 6t-28.5 7.5t-26 9.5t-20 9t-18.5 9.5l-14 8l-2 134q40 -90 101 -129q38 -25 82 -34t78 4
t39 49q8 41 -23.5 74.5t-116.5 57.5q-82 23 -115 56.5t-33 80.5q1 56 45 96t125 40q86 0 138 -43v-99z" />
    <glyph glyph-name="t" unicode="t" horiz-adv-x="354" 
d="M232 35q42 -4 71.5 21t43.5 62q-4 -19 -12 -38.5t-24 -41.5t-44.5 -35t-64.5 -12q-39 1 -64.5 17t-38 45.5t-17 60t-4.5 72.5v256h-43l-12 9h55v119l79 66q0 -87 -1 -185h122l-9 -9h-113v-260q1 -74 15.5 -108.5t60.5 -38.5z" />
    <glyph glyph-name="u" unicode="u" horiz-adv-x="539" 
d="M205 43q33 -13 84 3.5t87 51.5q-35 -44 -93 -78.5t-116 -29.5q-22 2 -38 9t-25.5 22.5t-15.5 27.5t-8 37.5t-2.5 39.5t-0.5 45v16v194q0 24 -9.5 39.5t-24 21t-22.5 7t-15 1.5h149v-69v-167v-46t1.5 -37t4.5 -33.5t8.5 -23t14 -20.5t21.5 -11zM382 385q0 22 -9 37
t-23.5 20t-22 6.5t-14.5 1.5h147v-352q0 -7 1.5 -13t3.5 -10t5.5 -6.5t6 -4t6.5 -2t6 -0.5h5h4l-116 -75v70v328z" />
    <glyph glyph-name="v" unicode="v" horiz-adv-x="459" 
d="M483 450q-36 -9 -61 -38q-16 -15 -31 -50l-157 -382l-183 413q-13 25 -32.5 39t-32.5 16l-13 2h201q-2 0 -5.5 -1t-13.5 -4t-14.5 -9t-9 -17t3.5 -27l104 -242q15 -31 30 -31q4 0 8 2t7 7t5.5 9t6 11.5t5.5 11.5l80 196l4 11q12 34 -4.5 56t-56.5 27h159z" />
    <glyph glyph-name="w" unicode="w" horiz-adv-x="706" 
d="M564 450h170q-42 -9 -68 -38q-17 -19 -30 -51l-149 -380l-141 319l-116 -319l-186 411q-13 25 -32.5 39.5t-32.5 16.5l-13 2h195q-2 0 -5.5 -0.5t-12.5 -3.5t-13 -9t-7.5 -16t4.5 -25l106 -250q11 -25 24 -25q17 0 35 51l50 136l-37 84q-13 25 -30.5 39.5t-28.5 16.5
l-11 2h191q-2 0 -6 -1t-13.5 -4t-14 -9t-8.5 -17t4 -27l104 -243q13 -32 28 -32q14 0 33 49l73 189l4 11q12 34 -6.5 56.5t-59.5 27.5z" />
    <glyph glyph-name="x" unicode="x" horiz-adv-x="485" 
d="M302 0q23 0 35.5 17t-7.5 49l-107 140l-78 -102q-33 -43 -22 -70q10 -25 60 -34h-179q36 10 67 35q32 26 74 80l74 96l-133 175q-21 29 -43.5 45t-34.5 18l-12 2h212q-12 0 -28 -9q-9 -6 -12 -12q-9 -20 19 -57l83 -107l69 84q35 43 26 71q-11 26 -56 30h167
q-31 -6 -63 -31q-27 -21 -66 -71l-73 -89l164 -212q36 -39 71 -48h-207z" />
    <glyph glyph-name="y" unicode="y" horiz-adv-x="449" 
d="M329 450h159q-36 -9 -61 -38q-16 -15 -31 -50l-156 -382l-57 -137q-15 -37 -33 -47.5t-44 -7.5q-19 3 -29 19t-5 34q10 30 42 29q11 -1 22.5 -12t15.5 -12q22 -5 39 33l44 107l-180 407q-13 25 -32.5 39.5t-32.5 15.5l-13 2h202q-2 0 -6 -1t-14 -4.5t-14.5 -9.5t-9 -16.5
t4.5 -26.5l104 -242q15 -31 30 -31q4 0 8 2t7 7t5.5 9t6 11.5t5.5 11.5l80 196l4 11q12 34 -4.5 56t-56.5 27z" />
    <glyph glyph-name="z" unicode="z" horiz-adv-x="498" 
d="M248 4q69 2 128 38q23 14 44.5 40.5t31.5 45.5l10 20l-28 -151l-392 1l282 409q9 14 11 22.5t-5 13t-24 4.5h-60q-38 1 -63.5 -9t-58.5 -31q-18 -11 -36 -28.5t-28 -28.5l-9 -12l33 116h368q-50 -68 -161 -228.5t-122 -179.5q-25 -41 21 -41z" />
    <glyph glyph-name="braceleft" unicode="{" horiz-adv-x="312" 
d="M305 705q-96 8 -123 -85q-11 -45 -9.5 -94t9 -88.5t1.5 -81t-32 -72.5q51 -55 36 -160q-2 -17 -7.5 -53.5t-8 -60.5t-1.5 -56.5t9 -58.5q11 -34 32 -49t45 -14.5t54 1.5q-108 -23 -151.5 28.5t-30.5 168.5q2 14 5.5 44t4.5 40.5t2.5 31.5t0.5 31.5t-3 23.5t-7 24
q-14 40 -63 57q28 6 50 33q23 30 18 109q-1 10 -3.5 31.5t-4.5 46t-2 51.5q1 41 13.5 72t32 47t43.5 26.5t47 9.5t43 -3z" />
    <glyph glyph-name="bar" unicode="|" horiz-adv-x="135" 
d="M63 807h9v-863h-9v863z" />
    <glyph glyph-name="braceright" unicode="}" horiz-adv-x="316" 
d="M-2 705q96 8 123 -85q11 -45 9.5 -94t-9 -88.5t-1.5 -81t32 -72.5q-51 -55 -36 -160q2 -17 7.5 -53.5t8 -60.5t1.5 -56.5t-9 -58.5q-11 -34 -32 -49t-45 -14.5t-54 1.5q108 -23 151.5 28.5t30.5 168.5q-2 14 -5.5 44t-4.5 40.5t-2.5 31.5t-0.5 31.5t3 23.5t7 24
q14 40 63 57q-28 6 -50 33q-23 30 -18 109q1 10 3.5 31.5t4.5 46t2 51.5q-1 41 -13.5 72t-32 47t-43.5 26.5t-47 9.5t-43 -3z" />
    <glyph glyph-name="asciitilde" unicode="~" horiz-adv-x="395" 
d="M57 286q19 53 66 53q31 0 72.5 -28t73.5 -28t52 23.5t16 54.5q-5 -49 -68 -49q-20 0 -61.5 25.5t-66.5 28.5q-33 2 -56.5 -19.5t-27.5 -60.5z" />
    <glyph glyph-name="exclamdown" unicode="&#xa1;" horiz-adv-x="228" 
d="M124 540q-19 0 -32.5 13t-13.5 32t13.5 32.5t32.5 13.5t32 -13.5t13 -32.5t-13 -32t-32 -13zM125 487v4v-4zM125 487q0 -53 6 -115t13 -113.5t14.5 -103.5t11.5 -91.5t2 -71t-13 -48t-33 -16.5q-44 0 -44 75t21.5 230.5t21.5 253.5z" />
    <glyph glyph-name="cent" unicode="&#xa2;" horiz-adv-x="485" 
d="M309 84q58 -2 107 20.5t76 75.5q-17 -67 -70.5 -112t-132.5 -45h-9v-42h-10v43q-90 6 -152 68t-63 164q-1 104 61 169t154 77v59h10v-58q34 4 72 -2q47 -8 83 -37.5t37 -69.5q1 -25 -12.5 -39.5t-34.5 -12.5q-25 1 -36.5 21t-4.5 45q11 41 -11 64t-63 25q-10 1 -30 -1
v-409q14 -3 29 -3zM130 249q10 -63 47 -105t93 -55v405q-74 -14 -114 -84t-26 -161z" />
    <glyph glyph-name="sterling" unicode="&#xa3;" horiz-adv-x="573" 
d="M452 708q43 -4 69.5 -28.5t25.5 -58.5q-1 -17 -11 -27t-26 -10q-22 0 -32 17.5t-5 42.5q5 27 -11 43.5t-41 15.5q-19 0 -35.5 -12.5t-29 -36.5t-19.5 -42.5t-16 -47.5q-57 -181 -90 -275h108l-9 -9h-102q-24 -69 -59 -158q74 0 119 -28q6 -4 18 -11.5t16.5 -10.5t14 -9
t15 -8.5t13.5 -6t15.5 -5.5t15.5 -3q39 -7 70 3.5t38 38.5q4 20 -7.5 28.5t-35.5 10.5q-13 0 -23 10t-12 24q-2 31 26 39q37 11 55 -24q17 -29 12 -71q-20 -119 -132 -112q-33 2 -58 14.5t-41 29.5t-31 34.5t-38.5 30.5t-53.5 15q-22 -54 -36 -76q-26 -41 -63 -41
q-38 0 -49 21.5t-2 44.5q11 26 42 42t61 21q43 148 46 157h-67l-12 9h82q62 227 73 264q25 89 82 127.5t130 27.5zM76 49q20 9 40 65q-22 -2 -43.5 -17.5t-22.5 -32.5q-1 -9 7.5 -14.5t18.5 -0.5z" />
    <glyph glyph-name="currency" unicode="&#xa4;" horiz-adv-x="483" 
d="M418 341q0 -65 -42 -115l54 -53l-20 -21l-54 55q-49 -43 -116 -43q-64 0 -114 40l-55 -55l-20 21l54 55q-44 51 -44 116q0 66 45 116l-56 55l20 21l55 -57q50 42 115 42q67 0 116 -43l55 57l21 -21l-57 -56q43 -49 43 -114zM239 188q62 0 106 44.5t44 108.5
q0 63 -44 107.5t-106 44.5t-105.5 -44.5t-43.5 -107.5q0 -64 43.5 -108.5t105.5 -44.5z" />
    <glyph glyph-name="yen" unicode="&#xa5;" horiz-adv-x="634" 
d="M644 700q-74 -11 -124 -106q-23 -43 -57 -108.5t-56 -106.5h138l-9 -10h-403l-12 10h114l-145 237q-22 36 -50 57t-45 24l-17 3h265q-17 0 -35 -11t-26 -33t13 -55q81 -130 141 -222h56q1 2 103 191q26 46 14.5 85.5t-60.5 44.5h195zM133 300l-12 10h424l-9 -10h-150
q-5 -15 -5 -49v-170q0 -27 11.5 -45.5t29.5 -25t29 -8.5t20 -2h-273q9 0 19.5 2t28 8.5t29 25t11.5 45.5v170q0 21 -8 49h-145z" />
    <glyph glyph-name="brokenbar" unicode="&#xa6;" horiz-adv-x="135" 
d="M63 682h9v-273h-9v273zM63 282h9v-273h-9v273z" />
    <glyph glyph-name="section" unicode="&#xa7;" horiz-adv-x="481" 
d="M249 510q96 -15 135 -56.5t37 -101.5q-3 -55 -43 -98q38 -42 36 -105q-1 -61 -48 -101t-115 -40q-90 0 -138 44t-48 95q0 22 11 38t31 16q21 0 33.5 -16t9.5 -35q-12 -61 20 -94q29 -30 78 -36t88 18.5t40 73.5q2 102 -149 124q-88 15 -121.5 51.5t-31.5 93.5t44 98
q-38 36 -36 97q2 60 48.5 102t124.5 40q58 -1 100.5 -36.5t42.5 -80.5q0 -44 -36 -44q-22 0 -30 17.5t-2 40.5q9 38 -25 66t-82 26q-31 -2 -59 -20t-37 -48q-11 -41 15.5 -80t106.5 -49zM380 307q1 45 -33.5 80t-111.5 44q-67 8 -106 39q-13 -16 -18 -39q-9 -38 21 -72
t108 -43q83 -10 129 -53q10 21 11 44z" />
    <glyph glyph-name="dieresis" unicode="&#xa8;" horiz-adv-x="600" 
d="M102 541q-18 0 -31.5 13.5t-13.5 32.5q0 18 13.5 31t31.5 13q19 0 32.5 -13t13.5 -31q0 -19 -13 -32.5t-33 -13.5zM308 541q-19 0 -32.5 13.5t-13.5 32.5q0 18 13.5 31t32.5 13t32.5 -13t13.5 -31q0 -19 -13.5 -32.5t-32.5 -13.5z" />
    <glyph glyph-name="copyright" unicode="&#xa9;" horiz-adv-x="750" 
d="M372 -85q-134 0 -229.5 95.5t-95.5 229.5t95.5 229t229.5 95t229.5 -95t95.5 -229t-95.5 -229.5t-229.5 -95.5zM373 -75q131 0 223.5 92.5t92.5 223.5q0 130 -92.5 222.5t-223.5 92.5t-223 -92t-92 -223t92.5 -223.5t222.5 -92.5zM222 221q12 -72 56.5 -114.5
t107.5 -48.5q61 -7 115 15t83 79q-19 -63 -73.5 -108.5t-131.5 -45.5q-96 0 -164.5 61.5t-70.5 169.5q-1 88 45 149.5t114.5 85t141.5 11.5q48 -9 84.5 -39t36.5 -69q0 -25 -13 -39t-34 -12q-26 3 -37.5 22t-4.5 44q11 41 -11 64t-63 25q-91 4 -144.5 -70t-36.5 -180z" />
    <glyph glyph-name="guillemotleft" unicode="&#xab;" horiz-adv-x="356" 
d="M185 417l-122 -143l112 -150l-157 151zM289 417l-122 -143l112 -150l-157 151z" />
    <glyph glyph-name="logicalnot" unicode="&#xac;" horiz-adv-x="422" 
d="M39 319h345v-112h-10v103h-335v9z" />
    <glyph glyph-name="registered" unicode="&#xae;" horiz-adv-x="747" 
d="M372 564q134 0 229.5 -95t95.5 -229t-95.5 -229.5t-229.5 -95.5t-229.5 95.5t-95.5 229.5t95.5 229t229.5 95zM373 -75q131 0 223.5 92.5t92.5 223.5q0 130 -92.5 222.5t-223.5 92.5t-223 -92t-92 -223t92.5 -223.5t222.5 -92.5zM520 100q12 -20 28 -33.5t26 -17.5l10 -4
h-86q-18 19 -40 60l-55 93q-10 18 -21 29t-26.5 14.5t-22 4t-25.5 0.5l-1 -165q0 -36 44 -36h-148q8 0 17 1.5t21 12.5t12 31v324q0 20 -12.5 31.5t-21.5 13t-16 1.5q22 0 73 1.5t76 0.5q60 -1 93 -10t50 -36q19 -26 17 -62q-2 -54 -40 -83q-27 -20 -57 -24q24 -6 51 -54z
M362 254q47 5 72 32t25 69q1 62 -37.5 83.5t-114.5 18.5l1 -206q27 0 54 3z" />
    <glyph glyph-name="macron" unicode="&#xaf;" horiz-adv-x="461" 
d="M135 588l197 1v-9h-197v8z" />
    <glyph glyph-name="degree" unicode="&#xb0;" horiz-adv-x="218" 
d="M194 510q-25 0 -43 18.5t-18 43.5q0 26 18 44.5t43 18.5q27 0 45.5 -17.5t17.5 -45.5q0 -25 -18.5 -43.5t-44.5 -18.5zM195 525q19 0 34 14.5t15 34.5q0 19 -14.5 33.5t-34.5 14.5q-19 0 -33.5 -14t-14.5 -34t14.5 -34.5t33.5 -14.5z" />
    <glyph glyph-name="plusminus" unicode="&#xb1;" horiz-adv-x="541" 
d="M276 360h208v-11h-208v-174h-11v174h-208v11h208v202h11v-202zM57 123v10h427v-10h-427z" />
    <glyph glyph-name="acute" unicode="&#xb4;" horiz-adv-x="600" 
d="M142 505l121 85q21 15 24.5 31t-6.5 23q-10 12 -26 6.5t-29 -26.5z" />
    <glyph glyph-name="periodcentered" unicode="&#xb7;" horiz-adv-x="208" 
d="M103 342q-17 0 -29.5 12.5t-12.5 30.5q0 17 12.5 29.5t29.5 12.5q18 0 30.5 -12.5t12.5 -29.5q0 -18 -12.5 -30.5t-30.5 -12.5z" />
    <glyph glyph-name="cedilla" unicode="&#xb8;" horiz-adv-x="276" 
d="M155 -2l13 2l-29 -43q46 -4 65.5 -26t14.5 -52q-6 -40 -37.5 -57t-66.5 -12t-58 23q16 -7 35.5 -9t38.5 1.5t33 17.5t16 37q3 29 -17.5 43.5t-47.5 16.5z" />
    <glyph glyph-name="guillemotright" unicode="&#xbb;" horiz-adv-x="356" 
d="M57 417l123 -143l-113 -150l157 151zM161 417l123 -143l-113 -150l157 151z" />
    <glyph glyph-name="questiondown" unicode="&#xbf;" horiz-adv-x="460" 
d="M248 516q19 0 33 -13.5t14 -31.5q0 -19 -14 -32.5t-33 -13.5t-32 13.5t-13 32.5q0 18 13 31.5t32 13.5zM249 380q0 -52 -29 -110.5t-64 -102t-64.5 -98t-29.5 -99.5q-1 -78 53.5 -121t137.5 -38q75 5 118.5 53t41.5 101q-1 25 -13.5 42t-32.5 17q-22 0 -35 -16.5
t-10 -39.5q1 -12 15 -34t14 -33q1 -38 -28.5 -58.5t-69.5 -21.5q-52 0 -84 37.5t-34 101.5q-1 42 20 95.5t46 97.5t41 106t7 121z" />
    <glyph glyph-name="Agrave" unicode="&#xc0;" horiz-adv-x="624" 
d="M258 840q-20 15 -23.5 31t6.5 23q10 12 26 6.5t29 -26.5l84 -119zM553 87q14 -35 37 -56.5t36.5 -25.5t26.5 -5h-268q4 0 9.5 1.5t21 7t22.5 15t13 26.5t-6 41l-71 195h-231l-65 -171q-20 -46 -3 -78.5t71 -36.5h-198q35 2 65.5 32.5t51.5 85.5l238 612q1 -4 3 -9z
M261 561q-13 0 -42 -76l-71 -189l222 1l-74 208q-21 56 -35 56zM657 0h-4h4z" />
    <glyph glyph-name="Aacute" unicode="&#xc1;" horiz-adv-x="624" 
d="M394 898q10 -6 6.5 -22.5t-24.5 -31.5l-122 -84l85 119q13 21 28.5 26t26.5 -7zM553 87q14 -35 37 -56.5t36.5 -25.5t26.5 -5h-268q4 0 9.5 1.5t21 7t22.5 15t13 26.5t-6 41l-71 195h-231l-65 -171q-20 -46 -3 -78.5t71 -36.5h-198q35 2 65.5 32.5t51.5 85.5l238 612
q1 -4 3 -9zM261 561q-13 0 -42 -76l-71 -189l222 1l-74 208q-21 56 -35 56zM657 0h-4h4z" />
    <glyph glyph-name="Acircumflex" unicode="&#xc2;" horiz-adv-x="624" 
d="M419 745l-98 102l-109 -103l82 137h55zM553 87q14 -35 37 -56.5t36.5 -25.5t26.5 -5h-268q4 0 9.5 1.5t21 7t22.5 15t13 26.5t-6 41l-71 195h-231l-65 -171q-20 -46 -3 -78.5t71 -36.5h-198q35 2 65.5 32.5t51.5 85.5l238 612q1 -4 3 -9zM261 561q-13 0 -42 -76l-71 -189
l222 1l-74 208q-21 56 -35 56zM657 0h-4h4z" />
    <glyph glyph-name="Atilde" unicode="&#xc3;" horiz-adv-x="624" 
d="M230 837q-11 0 -21.5 -3.5t-25 -19.5t-19.5 -42q1 47 29 73.5t66 23.5q25 -3 57.5 -32.5t53.5 -29.5q27 -1 46 16t21 47q3 -37 -19 -67.5t-59 -31.5q-33 -1 -68.5 32.5t-60.5 33.5zM553 87q14 -35 37 -56.5t36.5 -25.5t26.5 -5h-268q4 0 9.5 1.5t21 7t22.5 15t13 26.5
t-6 41l-71 195h-231l-65 -171q-20 -46 -3 -78.5t71 -36.5h-198q35 2 65.5 32.5t51.5 85.5l238 612q1 -4 3 -9zM261 561q-13 0 -42 -76l-71 -189l222 1l-74 208q-21 56 -35 56zM657 0h-4h4z" />
    <glyph glyph-name="Adieresis" unicode="&#xc4;" horiz-adv-x="624" 
d="M200 783q-19 0 -32 13.5t-13 33.5q0 18 13 30.5t32 12.5t32.5 -12.5t13.5 -30.5q0 -20 -13.5 -33.5t-32.5 -13.5zM405 783q-18 0 -31.5 14t-13.5 33q0 18 13.5 30.5t31.5 12.5q19 0 32.5 -12.5t13.5 -30.5q0 -20 -13.5 -33.5t-32.5 -13.5zM553 87q14 -35 37 -56.5
t36.5 -25.5t26.5 -5h-268q4 0 9.5 1.5t21 7t22.5 15t13 26.5t-6 41l-71 195h-231l-65 -171q-20 -46 -3 -78.5t71 -36.5h-198q35 2 65.5 32.5t51.5 85.5l238 612q1 -4 3 -9zM261 561q-13 0 -42 -76l-71 -189l222 1l-74 208q-21 56 -35 56zM657 0h-4h4z" />
    <glyph glyph-name="Aring" unicode="&#xc5;" horiz-adv-x="624" 
d="M305 772q-25 0 -43.5 18t-18.5 43q0 27 18 45.5t44 18.5q27 0 45 -18t18 -46q0 -25 -18.5 -43t-44.5 -18zM306 884q-20 0 -34 -14.5t-14 -34.5t14 -34.5t34 -14.5q19 0 33.5 14.5t14.5 34.5t-14.5 34.5t-33.5 14.5zM553 87q14 -35 37 -56.5t36.5 -25.5t26.5 -5h-268
q4 0 9.5 1.5t21 7t22.5 15t13 26.5t-6 41l-71 195h-231l-65 -171q-20 -46 -3 -78.5t71 -36.5h-198q35 2 65.5 32.5t51.5 85.5l238 612q1 -4 3 -9zM261 561q-13 0 -42 -76l-71 -189l222 1l-74 208q-21 56 -35 56zM657 0h-4h4z" />
    <glyph glyph-name="AE" unicode="&#xc6;" horiz-adv-x="895" 
d="M857 189l-48 -189h-516q4 0 9.5 0.5t17.5 5.5t21 13.5t16 25.5t7 41v224l-176 -1l-89 -170q-32 -65 -18 -99.5t68 -39.5h-205q7 0 18 3.5t29.5 13t40 34t39.5 59.5q21 39 85.5 166.5t133.5 263t82 160.5h410l39 -167q-10 20 -38 54t-59 53q-32 19 -44.5 25.5t-53.5 16
t-94 9.5h-74v-322h49q36 1 64 13t42 28t23 32t11 27l2 11v-232q0 5 -1.5 12t-10.5 26.5t-22.5 34t-42 26.5t-65.5 12h-49v-280q0 -70 56 -70h57q92 0 183 64q32 23 58 52t36 47zM192 320h172v230q0 2 0.5 11.5t0 15.5t-1 14t-3.5 12t-7 4q-17 0 -56 -79q-3 -7 -5 -10z" />
    <glyph glyph-name="Ccedilla" unicode="&#xc7;" horiz-adv-x="711" 
d="M445 57q48 0 89 13.5t64.5 33t40.5 39t23 33.5l6 14q-2 -7 -6 -18.5t-21.5 -41.5t-40.5 -54.5t-64 -47.5t-90 -30q-27 -4 -58 -4l-25 -37q46 -4 65.5 -26t14.5 -52q-6 -40 -37.5 -57t-66.5 -12t-58 23q16 -7 35.5 -9t38.5 1.5t33 17.5t16 37q3 29 -17.5 43.5t-47.5 16.5
l37 55q-145 6 -235.5 108t-93.5 235q-2 85 25.5 154.5t75.5 114t108.5 70t129.5 30.5q66 5 131 -8q37 -7 68 -19.5t44 -21.5l13 -8l-1 -143q-57 113 -159 161q-118 54 -221 -6q-63 -37 -95 -118t-24 -182q10 -136 96.5 -220t206.5 -85z" />
    <glyph glyph-name="Egrave" unicode="&#xc8;" horiz-adv-x="651" 
d="M244 840q-20 15 -24 31t6 23q11 12 26.5 6.5t29.5 -26.5l84 -119zM510 70q36 26 62 53t34 41l9 15l-43 -179h-552q8 0 19.5 2.5t28.5 9.5t28.5 25.5t11.5 45.5v537q0 27 -11.5 45t-29 24.5t-28 8.5t-19.5 2h517l35 -160q-9 16 -37.5 48t-62.5 55q-42 28 -81 37.5
t-127 9.5h-62v-321h56q34 1 60.5 11t40.5 24t23.5 28t11.5 24l3 10v-207q-1 4 -3 10.5t-11.5 23.5t-23 30t-40.5 24t-61 11h-56v-263q0 -28 7 -47t20 -26.5t23.5 -10t23.5 -2.5h63q88 0 171 61z" />
    <glyph glyph-name="Eacute" unicode="&#xc9;" horiz-adv-x="651" 
d="M423 898q10 -6 6.5 -22.5t-24.5 -31.5l-122 -84l85 119q13 21 28.5 26t26.5 -7zM510 70q36 26 62 53t34 41l9 15l-43 -179h-552q8 0 19.5 2.5t28.5 9.5t28.5 25.5t11.5 45.5v537q0 27 -11.5 45t-29 24.5t-28 8.5t-19.5 2h517l35 -160q-9 16 -37.5 48t-62.5 55
q-42 28 -81 37.5t-127 9.5h-62v-321h56q34 1 60.5 11t40.5 24t23.5 28t11.5 24l3 10v-207q-1 4 -3 10.5t-11.5 23.5t-23 30t-40.5 24t-61 11h-56v-263q0 -28 7 -47t20 -26.5t23.5 -10t23.5 -2.5h63q88 0 171 61z" />
    <glyph glyph-name="Ecircumflex" unicode="&#xca;" horiz-adv-x="651" 
d="M420 745l-98 102l-110 -103l82 137h56zM510 70q36 26 62 53t34 41l9 15l-43 -179h-552q8 0 19.5 2.5t28.5 9.5t28.5 25.5t11.5 45.5v537q0 27 -11.5 45t-29 24.5t-28 8.5t-19.5 2h517l35 -160q-9 16 -37.5 48t-62.5 55q-42 28 -81 37.5t-127 9.5h-62v-321h56
q34 1 60.5 11t40.5 24t23.5 28t11.5 24l3 10v-207q-1 4 -3 10.5t-11.5 23.5t-23 30t-40.5 24t-61 11h-56v-263q0 -28 7 -47t20 -26.5t23.5 -10t23.5 -2.5h63q88 0 171 61z" />
    <glyph glyph-name="Edieresis" unicode="&#xcb;" horiz-adv-x="651" 
d="M205 783q-18 0 -31.5 14t-13.5 33q0 18 13.5 30.5t31.5 12.5q20 0 33.5 -12.5t13.5 -30.5q0 -20 -14 -33.5t-33 -13.5zM411 783q-18 0 -31.5 14t-13.5 33q0 18 13.5 30.5t31.5 12.5q19 0 32.5 -12.5t13.5 -30.5q0 -20 -13.5 -33.5t-32.5 -13.5zM510 70q36 26 62 53t34 41
l9 15l-43 -179h-552q8 0 19.5 2.5t28.5 9.5t28.5 25.5t11.5 45.5v537q0 27 -11.5 45t-29 24.5t-28 8.5t-19.5 2h517l35 -160q-9 16 -37.5 48t-62.5 55q-42 28 -81 37.5t-127 9.5h-62v-321h56q34 1 60.5 11t40.5 24t23.5 28t11.5 24l3 10v-207q-1 4 -3 10.5t-11.5 23.5
t-23 30t-40.5 24t-61 11h-56v-263q0 -28 7 -47t20 -26.5t23.5 -10t23.5 -2.5h63q88 0 171 61z" />
    <glyph glyph-name="Igrave" unicode="&#xcc;" horiz-adv-x="335" 
d="M97 840q-21 15 -24.5 31t6.5 23q10 12 26 6.5t29 -26.5l84 -119zM211 85q0 -23 8.5 -40t19.5 -25.5t25.5 -13t22 -5.5t14.5 -1h-272q9 0 19.5 2t28.5 9t29.5 26.5t11.5 47.5v530q0 29 -11.5 48t-29.5 26t-28.5 9t-19.5 2h272q-9 0 -20 -2t-29 -9t-29.5 -26t-11.5 -48
v-530z" />
    <glyph glyph-name="Iacute" unicode="&#xcd;" horiz-adv-x="335" 
d="M251 898q10 -6 6.5 -22.5t-23.5 -31.5l-122 -84l84 119q13 21 29 26t26 -7zM211 85q0 -23 8.5 -40t19.5 -25.5t25.5 -13t22 -5.5t14.5 -1h-272q9 0 19.5 2t28.5 9t29.5 26.5t11.5 47.5v530q0 29 -11.5 48t-29.5 26t-28.5 9t-19.5 2h272q-9 0 -20 -2t-29 -9t-29.5 -26
t-11.5 -48v-530z" />
    <glyph glyph-name="Icircumflex" unicode="&#xce;" horiz-adv-x="335" 
d="M277 745l-98 102l-110 -103l83 137h55zM211 85q0 -23 8.5 -40t19.5 -25.5t25.5 -13t22 -5.5t14.5 -1h-272q9 0 19.5 2t28.5 9t29.5 26.5t11.5 47.5v530q0 29 -11.5 48t-29.5 26t-28.5 9t-19.5 2h272q-9 0 -20 -2t-29 -9t-29.5 -26t-11.5 -48v-530z" />
    <glyph glyph-name="Idieresis" unicode="&#xcf;" horiz-adv-x="335" 
d="M67 783q-18 0 -31.5 14t-13.5 33q0 18 13.5 30.5t31.5 12.5q19 0 32.5 -12.5t13.5 -30.5q0 -20 -13.5 -33.5t-32.5 -13.5zM273 873q19 0 32.5 -12.5t13.5 -30.5q0 -20 -13.5 -33.5t-32.5 -13.5q-18 0 -31.5 14t-13.5 33q0 18 13.5 30.5t31.5 12.5zM211 85q0 -23 8.5 -40
t19.5 -25.5t25.5 -13t22 -5.5t14.5 -1h-272q9 0 19.5 2t28.5 9t29.5 26.5t11.5 47.5v530q0 29 -11.5 48t-29.5 26t-28.5 9t-19.5 2h272q-9 0 -20 -2t-29 -9t-29.5 -26t-11.5 -48v-530z" />
    <glyph glyph-name="Eth" unicode="&#xd0;" horiz-adv-x="714" 
d="M682 374q3 -103 -32 -186.5t-108.5 -135t-174.5 -52.5h-61h-274q9 0 20 2t29.5 8.5t30.5 25t12 45.5v271h-74l-12 9h86v254q0 29 -12 48.5t-30.5 26t-29 8.5t-20.5 2h282q87 1 150.5 -13t113.5 -49.5t76 -101.5t28 -162zM369 12q108 7 161.5 103t51.5 260q-2 92 -24 156
t-61.5 97t-83 47t-100.5 15q-68 0 -91 -2v-327h95l-9 -9h-86v-258q0 -49 22.5 -66t73.5 -17q44 0 51 1z" />
    <glyph glyph-name="Ntilde" unicode="&#xd1;" horiz-adv-x="734" 
d="M312 837q-11 0 -22 -3.5t-25 -19.5t-19 -42q0 47 28.5 73.5t66.5 23.5q25 -3 57 -32.5t53 -29.5q28 -1 47 16t21 47q2 -37 -19.5 -67.5t-58.5 -31.5q-33 -1 -68.5 32.5t-60.5 33.5zM599 576q0 40 -13.5 67t-35 38t-34.5 14.5t-26 4.5h227q-12 -1 -25 -4.5t-34 -14.5
t-34.5 -38t-13.5 -67v-588h-1l-8 12l-429 571q-22 27 -32 -1q-4 -13 -4 -32v-409q0 -34 11.5 -59.5t27.5 -38t32 -20.5t27 -9l12 -2h-231q4 0 11.5 1.5t26.5 9.5t33.5 20.5t26.5 38.5t12 60v408q0 25 -3.5 46.5t-9 36.5t-13 27.5t-16 21t-16.5 14.5t-15.5 9t-13 5t-8.5 2
l-4 1h170l359 -479q20 -28 33 -25q11 2 11 57v322z" />
    <glyph glyph-name="Ograve" unicode="&#xd2;" horiz-adv-x="809" 
d="M476 755l-121 85q-21 15 -24.5 31t6.5 23q10 12 26 6.5t29 -26.5zM420 708q86 0 152 -32t103.5 -86t55.5 -116.5t16 -129.5q-4 -153 -101 -254t-255 -100q-88 0 -156.5 34t-108 89t-59 117.5t-17.5 125.5q2 161 107 256.5t263 95.5zM640 347q-5 144 -76 244t-176 100
q-111 3 -175 -85.5t-57 -240.5q8 -141 81 -245t176 -112q121 -11 178.5 83.5t48.5 255.5z" />
    <glyph glyph-name="Oacute" unicode="&#xd3;" horiz-adv-x="809" 
d="M360 760l121 84q21 15 24.5 31.5t-6.5 22.5q-10 12 -26 7t-29 -26zM420 708q86 0 152 -32t103.5 -86t55.5 -116.5t16 -129.5q-4 -153 -101 -254t-255 -100q-88 0 -156.5 34t-108 89t-59 117.5t-17.5 125.5q2 161 107 256.5t263 95.5zM640 347q-5 144 -76 244t-176 100
q-111 3 -175 -85.5t-57 -240.5q8 -141 81 -245t176 -112q121 -11 178.5 83.5t48.5 255.5z" />
    <glyph glyph-name="Ocircumflex" unicode="&#xd4;" horiz-adv-x="809" 
d="M304 744l110 103l98 -102l-70 136h-56zM420 708q86 0 152 -32t103.5 -86t55.5 -116.5t16 -129.5q-4 -153 -101 -254t-255 -100q-88 0 -156.5 34t-108 89t-59 117.5t-17.5 125.5q2 161 107 256.5t263 95.5zM640 347q-5 144 -76 244t-176 100q-111 3 -175 -85.5t-57 -240.5
q8 -141 81 -245t176 -112q121 -11 178.5 83.5t48.5 255.5z" />
    <glyph glyph-name="Otilde" unicode="&#xd5;" horiz-adv-x="809" 
d="M266 772q5 26 19 42t25 19.5t22 3.5q25 0 60.5 -33.5t68.5 -32.5q37 1 58.5 31.5t19.5 67.5q-2 -30 -21 -47t-47 -16q-21 0 -53 29.5t-57 32.5q-38 3 -66.5 -23.5t-28.5 -73.5zM420 708q86 0 152 -32t103.5 -86t55.5 -116.5t16 -129.5q-4 -153 -101 -254t-255 -100
q-88 0 -156.5 34t-108 89t-59 117.5t-17.5 125.5q2 161 107 256.5t263 95.5zM640 347q-5 144 -76 244t-176 100q-111 3 -175 -85.5t-57 -240.5q8 -141 81 -245t176 -112q121 -11 178.5 83.5t48.5 255.5z" />
    <glyph glyph-name="Odieresis" unicode="&#xd6;" horiz-adv-x="809" 
d="M306 783q-18 0 -31.5 14t-13.5 33q0 18 13.5 30.5t31.5 12.5q19 0 32.5 -12.5t13.5 -30.5q0 -20 -13.5 -33.5t-32.5 -13.5zM511 783q-18 0 -31.5 14t-13.5 33q0 18 13.5 30.5t31.5 12.5q19 0 32.5 -12.5t13.5 -30.5q0 -20 -13.5 -33.5t-32.5 -13.5zM420 708q86 0 152 -32
t103.5 -86t55.5 -116.5t16 -129.5q-4 -153 -101 -254t-255 -100q-88 0 -156.5 34t-108 89t-59 117.5t-17.5 125.5q2 161 107 256.5t263 95.5zM640 347q-5 144 -76 244t-176 100q-111 3 -175 -85.5t-57 -240.5q8 -141 81 -245t176 -112q121 -11 178.5 83.5t48.5 255.5z" />
    <glyph glyph-name="multiply" unicode="&#xd7;" horiz-adv-x="426" 
d="M369 200l-9 -9l-147 148l-148 -148l-8 9l147 147l-146 146l9 9l146 -146l146 146l8 -9l-145 -145z" />
    <glyph glyph-name="Oslash" unicode="&#xd8;" horiz-adv-x="818" 
d="M641 634q58 -52 86 -129.5t26 -160.5q-4 -153 -101 -254t-255 -100q-137 0 -228 83l-61 -73h-16l68 81q-53 53 -80 127t-25 148q2 161 107.5 256.5t263.5 95.5q124 0 206 -67l51 60h15zM162 365q6 -119 59 -212l358 424q-73 114 -185 114q-111 3 -175 -85.5t-57 -240.5z
M418 8q122 -11 179.5 83.5t48.5 255.5q-6 129 -61 220l-357 -425q76 -125 190 -134z" />
    <glyph glyph-name="Ugrave" unicode="&#xd9;" horiz-adv-x="683" 
d="M317 840q-21 15 -24.5 31t6.5 23q10 12 26 6.5t29 -26.5l84 -119zM579 580q0 37 -12 63.5t-30.5 37.5t-30.5 14.5t-23 4.5h197q-9 -1 -20 -5t-29 -15t-29.5 -38t-11.5 -66v-283q0 -300 -235 -300q-49 0 -88.5 11.5t-66 30.5t-46 48.5t-30 59t-17 69.5t-8 72.5t-1.5 74.5
v240q0 27 -8 47.5t-18.5 30t-24.5 15.5t-22 7t-14 1h273q-7 0 -15 -1t-22 -7t-25 -15.5t-19 -30t-8 -47.5v-297q0 -128 46 -202t147 -72q97 2 144 67.5t47 203.5v281z" />
    <glyph glyph-name="Uacute" unicode="&#xda;" horiz-adv-x="683" 
d="M494 898q10 -6 6.5 -22.5t-24.5 -31.5l-122 -84l85 119q13 21 28.5 26t26.5 -7zM579 580q0 37 -12 63.5t-30.5 37.5t-30.5 14.5t-23 4.5h197q-9 -1 -20 -5t-29 -15t-29.5 -38t-11.5 -66v-283q0 -300 -235 -300q-49 0 -88.5 11.5t-66 30.5t-46 48.5t-30 59t-17 69.5
t-8 72.5t-1.5 74.5v240q0 27 -8 47.5t-18.5 30t-24.5 15.5t-22 7t-14 1h273q-7 0 -15 -1t-22 -7t-25 -15.5t-19 -30t-8 -47.5v-297q0 -128 46 -202t147 -72q97 2 144 67.5t47 203.5v281z" />
    <glyph glyph-name="Ucircumflex" unicode="&#xdb;" horiz-adv-x="683" 
d="M476 745l-98 102l-109 -103l82 137h55zM579 580q0 37 -12 63.5t-30.5 37.5t-30.5 14.5t-23 4.5h197q-9 -1 -20 -5t-29 -15t-29.5 -38t-11.5 -66v-283q0 -300 -235 -300q-49 0 -88.5 11.5t-66 30.5t-46 48.5t-30 59t-17 69.5t-8 72.5t-1.5 74.5v240q0 27 -8 47.5t-18.5 30
t-24.5 15.5t-22 7t-14 1h273q-7 0 -15 -1t-22 -7t-25 -15.5t-19 -30t-8 -47.5v-297q0 -128 46 -202t147 -72q97 2 144 67.5t47 203.5v281z" />
    <glyph glyph-name="Udieresis" unicode="&#xdc;" horiz-adv-x="683" 
d="M286 783q-18 0 -31.5 14t-13.5 33q0 18 13.5 30.5t31.5 12.5q19 0 32.5 -12.5t13.5 -30.5q0 -20 -13.5 -33.5t-32.5 -13.5zM492 783q-18 0 -31.5 14t-13.5 33q0 18 13.5 30.5t31.5 12.5q19 0 32.5 -12.5t13.5 -30.5q0 -20 -13.5 -33.5t-32.5 -13.5zM579 580
q0 37 -12 63.5t-30.5 37.5t-30.5 14.5t-23 4.5h197q-9 -1 -20 -5t-29 -15t-29.5 -38t-11.5 -66v-283q0 -300 -235 -300q-49 0 -88.5 11.5t-66 30.5t-46 48.5t-30 59t-17 69.5t-8 72.5t-1.5 74.5v240q0 27 -8 47.5t-18.5 30t-24.5 15.5t-22 7t-14 1h273q-7 0 -15 -1t-22 -7
t-25 -15.5t-19 -30t-8 -47.5v-297q0 -128 46 -202t147 -72q97 2 144 67.5t47 203.5v281z" />
    <glyph glyph-name="Yacute" unicode="&#xdd;" horiz-adv-x="579" 
d="M438 898q10 -6 6.5 -22.5t-24.5 -31.5l-121 -84l84 119q13 21 29 26t26 -7zM428 700h194q-77 -17 -128 -109l-118 -213q-26 -48 -26 -110v-186q0 -32 19 -52t35 -24.5t30 -5.5h-263q13 0 30 4.5t36.5 24t19.5 49.5l1 179q0 53 -24 92l-158 270q-26 42 -59 61.5t-55 19.5
l263 -1q-39 -2 -51.5 -29t8.5 -63l133 -233q24 -41 49 5l108 194q29 49 18.5 84t-62.5 43z" />
    <glyph glyph-name="Thorn" unicode="&#xde;" horiz-adv-x="551" 
d="M491 472q26 -66 9 -132t-61 -97q-38 -29 -102.5 -37.5t-121.5 5.5q85 -8 146.5 33.5t62.5 139.5q1 92 -43.5 134.5t-132.5 41.5q-12 1 -55 -1v-485q0 -25 10.5 -41.5t27 -22.5t26 -8t18.5 -2h-256q9 0 18.5 2t25.5 8t26.5 22.5t10.5 41.5v552q0 25 -10.5 41.5t-26.5 22.5
t-25.5 8t-18.5 2h256q-9 0 -18.5 -2t-26 -8t-27 -22.5t-10.5 -41.5v-59q11 1 33 2.5t23 1.5q93 4 153.5 -16t88.5 -83z" />
    <glyph glyph-name="germandbls" unicode="&#xdf;" horiz-adv-x="529" 
d="M491 162q2 -71 -40 -119t-113 -48q-52 0 -85.5 24.5t-33.5 61.5q0 19 11.5 28.5t26.5 9.5q11 0 16 -5q19 -13 19 -50q0 -29 17 -45t44 -14q34 1 52.5 34t19.5 81q3 122 -112 167q-34 15 -51 32.5t-18.5 26.5t-0.5 25q2 18 17.5 35t33.5 31t35 47.5t21 80.5
q6 54 -13.5 97.5t-72.5 43.5q-46 0 -65 -33.5t-19 -108.5v-503q0 -21 9 -35t24 -18.5t22.5 -6t14.5 -1.5h-219q7 0 14.5 1.5t22.5 6t24 18.5t9 35v491q0 163 183 160q56 -1 90.5 -30.5t44 -65.5t2.5 -71q-10 -51 -38.5 -84.5t-56 -44.5t-50.5 -22t-24 -23q-1 -8 3.5 -13.5
t14.5 -9t19.5 -5.5t24.5 -4.5t24 -4.5q80 -19 115.5 -66.5t37.5 -105.5z" />
    <glyph glyph-name="agrave" unicode="&#xe0;" 
d="M208 597q-21 15 -24.5 31t6.5 23q10 12 26 7t29 -26l84 -120zM480 56q11 1 17 19q-5 -17 -10 -29t-15 -26t-25 -21t-36 -7q-69 0 -69 82v193q-49 -15 -82 -27.5t-65 -30t-48.5 -39.5t-18.5 -49q-2 -34 18.5 -60t61.5 -28q63 -5 130 48q-20 -21 -31 -31.5t-34 -28
t-49.5 -25.5t-56.5 -8q-63 0 -91.5 36t-25.5 80q1 20 9 37t18.5 29.5t30.5 24.5t35.5 20t45 17.5t47.5 14.5t53 14.5t53 14.5v56q0 71 -31 102t-81 22q-38 -7 -64 -28.5t-26 -57.5q0 -10 6.5 -25.5t7.5 -25.5q1 -20 -13 -32.5t-32 -12.5t-31.5 12t-12.5 38q1 50 53.5 89
t113.5 51q78 15 134.5 -16t54.5 -122v-245q0 -39 21.5 -44t37.5 19z" />
    <glyph glyph-name="aacute" unicode="&#xe1;" 
d="M347 651q10 -6 6.5 -22.5t-23.5 -31.5l-122 -84l84 119q13 21 29 26t26 -7zM480 56q11 1 17 19q-5 -17 -10 -29t-15 -26t-25 -21t-36 -7q-69 0 -69 82v193q-49 -15 -82 -27.5t-65 -30t-48.5 -39.5t-18.5 -49q-2 -34 18.5 -60t61.5 -28q63 -5 130 48q-20 -21 -31 -31.5
t-34 -28t-49.5 -25.5t-56.5 -8q-63 0 -91.5 36t-25.5 80q1 20 9 37t18.5 29.5t30.5 24.5t35.5 20t45 17.5t47.5 14.5t53 14.5t53 14.5v56q0 71 -31 102t-81 22q-38 -7 -64 -28.5t-26 -57.5q0 -10 6.5 -25.5t7.5 -25.5q1 -20 -13 -32.5t-32 -12.5t-31.5 12t-12.5 38
q1 50 53.5 89t113.5 51q78 15 134.5 -16t54.5 -122v-245q0 -39 21.5 -44t37.5 19z" />
    <glyph glyph-name="acircumflex" unicode="&#xe2;" 
d="M370 494l-99 102l-109 -103l82 137h56zM480 56q11 1 17 19q-5 -17 -10 -29t-15 -26t-25 -21t-36 -7q-69 0 -69 82v193q-49 -15 -82 -27.5t-65 -30t-48.5 -39.5t-18.5 -49q-2 -34 18.5 -60t61.5 -28q63 -5 130 48q-20 -21 -31 -31.5t-34 -28t-49.5 -25.5t-56.5 -8
q-63 0 -91.5 36t-25.5 80q1 20 9 37t18.5 29.5t30.5 24.5t35.5 20t45 17.5t47.5 14.5t53 14.5t53 14.5v56q0 71 -31 102t-81 22q-38 -7 -64 -28.5t-26 -57.5q0 -10 6.5 -25.5t7.5 -25.5q1 -20 -13 -32.5t-32 -12.5t-31.5 12t-12.5 38q1 50 53.5 89t113.5 51q78 15 134.5 -16
t54.5 -122v-245q0 -39 21.5 -44t37.5 19z" />
    <glyph glyph-name="atilde" unicode="&#xe3;" 
d="M192 591q-11 0 -22 -3.5t-25.5 -19.5t-19.5 -43q1 48 29.5 74.5t65.5 23.5q25 -3 57.5 -32.5t53.5 -29.5q27 -1 46 15.5t21 46.5q3 -36 -19 -66.5t-59 -31.5q-33 -1 -68 32.5t-60 33.5zM480 56q11 1 17 19q-5 -17 -10 -29t-15 -26t-25 -21t-36 -7q-69 0 -69 82v193
q-49 -15 -82 -27.5t-65 -30t-48.5 -39.5t-18.5 -49q-2 -34 18.5 -60t61.5 -28q63 -5 130 48q-20 -21 -31 -31.5t-34 -28t-49.5 -25.5t-56.5 -8q-63 0 -91.5 36t-25.5 80q1 20 9 37t18.5 29.5t30.5 24.5t35.5 20t45 17.5t47.5 14.5t53 14.5t53 14.5v56q0 71 -31 102t-81 22
q-38 -7 -64 -28.5t-26 -57.5q0 -10 6.5 -25.5t7.5 -25.5q1 -20 -13 -32.5t-32 -12.5t-31.5 12t-12.5 38q1 50 53.5 89t113.5 51q78 15 134.5 -16t54.5 -122v-245q0 -39 21.5 -44t37.5 19z" />
    <glyph glyph-name="adieresis" unicode="&#xe4;" 
d="M162 541q-18 0 -31.5 13.5t-13.5 32.5q0 18 13.5 31t31.5 13q19 0 32.5 -13t13.5 -31q0 -19 -13 -32.5t-33 -13.5zM368 541q-19 0 -32.5 13.5t-13.5 32.5q0 18 13.5 31t32.5 13t32.5 -13t13.5 -31q0 -19 -13.5 -32.5t-32.5 -13.5zM480 56q11 1 17 19q-5 -17 -10 -29
t-15 -26t-25 -21t-36 -7q-69 0 -69 82v193q-49 -15 -82 -27.5t-65 -30t-48.5 -39.5t-18.5 -49q-2 -34 18.5 -60t61.5 -28q63 -5 130 48q-20 -21 -31 -31.5t-34 -28t-49.5 -25.5t-56.5 -8q-63 0 -91.5 36t-25.5 80q1 20 9 37t18.5 29.5t30.5 24.5t35.5 20t45 17.5t47.5 14.5
t53 14.5t53 14.5v56q0 71 -31 102t-81 22q-38 -7 -64 -28.5t-26 -57.5q0 -10 6.5 -25.5t7.5 -25.5q1 -20 -13 -32.5t-32 -12.5t-31.5 12t-12.5 38q1 50 53.5 89t113.5 51q78 15 134.5 -16t54.5 -122v-245q0 -39 21.5 -44t37.5 19z" />
    <glyph glyph-name="aring" unicode="&#xe5;" 
d="M260 510q-25 0 -43 18.5t-18 43.5q0 26 18 44.5t43 18.5q27 0 45.5 -17.5t17.5 -45.5q0 -25 -18.5 -43.5t-44.5 -18.5zM261 622q-19 0 -33.5 -14t-14.5 -34t14.5 -34.5t33.5 -14.5t33.5 14.5t14.5 34.5t-14.5 34t-33.5 14zM480 56q11 1 17 19q-5 -17 -10 -29t-15 -26
t-25 -21t-36 -7q-69 0 -69 82v193q-49 -15 -82 -27.5t-65 -30t-48.5 -39.5t-18.5 -49q-2 -34 18.5 -60t61.5 -28q63 -5 130 48q-20 -21 -31 -31.5t-34 -28t-49.5 -25.5t-56.5 -8q-63 0 -91.5 36t-25.5 80q1 20 9 37t18.5 29.5t30.5 24.5t35.5 20t45 17.5t47.5 14.5t53 14.5
t53 14.5v56q0 71 -31 102t-81 22q-38 -7 -64 -28.5t-26 -57.5q0 -10 6.5 -25.5t7.5 -25.5q1 -20 -13 -32.5t-32 -12.5t-31.5 12t-12.5 38q1 50 53.5 89t113.5 51q78 15 134.5 -16t54.5 -122v-245q0 -39 21.5 -44t37.5 19z" />
    <glyph glyph-name="ae" unicode="&#xe6;" horiz-adv-x="785" 
d="M363 86q-2 -2 -17.5 -18t-28 -26t-33.5 -24t-47.5 -21t-56.5 -7q-65 0 -96 35t-30 79q1 24 8.5 43t25 34t32.5 25t46 21t50 16.5t59.5 16.5t59.5 16v55q0 73 -30 101.5t-72 24.5q-41 -5 -69 -29t-26 -57q1 -9 6 -22.5t6 -23.5q1 -20 -11 -32.5t-31 -13.5q-18 -1 -31 12
t-12 38q1 48 62 92q50 38 115 44q48 6 91.5 -12.5t61.5 -66.5q21 30 63 54q49 28 112 25q75 -3 121.5 -60t44.5 -148h-321q-3 -84 36 -144.5t114 -66.5q124 -11 173 90q-16 -59 -64.5 -101.5t-114.5 -43.5q-51 -1 -104 26t-84 77q-36 66 -36 175q-112 -40 -147 -65
q-51 -36 -50 -87q1 -35 22.5 -61t64.5 -27q38 -2 69 10.5t69 46.5zM415 267q117 0 161 3q61 4 83 31q16 19 16.5 54.5t-29.5 71.5q-30 30 -77.5 30.5t-85.5 -28.5q-65 -52 -68 -162z" />
    <glyph glyph-name="ccedilla" unicode="&#xe7;" horiz-adv-x="513" 
d="M479 144q-17 -67 -69.5 -112t-129.5 -46l-20 -29q46 -4 65.5 -26t14.5 -52q-6 -40 -37.5 -57t-66.5 -12t-58 23q16 -7 35.5 -9t38.5 1.5t33 17.5t16 37q3 29 -17.5 43.5t-47.5 16.5l32 46q-94 4 -159.5 65.5t-66.5 167.5q-1 129 90.5 196.5t206.5 48.5q47 -8 83 -37.5
t37 -69.5q1 -25 -12.5 -39t-34.5 -13q-25 1 -36.5 21.5t-5.5 44.5q11 41 -10.5 64t-63.5 25q-91 4 -143 -69.5t-36 -178.5q11 -75 59.5 -118.5t119.5 -46.5q130 -6 183 97z" />
    <glyph glyph-name="egrave" unicode="&#xe8;" horiz-adv-x="515" 
d="M331 512l-122 85q-20 15 -23.5 31t6.5 23q10 12 26 7t29 -26zM297 47q125 -5 174 95q-14 -65 -69 -109.5t-132 -43.5q-95 2 -159.5 67.5t-66.5 169.5q-3 142 112 210q59 37 137 33q78 -5 127 -61.5t47 -146.5h-347q0 -93 48.5 -152t128.5 -62zM191 434q-66 -48 -71 -165
q148 0 179 4q64 6 85 34q11 14 14.5 36t-5.5 48.5t-32 44.5q-33 28 -82 27t-88 -29z" />
    <glyph glyph-name="eacute" unicode="&#xe9;" horiz-adv-x="515" 
d="M233 513l122 84q20 15 24 31.5t-6 22.5q-11 12 -26.5 7t-28.5 -26zM297 47q125 -5 174 95q-14 -65 -69 -109.5t-132 -43.5q-95 2 -159.5 67.5t-66.5 169.5q-3 142 112 210q59 37 137 33q78 -5 127 -61.5t47 -146.5h-347q0 -93 48.5 -152t128.5 -62zM191 434
q-66 -48 -71 -165q148 0 179 4q64 6 85 34q11 14 14.5 36t-5.5 48.5t-32 44.5q-33 28 -82 27t-88 -29z" />
    <glyph glyph-name="ecircumflex" unicode="&#xea;" horiz-adv-x="515" 
d="M168 493l109 103l98 -102l-70 136h-55zM297 47q125 -5 174 95q-14 -65 -69 -109.5t-132 -43.5q-95 2 -159.5 67.5t-66.5 169.5q-3 142 112 210q59 37 137 33q78 -5 127 -61.5t47 -146.5h-347q0 -93 48.5 -152t128.5 -62zM191 434q-66 -48 -71 -165q148 0 179 4
q64 6 85 34q11 14 14.5 36t-5.5 48.5t-32 44.5q-33 28 -82 27t-88 -29z" />
    <glyph glyph-name="edieresis" unicode="&#xeb;" horiz-adv-x="515" 
d="M171 541q-18 0 -31.5 13.5t-13.5 32.5q0 18 13.5 31t31.5 13q19 0 32.5 -13t13.5 -31q0 -19 -13.5 -32.5t-32.5 -13.5zM377 541q-19 0 -32 13.5t-13 32.5q0 18 13 31t32 13t32.5 -13t13.5 -31q0 -19 -13.5 -32.5t-32.5 -13.5zM297 47q125 -5 174 95q-14 -65 -69 -109.5
t-132 -43.5q-95 2 -159.5 67.5t-66.5 169.5q-3 142 112 210q59 37 137 33q78 -5 127 -61.5t47 -146.5h-347q0 -93 48.5 -152t128.5 -62zM191 434q-66 -48 -71 -165q148 0 179 4q64 6 85 34q11 14 14.5 36t-5.5 48.5t-32 44.5q-33 28 -82 27t-88 -29z" />
    <glyph glyph-name="igrave" unicode="&#xec;" horiz-adv-x="327" 
d="M114 597q-20 15 -24 31t6 23q11 12 26.5 7t29.5 -26l84 -120zM205 68q0 -24 9 -39t24 -20.5t23 -7t15 -1.5h-223q8 0 16 1.5t23.5 7t25 20.5t9.5 39v277q0 31 -12.5 42t-28.5 7l119 76v-402z" />
    <glyph glyph-name="iacute" unicode="&#xed;" horiz-adv-x="327" 
d="M228 651q10 -6 6.5 -22.5t-23.5 -31.5l-122 -84l84 119q13 21 29 26t26 -7zM205 68q0 -24 9 -39t24 -20.5t23 -7t15 -1.5h-223q8 0 16 1.5t23.5 7t25 20.5t9.5 39v277q0 31 -12.5 42t-28.5 7l119 76v-402z" />
    <glyph glyph-name="icircumflex" unicode="&#xee;" horiz-adv-x="327" 
d="M279 494l-98 102l-110 -103l83 137h55zM205 68q0 -24 9 -39t24 -20.5t23 -7t15 -1.5h-223q8 0 16 1.5t23.5 7t25 20.5t9.5 39v277q0 31 -12.5 42t-28.5 7l119 76v-402z" />
    <glyph glyph-name="idieresis" unicode="&#xef;" horiz-adv-x="327" 
d="M113 587q0 -19 -13.5 -32.5t-32.5 -13.5q-18 0 -31.5 13.5t-13.5 32.5q0 18 13.5 31t31.5 13q19 0 32.5 -13t13.5 -31zM273 631q19 0 32.5 -13t13.5 -31q0 -19 -13.5 -32.5t-32.5 -13.5t-32.5 13.5t-13.5 32.5q0 18 13.5 31t32.5 13zM205 68q0 -24 9 -39t24 -20.5t23 -7
t15 -1.5h-223q8 0 16 1.5t23.5 7t25 20.5t9.5 39v277q0 31 -12.5 42t-28.5 7l119 76v-402z" />
    <glyph glyph-name="eth" unicode="&#xf0;" horiz-adv-x="546" 
d="M497 278q8 -124 -54 -202t-163 -84q-24 -2 -50 1.5t-57 15t-56.5 31.5t-47 55t-30.5 81q-21 104 26.5 182.5t141.5 101.5q59 12 104 6.5t71 -23.5q-14 62 -48 128l-99 -56l-15 2l109 62q-53 92 -119 137q80 -37 151 -120l61 35l-3 -12l-52 -30q119 -143 130 -311zM306 4
q49 6 78 48t33 98.5t-5 120.5q-18 100 -70 152t-127 29q-35 -11 -58 -41.5t-30.5 -67t-9.5 -76t5 -68.5q18 -106 70.5 -154.5t113.5 -40.5z" />
    <glyph glyph-name="ntilde" unicode="&#xf1;" horiz-adv-x="567" 
d="M225 591q-11 0 -21.5 -3.5t-25 -19.5t-19.5 -43q1 48 29 74.5t66 23.5q25 -3 57.5 -32.5t53.5 -29.5q27 -1 46 15.5t21 46.5q3 -36 -19 -66.5t-59 -31.5q-33 -1 -68.5 32.5t-60.5 33.5zM177 68q0 -23 9.5 -38.5t24 -21t22.5 -7t15 -1.5h-219q7 0 14.5 1.5t22.5 7t24 21
t9 38.5v280q0 22 -9.5 33.5t-19 11t-13.5 -0.5l120 78v-402zM477 68q0 -23 9.5 -38.5t24 -21t22.5 -7t15 -1.5h-220q7 0 14.5 1.5t22.5 7t24 21t9 38.5v172v14q0 34 -0.5 49.5t-3 38.5t-7.5 34t-15 21t-25 15q-32 12 -79.5 -4.5t-85.5 -51.5q39 46 92.5 79.5t110.5 28.5
q19 -2 34 -9t25 -14.5t16.5 -23.5t10 -26.5t5 -34t1.5 -34v-38.5v-18v-198z" />
    <glyph glyph-name="ograve" unicode="&#xf2;" horiz-adv-x="541" 
d="M338 512l-122 85q-20 15 -24 31t6 23q11 12 26.5 7t29.5 -26zM294 -9q-32 -1 -64.5 5t-71 22.5t-68.5 55.5t-43 95q-21 102 26 183.5t141 106.5q112 29 196 -23t98 -174q12 -111 -51.5 -188.5t-162.5 -82.5zM421 279q-18 92 -76.5 145t-132.5 25q-40 -15 -63 -58t-25 -95
t8 -108q20 -100 73.5 -144t112.5 -39q49 5 77.5 47.5t32 101t-6.5 125.5z" />
    <glyph glyph-name="oacute" unicode="&#xf3;" horiz-adv-x="541" 
d="M231 513l122 84q21 15 24.5 31.5t-6.5 22.5q-11 12 -26.5 7t-28.5 -26zM294 -9q-32 -1 -64.5 5t-71 22.5t-68.5 55.5t-43 95q-21 102 26 183.5t141 106.5q112 29 196 -23t98 -174q12 -111 -51.5 -188.5t-162.5 -82.5zM421 279q-18 92 -76.5 145t-132.5 25
q-40 -15 -63 -58t-25 -95t8 -108q20 -100 73.5 -144t112.5 -39q49 5 77.5 47.5t32 101t-6.5 125.5z" />
    <glyph glyph-name="ocircumflex" unicode="&#xf4;" horiz-adv-x="541" 
d="M177 493l110 103l98 -102l-70 136h-56zM294 -9q-32 -1 -64.5 5t-71 22.5t-68.5 55.5t-43 95q-21 102 26 183.5t141 106.5q112 29 196 -23t98 -174q12 -111 -51.5 -188.5t-162.5 -82.5zM421 279q-18 92 -76.5 145t-132.5 25q-40 -15 -63 -58t-25 -95t8 -108
q20 -100 73.5 -144t112.5 -39q49 5 77.5 47.5t32 101t-6.5 125.5z" />
    <glyph glyph-name="otilde" unicode="&#xf5;" horiz-adv-x="541" 
d="M144 525q5 27 19.5 43t25.5 19.5t22 3.5q25 0 59.5 -33.5t68.5 -32.5q37 1 59 31.5t19 66.5q-2 -30 -21 -46.5t-46 -15.5q-21 0 -53.5 29.5t-57.5 32.5q-37 3 -65.5 -23.5t-29.5 -74.5zM294 -9q-32 -1 -64.5 5t-71 22.5t-68.5 55.5t-43 95q-21 102 26 183.5t141 106.5
q112 29 196 -23t98 -174q12 -111 -51.5 -188.5t-162.5 -82.5zM421 279q-18 92 -76.5 145t-132.5 25q-40 -15 -63 -58t-25 -95t8 -108q20 -100 73.5 -144t112.5 -39q49 5 77.5 47.5t32 101t-6.5 125.5z" />
    <glyph glyph-name="odieresis" unicode="&#xf6;" horiz-adv-x="541" 
d="M184 541q-19 0 -32 13.5t-13 32.5q0 18 13 31t32 13t32.5 -13t13.5 -31q0 -19 -13 -32.5t-33 -13.5zM389 541q-18 0 -31.5 13.5t-13.5 32.5q0 18 13.5 31t31.5 13q19 0 32.5 -13t13.5 -31q0 -19 -13.5 -32.5t-32.5 -13.5zM294 -9q-32 -1 -64.5 5t-71 22.5t-68.5 55.5
t-43 95q-21 102 26 183.5t141 106.5q112 29 196 -23t98 -174q12 -111 -51.5 -188.5t-162.5 -82.5zM421 279q-18 92 -76.5 145t-132.5 25q-40 -15 -63 -58t-25 -95t8 -108q20 -100 73.5 -144t112.5 -39q49 5 77.5 47.5t32 101t-6.5 125.5z" />
    <glyph glyph-name="divide" unicode="&#xf7;" horiz-adv-x="507" 
d="M256 355q-16 0 -28.5 12.5t-12.5 28.5t12 27.5t29 11.5q16 0 28 -11.5t12 -27.5t-12 -28.5t-28 -12.5zM57 269h393v-9h-393v9zM256 92q-16 0 -28.5 12t-12.5 29q0 16 12 27.5t29 11.5q16 0 28 -11.5t12 -27.5t-12 -28.5t-28 -12.5z" />
    <glyph glyph-name="oslash" unicode="&#xf8;" horiz-adv-x="557" 
d="M514 262q12 -111 -51.5 -188.5t-162.5 -82.5q-110 -5 -179 57l-43 -48h-13l49 54q-44 44 -61 115q-21 102 26 183.5t141 106.5q135 35 221 -42l30 34h12l-36 -40q57 -55 67 -149zM137 188q9 -44 26 -79l233 258q-31 55 -77.5 78.5t-100.5 3.5q-59 -22 -79 -98t-2 -163z
M324 5q49 5 77.5 47.5t32 101t-6.5 125.5q-7 40 -27 80l-232 -259q29 -53 71 -76t85 -19z" />
    <glyph glyph-name="ugrave" unicode="&#xf9;" horiz-adv-x="539" 
d="M211 597q-21 15 -24.5 31t6.5 23q10 12 26 7t29 -26l84 -120zM205 43q33 -13 84 3.5t87 51.5q-35 -44 -93 -78.5t-116 -29.5q-22 2 -38 9t-25.5 22.5t-15.5 27.5t-8 37.5t-2.5 39.5t-0.5 45v16v194q0 24 -9.5 39.5t-24 21t-22.5 7t-15 1.5h149v-69v-167v-46t1.5 -37
t4.5 -33.5t8.5 -23t14 -20.5t21.5 -11zM382 385q0 22 -9 37t-23.5 20t-22 6.5t-14.5 1.5h147v-352q0 -7 1.5 -13t3.5 -10t5.5 -6.5t6 -4t6.5 -2t6 -0.5h5h4l-116 -75v70v328z" />
    <glyph glyph-name="uacute" unicode="&#xfa;" horiz-adv-x="539" 
d="M367 651q10 -6 6.5 -22.5t-24.5 -31.5l-121 -84l84 119q13 21 29 26t26 -7zM205 43q33 -13 84 3.5t87 51.5q-35 -44 -93 -78.5t-116 -29.5q-22 2 -38 9t-25.5 22.5t-15.5 27.5t-8 37.5t-2.5 39.5t-0.5 45v16v194q0 24 -9.5 39.5t-24 21t-22.5 7t-15 1.5h149v-69v-167v-46
t1.5 -37t4.5 -33.5t8.5 -23t14 -20.5t21.5 -11zM382 385q0 22 -9 37t-23.5 20t-22 6.5t-14.5 1.5h147v-352q0 -7 1.5 -13t3.5 -10t5.5 -6.5t6 -4t6.5 -2t6 -0.5h5h4l-116 -75v70v328z" />
    <glyph glyph-name="ucircumflex" unicode="&#xfb;" horiz-adv-x="539" 
d="M381 494l-98 102l-109 -103l82 137h56zM205 43q33 -13 84 3.5t87 51.5q-35 -44 -93 -78.5t-116 -29.5q-22 2 -38 9t-25.5 22.5t-15.5 27.5t-8 37.5t-2.5 39.5t-0.5 45v16v194q0 24 -9.5 39.5t-24 21t-22.5 7t-15 1.5h149v-69v-167v-46t1.5 -37t4.5 -33.5t8.5 -23
t14 -20.5t21.5 -11zM382 385q0 22 -9 37t-23.5 20t-22 6.5t-14.5 1.5h147v-352q0 -7 1.5 -13t3.5 -10t5.5 -6.5t6 -4t6.5 -2t6 -0.5h5h4l-116 -75v70v328z" />
    <glyph glyph-name="udieresis" unicode="&#xfc;" horiz-adv-x="539" 
d="M169 541q-18 0 -31.5 13.5t-13.5 32.5q0 18 13.5 31t31.5 13q19 0 32.5 -13t13.5 -31q0 -19 -13.5 -32.5t-32.5 -13.5zM375 541q-19 0 -32 13.5t-13 32.5q0 18 13 31t32 13t32.5 -13t13.5 -31q0 -19 -13.5 -32.5t-32.5 -13.5zM205 43q33 -13 84 3.5t87 51.5
q-35 -44 -93 -78.5t-116 -29.5q-22 2 -38 9t-25.5 22.5t-15.5 27.5t-8 37.5t-2.5 39.5t-0.5 45v16v194q0 24 -9.5 39.5t-24 21t-22.5 7t-15 1.5h149v-69v-167v-46t1.5 -37t4.5 -33.5t8.5 -23t14 -20.5t21.5 -11zM382 385q0 22 -9 37t-23.5 20t-22 6.5t-14.5 1.5h147v-352
q0 -7 1.5 -13t3.5 -10t5.5 -6.5t6 -4t6.5 -2t6 -0.5h5h4l-116 -75v70v328z" />
    <glyph glyph-name="yacute" unicode="&#xfd;" horiz-adv-x="449" 
d="M371 651q10 -6 6.5 -22.5t-24.5 -31.5l-121 -84l84 119q13 21 29 26t26 -7zM329 450h159q-36 -9 -61 -38q-16 -15 -31 -50l-156 -382l-57 -137q-15 -37 -33 -47.5t-44 -7.5q-19 3 -29 19t-5 34q10 30 42 29q11 -1 22.5 -12t15.5 -12q22 -5 39 33l44 107l-180 407
q-13 25 -32.5 39.5t-32.5 15.5l-13 2h202q-2 0 -6 -1t-14 -4.5t-14.5 -9.5t-9 -16.5t4.5 -26.5l104 -242q15 -31 30 -31q4 0 8 2t7 7t5.5 9t6 11.5t5.5 11.5l80 196l4 11q12 34 -4.5 56t-56.5 27z" />
    <glyph glyph-name="thorn" unicode="&#xfe;" horiz-adv-x="551" 
d="M505 235q1 -100 -61 -171t-147 -73q-91 -2 -146 52v-199q0 -21 10 -34.5t25.5 -18.5t23.5 -6t16 -1h-227q8 0 16 1t23.5 6t25 18.5t9.5 34.5v742q0 27 -10.5 40t-21 11t-15.5 -1l125 81v-100v-416q0 -105 47 -155t111 -44q61 6 92 66.5t29 151.5q-4 100 -44.5 150
t-99.5 54q-23 2 -44.5 -4.5t-35.5 -16.5t-25.5 -20t-16.5 -17l-5 -8q2 4 6 11t17.5 25.5t29.5 32.5t42 26t55 13q85 3 140 -57t56 -174z" />
    <glyph glyph-name="ydieresis" unicode="&#xff;" horiz-adv-x="449" 
d="M153 541q-18 0 -31.5 13.5t-13.5 32.5q0 18 13.5 31t31.5 13q19 0 32.5 -13t13.5 -31q0 -19 -13.5 -32.5t-32.5 -13.5zM358 541q-18 0 -31.5 13.5t-13.5 32.5q0 18 13.5 31t31.5 13q19 0 32.5 -13t13.5 -31q0 -19 -13 -32.5t-33 -13.5zM329 450h159q-36 -9 -61 -38
q-16 -15 -31 -50l-156 -382l-57 -137q-15 -37 -33 -47.5t-44 -7.5q-19 3 -29 19t-5 34q10 30 42 29q11 -1 22.5 -12t15.5 -12q22 -5 39 33l44 107l-180 407q-13 25 -32.5 39.5t-32.5 15.5l-13 2h202q-2 0 -6 -1t-14 -4.5t-14.5 -9.5t-9 -16.5t4.5 -26.5l104 -242
q15 -31 30 -31q4 0 8 2t7 7t5.5 9t6 11.5t5.5 11.5l80 196l4 11q12 34 -4.5 56t-56.5 27z" />
    <glyph glyph-name="Amacron" unicode="&#x100;" horiz-adv-x="624" 
d="M404 798v-9h-197v8zM553 87q14 -35 37 -56.5t36.5 -25.5t26.5 -5h-268q4 0 9.5 1.5t21 7t22.5 15t13 26.5t-6 41l-71 195h-231l-65 -171q-20 -46 -3 -78.5t71 -36.5h-198q35 2 65.5 32.5t51.5 85.5l238 612q1 -4 3 -9zM261 561q-13 0 -42 -76l-71 -189l222 1l-74 208
q-21 56 -35 56zM657 0h-4h4z" />
    <glyph glyph-name="amacron" unicode="&#x101;" 
d="M367 549v-9h-197v8zM480 56q11 1 17 19q-5 -17 -10 -29t-15 -26t-25 -21t-36 -7q-69 0 -69 82v193q-49 -15 -82 -27.5t-65 -30t-48.5 -39.5t-18.5 -49q-2 -34 18.5 -60t61.5 -28q63 -5 130 48q-20 -21 -31 -31.5t-34 -28t-49.5 -25.5t-56.5 -8q-63 0 -91.5 36t-25.5 80
q1 20 9 37t18.5 29.5t30.5 24.5t35.5 20t45 17.5t47.5 14.5t53 14.5t53 14.5v56q0 71 -31 102t-81 22q-38 -7 -64 -28.5t-26 -57.5q0 -10 6.5 -25.5t7.5 -25.5q1 -20 -13 -32.5t-32 -12.5t-31.5 12t-12.5 38q1 50 53.5 89t113.5 51q78 15 134.5 -16t54.5 -122v-245
q0 -39 21.5 -44t37.5 19z" />
    <glyph glyph-name="Abreve" unicode="&#x102;" horiz-adv-x="624" 
d="M306 785q-46 0 -73 30t-28 74q10 -32 37 -49.5t62 -17.5q80 0 99 66q-1 -40 -26.5 -71.5t-70.5 -31.5zM553 87q14 -35 37 -56.5t36.5 -25.5t26.5 -5h-268q4 0 9.5 1.5t21 7t22.5 15t13 26.5t-6 41l-71 195h-231l-65 -171q-20 -46 -3 -78.5t71 -36.5h-198q35 2 65.5 32.5
t51.5 85.5l238 612q1 -4 3 -9zM261 561q-13 0 -42 -76l-71 -189l222 1l-74 208q-21 56 -35 56zM657 0h-4h4z" />
    <glyph glyph-name="abreve" unicode="&#x103;" 
d="M267 536q-46 0 -73.5 30t-28.5 74q10 -32 37 -49t63 -17q80 0 99 65q-1 -40 -27 -71.5t-70 -31.5zM480 56q11 1 17 19q-5 -17 -10 -29t-15 -26t-25 -21t-36 -7q-69 0 -69 82v193q-49 -15 -82 -27.5t-65 -30t-48.5 -39.5t-18.5 -49q-2 -34 18.5 -60t61.5 -28q63 -5 130 48
q-20 -21 -31 -31.5t-34 -28t-49.5 -25.5t-56.5 -8q-63 0 -91.5 36t-25.5 80q1 20 9 37t18.5 29.5t30.5 24.5t35.5 20t45 17.5t47.5 14.5t53 14.5t53 14.5v56q0 71 -31 102t-81 22q-38 -7 -64 -28.5t-26 -57.5q0 -10 6.5 -25.5t7.5 -25.5q1 -20 -13 -32.5t-32 -12.5t-31.5 12
t-12.5 38q1 50 53.5 89t113.5 51q78 15 134.5 -16t54.5 -122v-245q0 -39 21.5 -44t37.5 19z" />
    <glyph glyph-name="Aogonek" unicode="&#x104;" horiz-adv-x="624" 
d="M561 0q-27 -16 -45 -44t-13 -61q5 -30 24 -45t41 -14t43 8q-23 -19 -57.5 -23t-66 14t-38.5 56q-12 61 44 109h-108q4 0 9.5 1.5t21 7t22.5 15t13 26.5t-6 41l-71 195h-231l-65 -171q-20 -46 -3 -78.5t71 -36.5h-198q35 2 65.5 32.5t51.5 85.5l238 612q1 -4 3 -9
l247 -634q14 -35 37 -56.5t36.5 -25.5t26.5 -5h-92zM261 561q-13 0 -42 -76l-71 -189l222 1l-74 208q-21 56 -35 56zM657 0h-4h4z" />
    <glyph glyph-name="aogonek" unicode="&#x105;" 
d="M480 56q11 1 17 19q-5 -17 -10 -29t-15 -26t-25 -21t-36 -7q-69 0 -69 82v193q-49 -15 -82 -27.5t-65 -30t-48.5 -39.5t-18.5 -49q-2 -34 18.5 -60t61.5 -28q63 -5 130 48q-22 -23 -32 -32.5t-35 -27t-50 -25.5q-23 -17 -38.5 -44.5t-9.5 -57.5q5 -30 24 -45t41 -14t43 8
q-23 -19 -57.5 -23t-66 13.5t-38.5 56.5q-10 56 33 99q-55 5 -80 40t-22 75q1 20 9 37t18.5 29.5t30.5 24.5t35.5 20t45 17.5t47.5 14.5t53 14.5t53 14.5v56q0 71 -31 102t-81 22q-38 -7 -64 -28.5t-26 -57.5q0 -10 6.5 -25.5t7.5 -25.5q1 -20 -13 -32.5t-32 -12.5t-31.5 12
t-12.5 38q1 50 53.5 89t113.5 51q78 15 134.5 -16t54.5 -122v-245q0 -39 21.5 -44t37.5 19z" />
    <glyph glyph-name="Cacute" unicode="&#x106;" horiz-adv-x="711" 
d="M356 760l122 84q20 15 23.5 31.5t-6.5 22.5q-10 12 -26 7t-29 -26zM142 362q10 -136 96.5 -220t206.5 -85q48 0 89 13.5t64.5 33t40.5 39t23 33.5l6 14q-2 -7 -6 -18.5t-21.5 -41.5t-40.5 -54.5t-64 -47.5t-90 -30q-88 -12 -164 13t-126 75t-78.5 116t-30.5 136
q-2 85 25.5 154.5t75.5 114t108.5 70t129.5 30.5q66 5 131 -8q37 -7 68 -19.5t44 -21.5l13 -8l-1 -143q-57 113 -159 161q-118 54 -221 -6q-63 -37 -95 -118t-24 -182z" />
    <glyph glyph-name="cacute" unicode="&#x107;" horiz-adv-x="513" 
d="M250 513l122 84q20 15 24 31.5t-6 22.5q-11 12 -26.5 7t-29.5 -26zM117 212q11 -75 59.5 -118.5t119.5 -46.5q130 -6 183 97q-17 -68 -70.5 -113t-132.5 -45q-97 1 -165 63t-69 170q-1 129 90.5 196.5t206.5 48.5q47 -8 83 -37.5t37 -69.5q1 -25 -12.5 -39t-34.5 -13
q-25 1 -36.5 21.5t-5.5 44.5q11 41 -10.5 64t-63.5 25q-91 4 -143 -69.5t-36 -178.5z" />
    <glyph glyph-name="Cdotaccent" unicode="&#x10a;" horiz-adv-x="711" 
d="M403 783q-18 0 -31 13t-13 32q0 17 13 30t31 13q17 0 30 -13t13 -30q0 -19 -13 -32t-30 -13zM142 362q10 -136 96.5 -220t206.5 -85q48 0 89 13.5t64.5 33t40.5 39t23 33.5l6 14q-2 -7 -6 -18.5t-21.5 -41.5t-40.5 -54.5t-64 -47.5t-90 -30q-88 -12 -164 13t-126 75
t-78.5 116t-30.5 136q-2 85 25.5 154.5t75.5 114t108.5 70t129.5 30.5q66 5 131 -8q37 -7 68 -19.5t44 -21.5l13 -8l-1 -143q-57 113 -159 161q-118 54 -221 -6q-63 -37 -95 -118t-24 -182z" />
    <glyph glyph-name="cdotaccent" unicode="&#x10b;" horiz-adv-x="513" 
d="M293 536q-19 0 -33 14t-14 32q0 19 14 32.5t33 13.5t32 -13.5t13 -32.5q0 -18 -13.5 -32t-31.5 -14zM117 212q11 -75 59.5 -118.5t119.5 -46.5q130 -6 183 97q-17 -68 -70.5 -113t-132.5 -45q-97 1 -165 63t-69 170q-1 129 90.5 196.5t206.5 48.5q47 -8 83 -37.5
t37 -69.5q1 -25 -12.5 -39t-34.5 -13q-25 1 -36.5 21.5t-5.5 44.5q11 41 -10.5 64t-63.5 25q-91 4 -143 -69.5t-36 -178.5z" />
    <glyph glyph-name="Ccaron" unicode="&#x10c;" horiz-adv-x="711" 
d="M271 898l82 -137h56l70 136l-99 -102zM142 362q10 -136 96.5 -220t206.5 -85q48 0 89 13.5t64.5 33t40.5 39t23 33.5l6 14q-2 -7 -6 -18.5t-21.5 -41.5t-40.5 -54.5t-64 -47.5t-90 -30q-88 -12 -164 13t-126 75t-78.5 116t-30.5 136q-2 85 25.5 154.5t75.5 114t108.5 70
t129.5 30.5q66 5 131 -8q37 -7 68 -19.5t44 -21.5l13 -8l-1 -143q-57 113 -159 161q-118 54 -221 -6q-63 -37 -95 -118t-24 -182z" />
    <glyph glyph-name="ccaron" unicode="&#x10d;" horiz-adv-x="513" 
d="M177 652l82 -137h56l70 136l-99 -102zM117 212q11 -75 59.5 -118.5t119.5 -46.5q130 -6 183 97q-17 -68 -70.5 -113t-132.5 -45q-97 1 -165 63t-69 170q-1 129 90.5 196.5t206.5 48.5q47 -8 83 -37.5t37 -69.5q1 -25 -12.5 -39t-34.5 -13q-25 1 -36.5 21.5t-5.5 44.5
q11 41 -10.5 64t-63.5 25q-91 4 -143 -69.5t-36 -178.5z" />
    <glyph glyph-name="Dcaron" unicode="&#x10e;" horiz-adv-x="710" 
d="M370 761h-56l-82 137l109 -103l98 102zM660 374q2 -103 -33 -186.5t-108.5 -135t-174.5 -52.5h-60h-275q9 0 20 2t30 8.5t31 25t12 45.5v534q0 29 -12 48.5t-31 26t-29.5 8.5t-20.5 2h283q87 1 150.5 -13t113.5 -49.5t76 -101.5t28 -162zM346 12q108 7 162 103t51 260
q-1 92 -23.5 156t-62 97t-83 47t-100.5 15q-67 0 -90 -2v-594q0 -49 22.5 -66t73.5 -17q43 0 50 1z" />
    <glyph glyph-name="dcaron" unicode="&#x10f;" horiz-adv-x="536" 
d="M517 64l-125 -81v256q0 101 -39.5 160.5t-101.5 61.5q-60 2 -100 -59.5t-35 -160.5q4 -94 50 -152.5t108 -63.5q71 -3 113 60q-10 -19 -17.5 -30t-24 -29t-40.5 -27.5t-55 -10.5q-89 -2 -151.5 61.5t-63.5 173.5q-3 114 63.5 179t156.5 67q85 2 137 -48v102l-15 -12
q10 10 15 16v59q0 32 -15.5 43.5t-30.5 6.5l16 11q-13 12 -15 30q-2 19 9.5 33.5t30.5 16.5q17 1 30 -6q4 -2 10 -8q7 -7 10 -16v-2l32 21v-610q0 -18 7 -28.5t15 -12t17 -1.5h9z" />
    <glyph glyph-name="Dcroat" unicode="&#x110;" horiz-adv-x="721" 
d="M666 374q2 -103 -33 -186.5t-108.5 -135t-174.5 -52.5h-61h-274q9 0 20 2t30 8.5t31 25t12 45.5v271h-62l-12 9h74v254q0 29 -12 48.5t-31 26t-29.5 8.5t-20.5 2h283q69 1 122.5 -7.5t100 -30.5t77 -58.5t48.5 -94t20 -135.5zM352 12q108 7 162 103t51 260
q-1 92 -23.5 156t-62 97t-83 47t-100.5 15q-67 0 -91 -2v-327h108l-9 -9h-99v-258q0 -49 23 -66t74 -17q43 0 50 1z" />
    <glyph glyph-name="dcroat" unicode="&#x111;" horiz-adv-x="561" 
d="M531 536h-56v-430q0 -18 7 -28.5t15 -12t17 -1.5h9l-126 -81v256q0 101 -39 160.5t-101 61.5q-60 2 -100 -59.5t-35 -160.5q4 -94 50 -152.5t108 -63.5q71 -3 113 60q-10 -19 -17.5 -30t-24 -29t-40.5 -27.5t-55 -10.5q-89 -2 -151.5 61.5t-64.5 173.5q-2 114 64 179
t157 67q86 2 136 -48v115h-78v8h78v42q0 31 -15 43t-30 7l123 80v-171h56v-9z" />
    <glyph glyph-name="Emacron" unicode="&#x112;" horiz-adv-x="651" 
d="M402 798v-9h-197v8zM510 70q36 26 62 53t34 41l9 15l-43 -179h-552q8 0 19.5 2.5t28.5 9.5t28.5 25.5t11.5 45.5v537q0 27 -11.5 45t-29 24.5t-28 8.5t-19.5 2h517l35 -160q-9 16 -37.5 48t-62.5 55q-42 28 -81 37.5t-127 9.5h-62v-321h56q34 1 60.5 11t40.5 24t23.5 28
t11.5 24l3 10v-207q-1 4 -3 10.5t-11.5 23.5t-23 30t-40.5 24t-61 11h-56v-263q0 -28 7 -47t20 -26.5t23.5 -10t23.5 -2.5h63q88 0 171 61z" />
    <glyph glyph-name="emacron" unicode="&#x113;" horiz-adv-x="515" 
d="M184 548l197 1v-9h-197v8zM297 47q125 -5 174 95q-14 -65 -69 -109.5t-132 -43.5q-95 2 -159.5 67.5t-66.5 169.5q-3 142 112 210q59 37 137 33q78 -5 127 -61.5t47 -146.5h-347q0 -93 48.5 -152t128.5 -62zM191 434q-66 -48 -71 -165q148 0 179 4q64 6 85 34
q11 14 14.5 36t-5.5 48.5t-32 44.5q-33 28 -82 27t-88 -29z" />
    <glyph glyph-name="Edotaccent" unicode="&#x116;" horiz-adv-x="651" 
d="M327 783q-18 0 -31 13t-13 32q0 17 13 30t31 13t30.5 -13t12.5 -30q0 -19 -12.5 -32t-30.5 -13zM510 70q36 26 62 53t34 41l9 15l-43 -179h-552q8 0 19.5 2.5t28.5 9.5t28.5 25.5t11.5 45.5v537q0 27 -11.5 45t-29 24.5t-28 8.5t-19.5 2h517l35 -160q-9 16 -37.5 48
t-62.5 55q-42 28 -81 37.5t-127 9.5h-62v-321h56q34 1 60.5 11t40.5 24t23.5 28t11.5 24l3 10v-207q-1 4 -3 10.5t-11.5 23.5t-23 30t-40.5 24t-61 11h-56v-263q0 -28 7 -47t20 -26.5t23.5 -10t23.5 -2.5h63q88 0 171 61z" />
    <glyph glyph-name="edotaccent" unicode="&#x117;" horiz-adv-x="515" 
d="M287 536q-19 0 -33 14t-14 32q0 19 14 32.5t33 13.5t32 -13.5t13 -32.5q0 -18 -13.5 -32t-31.5 -14zM297 47q125 -5 174 95q-14 -65 -69 -109.5t-132 -43.5q-95 2 -159.5 67.5t-66.5 169.5q-3 142 112 210q59 37 137 33q78 -5 127 -61.5t47 -146.5h-347q0 -93 48.5 -152
t128.5 -62zM191 434q-66 -48 -71 -165q148 0 179 4q64 6 85 34q11 14 14.5 36t-5.5 48.5t-32 44.5q-33 28 -82 27t-88 -29z" />
    <glyph glyph-name="Eogonek" unicode="&#x118;" horiz-adv-x="651" 
d="M506 -106q5 -30 24 -45t41 -14t43 8q-23 -19 -57.5 -23t-66 13.5t-38.5 56.5q-12 62 45 110h-477q8 0 19.5 2.5t28.5 9.5t28.5 25.5t11.5 45.5v537q0 27 -11.5 45t-29 24.5t-28 8.5t-19.5 2h517l35 -160q-9 16 -37.5 48t-62.5 55q-42 28 -81 37.5t-127 9.5h-62v-321h56
q34 1 60.5 11t40.5 24t23.5 28t11.5 24l3 10v-207q-1 4 -3 10.5t-11.5 23.5t-23 30t-40.5 24t-61 11h-56v-263q0 -28 7 -47t20 -26.5t23.5 -10t23.5 -2.5h63q88 0 171 61q36 26 62 53t34 41l9 15l-43 -179h-6q-27 -15 -46.5 -44t-13.5 -62z" />
    <glyph glyph-name="eogonek" unicode="&#x119;" horiz-adv-x="515" 
d="M315 -7q-60 -43 -49 -99q5 -30 24 -45t41 -14t43 8q-23 -19 -57.5 -23t-66 13.5t-38.5 56.5q-12 56 34 101q-86 9 -143 73.5t-59 161.5q-3 142 112 210q59 37 137 33q78 -5 127 -61.5t47 -146.5h-347q0 -93 48.5 -152t128.5 -62q125 -5 174 95q-12 -55 -54 -96t-102 -53z
M191 434q-66 -48 -71 -165q148 0 179 4q64 6 85 34q11 14 14.5 36t-5.5 48.5t-32 44.5q-33 28 -82 27t-88 -29z" />
    <glyph glyph-name="Ecaron" unicode="&#x11a;" horiz-adv-x="651" 
d="M350 761h-56l-82 137l110 -103l98 102zM510 70q36 26 62 53t34 41l9 15l-43 -179h-552q8 0 19.5 2.5t28.5 9.5t28.5 25.5t11.5 45.5v537q0 27 -11.5 45t-29 24.5t-28 8.5t-19.5 2h517l35 -160q-9 16 -37.5 48t-62.5 55q-42 28 -81 37.5t-127 9.5h-62v-321h56
q34 1 60.5 11t40.5 24t23.5 28t11.5 24l3 10v-207q-1 4 -3 10.5t-11.5 23.5t-23 30t-40.5 24t-61 11h-56v-263q0 -28 7 -47t20 -26.5t23.5 -10t23.5 -2.5h63q88 0 171 61z" />
    <glyph glyph-name="ecaron" unicode="&#x11b;" horiz-adv-x="515" 
d="M171 652l82 -137h56l70 136l-98 -102zM297 47q125 -5 174 95q-14 -65 -69 -109.5t-132 -43.5q-95 2 -159.5 67.5t-66.5 169.5q-3 142 112 210q59 37 137 33q78 -5 127 -61.5t47 -146.5h-347q0 -93 48.5 -152t128.5 -62zM191 434q-66 -48 -71 -165q148 0 179 4q64 6 85 34
q11 14 14.5 36t-5.5 48.5t-32 44.5q-33 28 -82 27t-88 -29z" />
    <glyph glyph-name="Gbreve" unicode="&#x11e;" horiz-adv-x="745" 
d="M393 822q-36 0 -63 17.5t-37 49.5q1 -44 28.5 -74t73.5 -30q44 0 70 31.5t27 71.5q-20 -66 -99 -66zM719 290q-3 0 -7.5 -1t-16 -6.5t-20.5 -13t-16 -23.5t-7 -37v-219q-8 32 -33 59.5t-44 29.5q-1 -1 -11 -11.5t-14.5 -14.5t-17 -14.5t-21.5 -16t-24.5 -13.5t-30.5 -12
t-35 -7t-41 -3q-157 0 -245.5 102t-88.5 257q0 76 24.5 139t65.5 105t94.5 70t111.5 38t117 5q102 -9 188 -60l-2 -157q-8 19 -24 45t-53 65.5t-79 60.5q-118 59 -219 5q-65 -33 -98.5 -115t-25.5 -198q9 -149 84.5 -236.5t177.5 -93.5q71 -3 115 31q59 41 59 152v5
q0 34 -23 54.5t-45 24.5l-23 4h228z" />
    <glyph glyph-name="gbreve" unicode="&#x11f;" horiz-adv-x="481" 
d="M251 536q-46 0 -73 30t-28 74q10 -32 36.5 -49t62.5 -17q80 0 99 65q-1 -40 -26.5 -71.5t-70.5 -31.5zM471 476q17 0 25 -9.5t5 -21.5t-15.5 -16.5t-30.5 4.5q-10 8 -17 11t-20 0t-29 -17q42 49 82 49zM287 58q78 -3 118 -23t57 -63q13 -32 8.5 -64t-16.5 -55t-29 -41
q-76 -79 -212 -69q-90 6 -138.5 45t-48.5 94q0 33 14.5 60.5t29.5 39.5l14 11q-43 -84 13.5 -142.5t163.5 -65.5q77 -6 132 24.5t51 79.5q3 45 -43.5 71t-125.5 25q-94 -1 -146.5 14.5t-61.5 60.5q-13 56 79 97l-5 2q-41 19 -65.5 59.5t-22.5 91.5q2 100 114 143
q41 16 90.5 13.5t84.5 -21.5q50 -25 70.5 -83.5t0.5 -109.5q-15 -36 -40 -59t-70 -38q-74 -24 -146 -2q-54 -32 -28 -67q7 -11 19.5 -17t31.5 -8.5t34 -3t39 0t34 0.5zM137 255q26 -66 70 -87t89 -6q33 12 47 49t11.5 76.5t-15.5 73.5q-18 47 -45 71.5t-55 25.5t-57 -9
q-42 -17 -54.5 -73.5t9.5 -120.5z" />
    <glyph glyph-name="Gdotaccent" unicode="&#x120;" horiz-adv-x="745" 
d="M405 783q-19 0 -32 13t-13 32q0 17 13 30t32 13q17 0 30 -13t13 -30q0 -19 -13 -32t-30 -13zM719 290q-3 0 -7.5 -1t-16 -6.5t-20.5 -13t-16 -23.5t-7 -37v-219q-8 32 -33 59.5t-44 29.5q-1 -1 -11 -11.5t-14.5 -14.5t-17 -14.5t-21.5 -16t-24.5 -13.5t-30.5 -12t-35 -7
t-41 -3q-157 0 -245.5 102t-88.5 257q0 76 24.5 139t65.5 105t94.5 70t111.5 38t117 5q102 -9 188 -60l-2 -157q-8 19 -24 45t-53 65.5t-79 60.5q-118 59 -219 5q-65 -33 -98.5 -115t-25.5 -198q9 -149 84.5 -236.5t177.5 -93.5q71 -3 115 31q59 41 59 152v5q0 34 -23 54.5
t-45 24.5l-23 4h228z" />
    <glyph glyph-name="gdotaccent" unicode="&#x121;" horiz-adv-x="481" 
d="M263 536q-19 0 -33 14t-14 32q0 19 14 32.5t33 13.5t32 -13.5t13 -32.5q0 -18 -13.5 -32t-31.5 -14zM471 476q17 0 25 -9.5t5 -21.5t-15.5 -16.5t-30.5 4.5q-10 8 -17 11t-20 0t-29 -17q42 49 82 49zM287 58q78 -3 118 -23t57 -63q13 -32 8.5 -64t-16.5 -55t-29 -41
q-76 -79 -212 -69q-90 6 -138.5 45t-48.5 94q0 33 14.5 60.5t29.5 39.5l14 11q-43 -84 13.5 -142.5t163.5 -65.5q77 -6 132 24.5t51 79.5q3 45 -43.5 71t-125.5 25q-94 -1 -146.5 14.5t-61.5 60.5q-13 56 79 97l-5 2q-41 19 -65.5 59.5t-22.5 91.5q2 100 114 143
q41 16 90.5 13.5t84.5 -21.5q50 -25 70.5 -83.5t0.5 -109.5q-15 -36 -40 -59t-70 -38q-74 -24 -146 -2q-54 -32 -28 -67q7 -11 19.5 -17t31.5 -8.5t34 -3t39 0t34 0.5zM137 255q26 -66 70 -87t89 -6q33 12 47 49t11.5 76.5t-15.5 73.5q-18 47 -45 71.5t-55 25.5t-57 -9
q-42 -17 -54.5 -73.5t9.5 -120.5z" />
    <glyph glyph-name="Gcommaaccent" unicode="&#x122;" horiz-adv-x="745" 
d="M491 290h228q-3 0 -7.5 -1t-16 -6.5t-20.5 -13t-16 -23.5t-7 -37v-219q-8 32 -33 59.5t-44 29.5q-1 -1 -11 -11.5t-14.5 -14.5t-17 -14.5t-21.5 -16t-24.5 -13.5t-30.5 -12t-35 -7t-41 -3q-157 0 -245.5 102t-88.5 257q0 76 24.5 139t65.5 105t94.5 70t111.5 38t117 5
q102 -9 188 -60l-2 -157q-8 19 -24 45t-53 65.5t-79 60.5q-118 59 -219 5q-65 -33 -98.5 -115t-25.5 -198q9 -149 84.5 -236.5t177.5 -93.5q71 -3 115 31q59 41 59 152v5q0 34 -23 54.5t-45 24.5zM383 -74q18 2 32 -7.5t19 -25.5q15 -40 -1 -97t-60 -87q25 21 38 61t6 74
q-11 -8 -24 -9q-19 -2 -33.5 10t-16.5 31t9.5 34t30.5 16z" />
    <glyph glyph-name="gcommaaccent" unicode="&#x123;" horiz-adv-x="481" 
d="M471 476q17 0 25 -9.5t5 -21.5t-15.5 -16.5t-30.5 4.5q-10 8 -17 11t-20 0t-29 -17q42 49 82 49zM287 58q78 -3 118 -23t57 -63q13 -32 8.5 -64t-16.5 -55t-29 -41q-76 -79 -212 -69q-90 6 -138.5 45t-48.5 94q0 33 14.5 60.5t29.5 39.5l14 11q-43 -84 13.5 -142.5
t163.5 -65.5q77 -6 132 24.5t51 79.5q3 45 -43.5 71t-125.5 25q-94 -1 -146.5 14.5t-61.5 60.5q-13 56 79 97l-5 2q-41 19 -65.5 59.5t-22.5 91.5q2 100 114 143q41 16 90.5 13.5t84.5 -21.5q50 -25 70.5 -83.5t0.5 -109.5q-15 -36 -40 -59t-70 -38q-74 -24 -146 -2
q-54 -32 -28 -67q7 -11 19.5 -17t31.5 -8.5t34 -3t39 0t34 0.5zM137 255q26 -66 70 -87t89 -6q33 12 47 49t11.5 76.5t-15.5 73.5q-18 47 -45 71.5t-55 25.5t-57 -9q-42 -17 -54.5 -73.5t9.5 -120.5zM276 -393q22 -12 27 -52.5t-13 -87t-54 -70.5q24 21 37 60.5t6 73.5
q-9 -7 -23 -9q-20 -2 -34.5 10t-15.5 31q-2 19 9.5 33.5t30.5 16.5q16 1 30 -6z" />
    <glyph glyph-name="Hbar" unicode="&#x126;" horiz-adv-x="741" 
d="M633 85q0 -29 11 -48t28 -26t27 -9t19 -2h-263q8 0 17.5 2t26 8.5t28 24t12.5 44.5v280h-341v-274q0 -29 11 -48t28.5 -26t27.5 -9t19 -2h-263q13 0 27 2.5t34 22t22 54.5v457h-75l-12 9h87v70q0 29 -10.5 48t-27.5 26t-27 9t-19 2h264q-9 0 -19 -2t-27.5 -9t-28.5 -26
t-11 -48v-70h341v70q0 29 -11 48t-28 26t-27 9t-19 2h264q-9 0 -19 -2t-27 -9t-28 -26t-11 -48v-70h88l-9 -9h-79v-451zM198 370h341v166h-341v-166z" />
    <glyph glyph-name="hbar" unicode="&#x127;" horiz-adv-x="572" 
d="M179 68q0 -23 10.5 -38.5t27 -21t25 -7t16.5 -1.5h-234q8 0 16.5 1.5t24.5 7t26 21t10 38.5v468h-44l-12 9h56v47q0 14 -2.5 23.5t-6 14t-9 7t-8.5 3t-9 0.5l-6 -1l119 77v-171h109l-9 -9h-100v-468zM486 68q0 -23 9.5 -38.5t24 -21t22.5 -7t15 -1.5h-219q7 0 14.5 1.5
t22.5 7t24 21t9 38.5v172v14q0 34 -0.5 49.5t-3 38.5t-7.5 34t-15 21t-25 15q-32 12 -80.5 -4.5t-86.5 -51.5q37 45 92 79t113 29q22 -2 38.5 -9t26 -22t15.5 -26.5t8 -37.5t2.5 -38.5t0.5 -44.5v-20v-198z" />
    <glyph glyph-name="Imacron" unicode="&#x12a;" horiz-adv-x="335" 
d="M270 798v-9h-197v8zM211 85q0 -23 8.5 -40t19.5 -25.5t25.5 -13t22 -5.5t14.5 -1h-272q9 0 19.5 2t28.5 9t29.5 26.5t11.5 47.5v530q0 29 -11.5 48t-29.5 26t-28.5 9t-19.5 2h272q-9 0 -20 -2t-29 -9t-29.5 -26t-11.5 -48v-530z" />
    <glyph glyph-name="imacron" unicode="&#x12b;" horiz-adv-x="327" 
d="M269 549v-9h-197v8zM205 68q0 -24 9 -39t24 -20.5t23 -7t15 -1.5h-223q8 0 16 1.5t23.5 7t25 20.5t9.5 39v277q0 31 -12.5 42t-28.5 7l119 76v-402z" />
    <glyph glyph-name="Iogonek" unicode="&#x12e;" horiz-adv-x="335" 
d="M233 0q-27 -15 -46 -44t-14 -62q5 -30 24 -45t41 -14t43 8q-23 -19 -57.5 -23t-66 13.5t-38.5 56.5q-12 62 45 110h-135q9 0 19.5 2t28.5 9t29.5 26.5t11.5 47.5v530q0 29 -11.5 48t-29.5 26t-28.5 9t-19.5 2h272q-9 0 -20 -2t-29 -9t-29.5 -26t-11.5 -48v-530
q0 -23 8.5 -40t19.5 -25.5t25.5 -13t22 -5.5t14.5 -1h-68z" />
    <glyph glyph-name="iogonek" unicode="&#x12f;" horiz-adv-x="327" 
d="M168 533q-18 0 -31 13.5t-13 31.5t13 31t31 13t31 -13t13 -31t-13 -31.5t-31 -13.5zM177 -106q5 -30 24 -45t41 -14t43 8q-23 -19 -57.5 -23t-66 13.5t-38.5 56.5q-14 62 45 110h-115q8 0 16 1.5t23.5 7t25 20.5t9.5 39v277q0 31 -12.5 42t-28.5 7l119 76v-402
q0 -24 9 -39t24 -20.5t23 -7t15 -1.5h-39q-28 -15 -47 -44t-13 -62z" />
    <glyph glyph-name="Idotaccent" unicode="&#x130;" horiz-adv-x="335" 
d="M169 783q-18 0 -31 13t-13 32q0 17 13 30t31 13t30.5 -13t12.5 -30q0 -19 -12.5 -32t-30.5 -13zM211 85q0 -23 8.5 -40t19.5 -25.5t25.5 -13t22 -5.5t14.5 -1h-272q9 0 19.5 2t28.5 9t29.5 26.5t11.5 47.5v530q0 29 -11.5 48t-29.5 26t-28.5 9t-19.5 2h272q-9 0 -20 -2
t-29 -9t-29.5 -26t-11.5 -48v-530z" />
    <glyph glyph-name="dotlessi" unicode="&#x131;" horiz-adv-x="339" 
d="M211 68q0 -24 9 -39t24 -20.5t23 -7t15 -1.5h-223q8 0 16 1.5t23.5 7t25 20.5t9.5 39v277q0 30 -12.5 41.5t-28.5 7.5l119 76v-402z" />
    <glyph glyph-name="IJ" unicode="&#x132;" horiz-adv-x="774" 
d="M211 85q0 -23 8.5 -40t19.5 -25.5t25.5 -13t22 -5.5t14.5 -1h-272q9 0 19.5 2t28.5 9t29.5 26.5t11.5 47.5v530q0 29 -11.5 48t-29.5 26t-28.5 9t-19.5 2h272q-9 0 -20 -2t-29 -9t-29.5 -26t-11.5 -48v-530zM582 622q0 26 -10 43.5t-26.5 24t-26 8.5t-18.5 2h257
q-9 0 -18.5 -2t-26 -8.5t-27 -24t-10.5 -43.5v-456q0 -50 -15.5 -85t-42 -52t-53.5 -24t-58 -7q-22 0 -45 5t-49 16t-43 34.5t-18 55.5q0 20 13 36t34 16q28 0 39.5 -22t5.5 -52q-8 -35 11.5 -58t51.5 -23q44 0 59.5 36.5t15.5 117.5v462z" />
    <glyph glyph-name="ij" unicode="&#x133;" horiz-adv-x="556" 
d="M146 527q-20 0 -34.5 15t-14.5 35q0 21 14.5 35.5t34.5 14.5t35 -14.5t15 -35.5q0 -20 -15 -35t-35 -15zM429 527q-20 0 -35 15t-15 35q0 21 15 35.5t35 14.5t34.5 -14.5t14.5 -35.5q0 -20 -14.5 -35t-34.5 -15zM38 0q8 0 16 1.5t23.5 7t25 20.5t9.5 39v277
q0 30 -12.5 41.5t-28.5 7.5l119 76v-402q0 -24 9 -39t23.5 -20.5t22.5 -7t15 -1.5h-222zM397 344q0 55 -43 50l121 76v-521q0 -93 -48 -130.5t-118 -27.5q-48 3 -81 26t-33 62q0 17 12 29.5t29 12.5q24 0 35 -21t7 -48q-2 -31 17 -44.5t42 -10.5q36 1 48 30t12 108v409z" />
    <glyph glyph-name="Kcommaaccent" unicode="&#x136;" horiz-adv-x="636" 
d="M190 78q0 -26 11 -43t27.5 -24t27.5 -9t19 -2h-264q8 0 18.5 2t27 9t27.5 24t11 43v544q0 26 -10.5 43.5t-27.5 24t-27 8.5t-19 2h264q-9 0 -19 -2t-27 -8.5t-28 -24t-11 -43.5v-544zM532 118q35 -45 70 -74.5t52 -37.5l17 -7l-160 2q-32 31 -74 85l-174 228
q-15 16 -30.5 14.5t-26.5 -11.5l-12 -10l229 273q33 41 16.5 77.5t-59.5 40.5h224h-2q-3 -1 -9 -2.5t-14 -4.5t-19 -8.5t-23 -12.5t-26.5 -18.5t-29.5 -24.5q-16 -14 -42 -45t-61 -74t-42 -52q-21 -26 -21 -43.5t17 -40.5zM380 -83q20 -15 23 -54.5t-15 -85t-53 -68.5
q25 21 38 61t6 74q-11 -8 -24 -9q-19 -2 -33.5 10t-16.5 31t9.5 34t30.5 16q21 2 35 -9z" />
    <glyph glyph-name="kcommaaccent" unicode="&#x137;" horiz-adv-x="464" 
d="M18 0q7 0 15.5 1.5t23.5 7t25 21t10 38.5v523q0 29 -13.5 41.5t-29.5 5.5l122 78l-1 -648q0 -23 9 -38.5t22.5 -21t21.5 -7t14 -1.5h-219zM308 0q11 1 16 7.5t3.5 18t-11.5 24.5q-14 20 -61.5 82t-58.5 74q-16 19 -24 15l120 131q32 37 16.5 68t-61.5 33h200
q-9 -2 -27 -10t-54 -34.5t-72 -65.5l-37 -40q-18 -21 1 -50q20 -28 76.5 -102t82.5 -102q18 -20 37.5 -32.5t29.5 -14.5l11 -2h-187zM248 -74q32 3 47 -24q10 -26 10 -60.5t-18 -73t-49 -59.5q25 21 38 61t6 74q-10 -8 -24 -9q-19 -2 -33.5 9.5t-16.5 31.5q-2 19 9.5 34
t30.5 16z" />
    <glyph glyph-name="Lacute" unicode="&#x139;" horiz-adv-x="607" 
d="M265 898q10 -6 6.5 -22.5t-24.5 -31.5l-121 -84l84 119q13 21 29 26t26 -7zM317 9q91 0 168.5 53t100.5 118l-38 -180h-536q9 0 19.5 2t28.5 9.5t29.5 27.5t11.5 50v526q0 29 -11 48t-28 26t-27 9t-19 2h264q-9 0 -19 -2t-27.5 -9t-28.5 -26t-11 -48v-517
q0 -50 20.5 -69.5t59.5 -19.5h43z" />
    <glyph glyph-name="lacute" unicode="&#x13a;" horiz-adv-x="264" 
d="M199 894q10 -7 6.5 -23t-24.5 -31l-122 -85l85 119q13 21 28.5 26.5t26.5 -6.5zM168 68q0 -23 10 -38.5t26.5 -21t25 -7t16.5 -1.5h-234q8 0 16.5 1.5t25 7t26.5 21t10 38.5v517q0 26 -9 39.5t-17.5 15t-15.5 -0.5l120 77v-648z" />
    <glyph glyph-name="Lcommaaccent" unicode="&#x13b;" horiz-adv-x="607" 
d="M317 9q91 0 168.5 53t100.5 118l-38 -180h-536q9 0 19.5 2t28.5 9.5t29.5 27.5t11.5 50v526q0 29 -11 48t-28 26t-27 9t-19 2h264q-9 0 -19 -2t-27.5 -9t-28.5 -26t-11 -48v-517q0 -50 20.5 -69.5t59.5 -19.5h43zM313 -74q18 2 32 -7.5t19 -25.5q15 -40 -1 -97t-60 -87
q25 21 38 61t6 74q-11 -8 -24 -9q-19 -2 -33.5 10t-16.5 31t9.5 34t30.5 16z" />
    <glyph glyph-name="lcommaaccent" unicode="&#x13c;" horiz-adv-x="264" 
d="M168 68q0 -23 10 -38.5t26.5 -21t25 -7t16.5 -1.5h-234q8 0 16.5 1.5t25 7t26.5 21t10 38.5v517q0 26 -9 39.5t-17.5 15t-15.5 -0.5l120 77v-648zM143 -74q18 2 32 -7.5t19 -25.5q15 -40 -1 -97t-60 -87q25 21 38 61t6 74q-11 -8 -24 -9q-19 -2 -33.5 10t-16.5 31t9.5 34
t30.5 16z" />
    <glyph glyph-name="Lcaron" unicode="&#x13d;" horiz-adv-x="607" 
d="M277 677q-2 19 9.5 33.5t30.5 16.5q18 2 30 -6q22 -12 27 -52.5t-13 -87t-54 -70.5q24 21 37.5 60.5t6.5 73.5q-11 -7 -24 -9q-19 -2 -33.5 9.5t-16.5 31.5zM317 9q91 0 168.5 53t100.5 118l-38 -180h-536q9 0 19.5 2t28.5 9.5t29.5 27.5t11.5 50v526q0 29 -11 48t-28 26
t-27 9t-19 2h264q-9 0 -19 -2t-27.5 -9t-28.5 -26t-11 -48v-517q0 -50 20.5 -69.5t59.5 -19.5h43z" />
    <glyph glyph-name="lcaron" unicode="&#x13e;" horiz-adv-x="264" 
d="M284 721q22 -12 27 -52.5t-13 -87t-54 -70.5q24 21 37.5 60.5t6.5 73.5q-10 -7 -24 -9q-19 -2 -33.5 9.5t-16.5 31.5q-2 19 9.5 33.5t30.5 16.5q18 2 30 -6zM168 68q0 -23 10 -38.5t26.5 -21t25 -7t16.5 -1.5h-234q8 0 16.5 1.5t25 7t26.5 21t10 38.5v517q0 26 -9 39.5
t-17.5 15t-15.5 -0.5l120 77v-648z" />
    <glyph glyph-name="Ldot" unicode="&#x13f;" horiz-adv-x="607" 
d="M317 9q91 0 168.5 53t100.5 118l-38 -180h-536q9 0 19.5 2t28.5 9.5t29.5 27.5t11.5 50v526q0 29 -11 48t-28 26t-27 9t-19 2h264q-9 0 -19 -2t-27.5 -9t-28.5 -26t-11 -48v-517q0 -50 20.5 -69.5t59.5 -19.5h43zM369 342q-17 0 -29 12.5t-12 30.5q0 17 12 29.5t29 12.5
q19 0 31 -12.5t12 -29.5q0 -18 -12 -30.5t-31 -12.5z" />
    <glyph glyph-name="ldot" unicode="&#x140;" horiz-adv-x="348" 
d="M180 68q0 -23 10 -38.5t26.5 -21t25 -7t16.5 -1.5h-234q8 0 16.5 1.5t25 7t26.5 21t10 38.5v517q0 26 -9 39.5t-17.5 15t-15.5 -0.5l120 77v-648zM259 427q18 0 30.5 -12.5t12.5 -29.5q0 -18 -12.5 -30.5t-30.5 -12.5q-17 0 -29 12.5t-12 30.5q0 17 12 29.5t29 12.5z" />
    <glyph glyph-name="Lslash" unicode="&#x141;" horiz-adv-x="615" 
d="M323 9q91 0 168.5 53t100.5 118l-38 -180h-536q9 0 19.5 2t28 9.5t29 27.5t11.5 50v309l-64 -25l-16 4l80 31v207q0 29 -10.5 48t-27.5 26t-27 9t-19 2h263q-9 0 -19 -2t-27 -9t-28 -26t-11 -48v-171l83 32l-5 -12l-78 -30v-336q0 -50 20.5 -69.5t59.5 -19.5h43z" />
    <glyph glyph-name="lslash" unicode="&#x142;" horiz-adv-x="287" 
d="M174 437l89 34l-5 -12l-84 -32v-359q0 -23 10 -38.5t26.5 -21t25 -7t16.5 -1.5h-234q8 0 16.5 1.5t25 7t26.5 21t10 38.5v329l-62 -24l-16 4l78 30v178q0 26 -9 39.5t-17.5 15t-15.5 -0.5l120 77v-279z" />
    <glyph glyph-name="Nacute" unicode="&#x143;" horiz-adv-x="734" 
d="M485 898q10 -6 6 -22.5t-24 -31.5l-122 -84l84 119q14 21 29.5 26t26.5 -7zM599 576q0 40 -13.5 67t-35 38t-34.5 14.5t-26 4.5h227q-12 -1 -25 -4.5t-34 -14.5t-34.5 -38t-13.5 -67v-588h-1l-8 12l-429 571q-22 27 -32 -1q-4 -13 -4 -32v-409q0 -34 11.5 -59.5t27.5 -38
t32 -20.5t27 -9l12 -2h-231q4 0 11.5 1.5t26.5 9.5t33.5 20.5t26.5 38.5t12 60v408q0 25 -3.5 46.5t-9 36.5t-13 27.5t-16 21t-16.5 14.5t-15.5 9t-13 5t-8.5 2l-4 1h170l359 -479q20 -28 33 -25q11 2 11 57v322z" />
    <glyph glyph-name="nacute" unicode="&#x144;" horiz-adv-x="567" 
d="M382 651q10 -6 6 -22.5t-24 -31.5l-122 -84l85 119q13 21 28.5 26t26.5 -7zM177 68q0 -23 9.5 -38.5t24 -21t22.5 -7t15 -1.5h-219q7 0 14.5 1.5t22.5 7t24 21t9 38.5v280q0 22 -9.5 33.5t-19 11t-13.5 -0.5l120 78v-402zM477 68q0 -23 9.5 -38.5t24 -21t22.5 -7t15 -1.5
h-220q7 0 14.5 1.5t22.5 7t24 21t9 38.5v172v14q0 34 -0.5 49.5t-3 38.5t-7.5 34t-15 21t-25 15q-32 12 -79.5 -4.5t-85.5 -51.5q39 46 92.5 79.5t110.5 28.5q19 -2 34 -9t25 -14.5t16.5 -23.5t10 -26.5t5 -34t1.5 -34v-38.5v-18v-198z" />
    <glyph glyph-name="Ncommaaccent" unicode="&#x145;" horiz-adv-x="734" 
d="M599 576q0 40 -13.5 67t-35 38t-34.5 14.5t-26 4.5h227q-12 -1 -25 -4.5t-34 -14.5t-34.5 -38t-13.5 -67v-588h-1l-8 12l-429 571q-22 27 -32 -1q-4 -13 -4 -32v-409q0 -34 11.5 -59.5t27.5 -38t32 -20.5t27 -9l12 -2h-231q4 0 11.5 1.5t26.5 9.5t33.5 20.5t26.5 38.5
t12 60v408q0 25 -3.5 46.5t-9 36.5t-13 27.5t-16 21t-16.5 14.5t-15.5 9t-13 5t-8.5 2l-4 1h170l359 -479q20 -28 33 -25q11 2 11 57v322zM370 -74q18 2 32 -7.5t19 -25.5q15 -40 -1 -97t-60 -87q25 21 38 61t6 74q-10 -8 -24 -9q-19 -2 -33.5 9.5t-16.5 31.5q-2 19 9.5 34
t30.5 16z" />
    <glyph glyph-name="ncommaaccent" unicode="&#x146;" horiz-adv-x="567" 
d="M177 68q0 -23 9.5 -38.5t24 -21t22.5 -7t15 -1.5h-219q7 0 14.5 1.5t22.5 7t24 21t9 38.5v280q0 22 -9.5 33.5t-19 11t-13.5 -0.5l120 78v-402zM477 68q0 -23 9.5 -38.5t24 -21t22.5 -7t15 -1.5h-220q7 0 14.5 1.5t22.5 7t24 21t9 38.5v172v14q0 34 -0.5 49.5t-3 38.5
t-7.5 34t-15 21t-25 15q-32 12 -79.5 -4.5t-85.5 -51.5q39 46 92.5 79.5t110.5 28.5q19 -2 34 -9t25 -14.5t16.5 -23.5t10 -26.5t5 -34t1.5 -34v-38.5v-18v-198zM291 -74q32 3 47 -24q10 -26 10 -60.5t-18 -73t-49 -59.5q24 21 37 61t6 73q-10 -7 -23 -8q-20 -2 -34.5 10
t-15.5 31q-2 19 9.5 34t30.5 16z" />
    <glyph glyph-name="Ncaron" unicode="&#x147;" horiz-adv-x="734" 
d="M412 761h-55l-83 137l110 -103l98 102zM599 576q0 40 -13.5 67t-35 38t-34.5 14.5t-26 4.5h227q-12 -1 -25 -4.5t-34 -14.5t-34.5 -38t-13.5 -67v-588h-1l-8 12l-429 571q-22 27 -32 -1q-4 -13 -4 -32v-409q0 -34 11.5 -59.5t27.5 -38t32 -20.5t27 -9l12 -2h-231
q4 0 11.5 1.5t26.5 9.5t33.5 20.5t26.5 38.5t12 60v408q0 25 -3.5 46.5t-9 36.5t-13 27.5t-16 21t-16.5 14.5t-15.5 9t-13 5t-8.5 2l-4 1h170l359 -479q20 -28 33 -25q11 2 11 57v322z" />
    <glyph glyph-name="ncaron" unicode="&#x148;" horiz-adv-x="567" 
d="M321 515h-56l-82 137l109 -103l99 102zM177 68q0 -23 9.5 -38.5t24 -21t22.5 -7t15 -1.5h-219q7 0 14.5 1.5t22.5 7t24 21t9 38.5v280q0 22 -9.5 33.5t-19 11t-13.5 -0.5l120 78v-402zM477 68q0 -23 9.5 -38.5t24 -21t22.5 -7t15 -1.5h-220q7 0 14.5 1.5t22.5 7t24 21
t9 38.5v172v14q0 34 -0.5 49.5t-3 38.5t-7.5 34t-15 21t-25 15q-32 12 -79.5 -4.5t-85.5 -51.5q39 46 92.5 79.5t110.5 28.5q19 -2 34 -9t25 -14.5t16.5 -23.5t10 -26.5t5 -34t1.5 -34v-38.5v-18v-198z" />
    <glyph glyph-name="Eng" unicode="&#x14a;" horiz-adv-x="750" 
d="M605 576q0 40 -13.5 67t-35 38t-34.5 14.5t-26 4.5h227q-12 -1 -25 -4.5t-34.5 -14.5t-35 -38t-13.5 -67v-627q0 -93 -47.5 -130.5t-117.5 -27.5q-48 3 -81 26t-33 62q0 17 12 29.5t28 12.5q24 0 35.5 -21t7.5 -48q-3 -31 16 -44.5t42 -10.5q36 1 48 30t12 108v83
q0 12 -2 24.5t-5 22.5t-8.5 22t-9.5 20t-10.5 19.5t-10 16t-10.5 14.5t-8 12h7l-302 402q-22 27 -32 -1q-4 -13 -4 -32v-409q0 -34 11.5 -59.5t27.5 -38t32 -20.5t27 -9l12 -2h-231q4 0 11.5 1.5t26.5 9.5t33.5 20.5t26.5 38.5t12 60v408q0 25 -3.5 46.5t-9 36.5t-13 27.5
t-16 21t-17 14.5t-16 9t-13 5t-9.5 2l-3 1h171l359 -479q20 -28 33 -25q11 2 11 57v322z" />
    <glyph glyph-name="eng" unicode="&#x14b;" horiz-adv-x="562" 
d="M31 0q7 0 14.5 1.5t22.5 7t24 21t9 38.5v280q0 22 -9.5 33.5t-19 11t-13.5 -0.5l120 78v-402q0 -23 9.5 -38.5t24 -21t22.5 -7t15 -1.5h-219zM387 464q19 -2 34 -9t25 -14.5t16.5 -23.5t10 -26.5t5 -34t1.5 -34v-38.5v-18v-333q0 -96 -44 -136t-109 -40q-22 0 -45 5
t-49 16t-43 35t-18 56q0 19 13 35t34 16q28 0 39.5 -22t4.5 -52q-7 -36 11 -58.5t53 -22.5q74 0 74 189v286v14q0 34 -0.5 49.5t-3 38.5t-7.5 34t-15 21t-25 15q-32 12 -79.5 -4.5t-85.5 -51.5q39 46 92.5 79.5t110.5 28.5z" />
    <glyph glyph-name="Omacron" unicode="&#x14c;" horiz-adv-x="809" 
d="M304 768l197 1v-9h-197v8zM420 708q86 0 152 -32t103.5 -86t55.5 -116.5t16 -129.5q-4 -153 -101 -254t-255 -100q-88 0 -156.5 34t-108 89t-59 117.5t-17.5 125.5q2 161 107 256.5t263 95.5zM640 347q-5 144 -76 244t-176 100q-111 3 -175 -85.5t-57 -240.5
q8 -141 81 -245t176 -112q121 -11 178.5 83.5t48.5 255.5z" />
    <glyph glyph-name="omacron" unicode="&#x14d;" horiz-adv-x="541" 
d="M179 548l197 1v-9h-197v8zM294 -9q-32 -1 -64.5 5t-71 22.5t-68.5 55.5t-43 95q-21 102 26 183.5t141 106.5q112 29 196 -23t98 -174q12 -111 -51.5 -188.5t-162.5 -82.5zM421 279q-18 92 -76.5 145t-132.5 25q-40 -15 -63 -58t-25 -95t8 -108q20 -100 73.5 -144
t112.5 -39q49 5 77.5 47.5t32 101t-6.5 125.5z" />
    <glyph glyph-name="Ohungarumlaut" unicode="&#x150;" horiz-adv-x="809" 
d="M292 763l121 84q21 15 24.5 31t-6.5 23q-10 12 -26 7t-29 -26zM422 763l121 84q21 15 24.5 31t-6.5 23q-10 12 -26 7t-29 -26zM420 708q86 0 152 -32t103.5 -86t55.5 -116.5t16 -129.5q-4 -153 -101 -254t-255 -100q-88 0 -156.5 34t-108 89t-59 117.5t-17.5 125.5
q2 161 107 256.5t263 95.5zM640 347q-5 144 -76 244t-176 100q-111 3 -175 -85.5t-57 -240.5q8 -141 81 -245t176 -112q121 -11 178.5 83.5t48.5 255.5z" />
    <glyph glyph-name="ohungarumlaut" unicode="&#x151;" horiz-adv-x="541" 
d="M185 513l122 84q20 15 23.5 31.5t-6.5 22.5q-10 12 -26 7t-29 -26zM294 513l122 84q20 15 24 31.5t-6 22.5q-11 12 -26.5 7t-29.5 -26zM294 -9q-32 -1 -64.5 5t-71 22.5t-68.5 55.5t-43 95q-21 102 26 183.5t141 106.5q112 29 196 -23t98 -174q12 -111 -51.5 -188.5
t-162.5 -82.5zM421 279q-18 92 -76.5 145t-132.5 25q-40 -15 -63 -58t-25 -95t8 -108q20 -100 73.5 -144t112.5 -39q49 5 77.5 47.5t32 101t-6.5 125.5z" />
    <glyph glyph-name="OE" unicode="&#x152;" horiz-adv-x="1165" 
d="M1024 70q36 26 62 53t34 41l9 15l-43 -179h-432q-28 0 -82 -5.5t-78 -4.5q-68 0 -125.5 23t-96 60t-64.5 84.5t-37.5 98t-9.5 100.5q2 158 104 256t257 98q32 0 87 -5t73 -5h370l34 -160q-7 16 -36 48t-64 55q-42 28 -80.5 37.5t-127.5 9.5h-62v-321h56q34 1 61 11t41 24
t23.5 28t12.5 24l2 10v-207q-1 4 -3 10.5t-11.5 23.5t-23.5 30t-41 24t-61 11h-56v-263q0 -28 7 -47t20 -26.5t23.5 -10t23.5 -2.5h63q88 0 171 61zM507 8q116 -5 116 93v491q0 87 -101 99q-123 14 -192 -70.5t-65 -247.5q4 -90 35 -172t86.5 -136t120.5 -57z" />
    <glyph glyph-name="oe" unicode="&#x153;" horiz-adv-x="878" 
d="M662 46q126 -8 174 94q-19 -62 -69 -106t-127 -44q-60 1 -111.5 28.5t-82.5 78.5q-29 -48 -76 -76t-103 -30q-32 -1 -64.5 5t-71 22.5t-68.5 55.5t-43 95q-21 102 26 183.5t141 106.5q83 21 153.5 -3t108.5 -90q26 42 74 72q57 35 136 31q78 -5 127 -61.5t47 -146.5h-344
q0 -35 8 -64q15 -68 59.5 -107.5t105.5 -43.5zM291 5q49 5 77.5 47.5t32 101t-6.5 125.5q-18 92 -76.5 145t-132.5 25q-40 -15 -63 -58t-25 -95t8 -108q20 -100 73.5 -144t112.5 -39zM558 435q-64 -50 -69 -166q129 0 174 3q65 4 88 34q10 13 13 35t-5.5 49.5t-31.5 45.5
q-33 27 -81 27t-88 -28z" />
    <glyph glyph-name="Racute" unicode="&#x154;" horiz-adv-x="606" 
d="M366 898q10 -6 6.5 -22.5t-24.5 -31.5l-121 -84l84 119q13 21 29 26t26 -7zM542 95q19 -34 46 -58t44 -31l17 -6h-148q-30 33 -68 102l-91 157q-7 13 -15 23.5t-15 18t-16.5 13.5t-15 10t-16 7t-15.5 4.5t-17 2t-16 0.5h-17h-16l-1 -276q0 -27 17.5 -42.5t30.5 -17.5
t26 -2h-253q9 0 19 2t27 8.5t28 24t11 43.5v544q0 26 -11.5 44t-29 24t-27 8t-17.5 2q41 0 127 2.5t127 1.5q99 -1 155.5 -17t86.5 -61q31 -42 29 -105q-3 -88 -68 -139q-44 -36 -94 -40q39 -12 86 -94zM274 354q79 9 120 54t42 115q1 105 -63.5 142t-190.5 30l1 -346
q56 0 91 5z" />
    <glyph glyph-name="racute" unicode="&#x155;" horiz-adv-x="407" 
d="M323 651q10 -6 6 -22.5t-24 -31.5l-122 -84l84 119q14 21 29.5 26t26.5 -7zM337 465q29 -1 41.5 -17.5t12.5 -34.5q0 -17 -10 -32t-32 -16q-16 0 -26.5 6t-18.5 17.5t-13 14.5q-11 9 -25 11t-39.5 -12t-52.5 -50v-287q0 -22 10 -37t25.5 -20t23.5 -6.5t16 -1.5h-227
q8 0 16 1.5t23.5 6.5t25 20t9.5 37v13v270q0 27 -12.5 38t-27.5 9l118 75v-69v-23v-21q28 52 73 81t90 27z" />
    <glyph glyph-name="Rcommaaccent" unicode="&#x156;" horiz-adv-x="606" 
d="M542 95q19 -34 46 -58t44 -31l17 -6h-148q-30 33 -68 102l-91 157q-7 13 -15 23.5t-15 18t-16.5 13.5t-15 10t-16 7t-15.5 4.5t-17 2t-16 0.5h-17h-16l-1 -276q0 -27 17.5 -42.5t30.5 -17.5t26 -2h-253q9 0 19 2t27 8.5t28 24t11 43.5v544q0 26 -11.5 44t-29 24t-27 8
t-17.5 2q41 0 127 2.5t127 1.5q99 -1 155.5 -17t86.5 -61q31 -42 29 -105q-3 -88 -68 -139q-44 -36 -94 -40q39 -12 86 -94zM274 354q79 9 120 54t42 115q1 105 -63.5 142t-190.5 30l1 -346q56 0 91 5zM365 -91q2 -4 4 -6q10 -25 10.5 -59.5t-17.5 -74t-49 -60.5
q24 21 37 61t6 73q-10 -7 -23 -8q-20 -2 -34.5 10t-15.5 31q-2 19 9.5 34t30.5 16q20 3 36 -11z" />
    <glyph glyph-name="rcommaaccent" unicode="&#x157;" horiz-adv-x="407" 
d="M337 465q29 -1 41.5 -17.5t12.5 -34.5q0 -17 -10 -32t-32 -16q-16 0 -26.5 6t-18.5 17.5t-13 14.5q-11 9 -25 11t-39.5 -12t-52.5 -50v-287q0 -22 10 -37t25.5 -20t23.5 -6.5t16 -1.5h-227q8 0 16 1.5t23.5 6.5t25 20t9.5 37v13v270q0 27 -12.5 38t-27.5 9l118 75v-69
v-23v-21q28 52 73 81t90 27zM226 -91q2 -4 4 -6q10 -26 10.5 -60t-18 -73.5t-49.5 -60.5q25 21 38 61t6 74q-9 -7 -24 -9q-19 -2 -33.5 10t-16.5 31t10 33.5t31 16.5q20 3 36 -11z" />
    <glyph glyph-name="Rcaron" unicode="&#x158;" horiz-adv-x="606" 
d="M338 761h-56l-82 137l110 -103l98 102zM542 95q19 -34 46 -58t44 -31l17 -6h-148q-30 33 -68 102l-91 157q-7 13 -15 23.5t-15 18t-16.5 13.5t-15 10t-16 7t-15.5 4.5t-17 2t-16 0.5h-17h-16l-1 -276q0 -27 17.5 -42.5t30.5 -17.5t26 -2h-253q9 0 19 2t27 8.5t28 24
t11 43.5v544q0 26 -11.5 44t-29 24t-27 8t-17.5 2q41 0 127 2.5t127 1.5q99 -1 155.5 -17t86.5 -61q31 -42 29 -105q-3 -88 -68 -139q-44 -36 -94 -40q39 -12 86 -94zM274 354q79 9 120 54t42 115q1 105 -63.5 142t-190.5 30l1 -346q56 0 91 5z" />
    <glyph glyph-name="rcaron" unicode="&#x159;" horiz-adv-x="407" 
d="M253 515h-56l-82 137l110 -103l98 102zM337 465q29 -1 41.5 -17.5t12.5 -34.5q0 -17 -10 -32t-32 -16q-16 0 -26.5 6t-18.5 17.5t-13 14.5q-11 9 -25 11t-39.5 -12t-52.5 -50v-287q0 -22 10 -37t25.5 -20t23.5 -6.5t16 -1.5h-227q8 0 16 1.5t23.5 6.5t25 20t9.5 37v13
v270q0 27 -12.5 38t-27.5 9l118 75v-69v-23v-21q28 52 73 81t90 27z" />
    <glyph glyph-name="Sacute" unicode="&#x15a;" horiz-adv-x="597" 
d="M253 760l122 84q20 15 23.5 31.5t-6.5 22.5q-10 12 -26 7t-29 -26zM511 520q-18 47 -80 104q-52 51 -122 66t-122 -15q-29 -18 -42 -51.5t-7 -70.5q17 -103 173 -136q143 -30 199.5 -87.5t45.5 -155.5q-8 -97 -77 -142.5t-164 -45.5q-163 2 -262 76l-2 190
q31 -87 99.5 -151.5t150.5 -84.5q81 -17 141.5 8.5t63.5 97.5q3 63 -46 111t-184 79q-118 28 -162 81.5t-40 132.5q3 84 70.5 134.5t170.5 49.5q53 0 101.5 -12.5t71.5 -24.5l22 -12z" />
    <glyph glyph-name="sacute" unicode="&#x15b;" horiz-adv-x="436" 
d="M172 513l122 84q21 15 24.5 31.5t-6.5 22.5q-11 12 -26.5 7t-28.5 -26zM374 327q-29 58 -77.5 93.5t-99.5 34.5q-71 -2 -79 -61q-5 -11 -0.5 -26.5t13.5 -31t37 -32t71 -27.5q92 -25 128.5 -58.5t36.5 -83.5q1 -60 -41 -103t-125 -43q-20 0 -39 1.5t-36 6t-28.5 7.5
t-26 9.5t-20 9t-18.5 9.5l-14 8l-2 134q40 -90 101 -129q38 -25 82 -34t78 4t39 49q8 41 -23.5 74.5t-116.5 57.5q-82 23 -115 56.5t-33 80.5q1 56 45 96t125 40q86 0 138 -43v-99z" />
    <glyph glyph-name="Scedilla" unicode="&#x15e;" horiz-adv-x="597" 
d="M311 417q143 -30 199.5 -87.5t45.5 -155.5q-8 -95 -75 -141t-161 -47l-20 -29q46 -4 65.5 -26t14.5 -52q-6 -40 -37.5 -57t-66.5 -12t-58 23q16 -7 35.5 -9t38.5 1.5t33 17.5t16 37q3 29 -17.5 43.5t-47.5 16.5l32 46q-157 3 -255 76l-2 190q31 -87 99.5 -151.5
t150.5 -84.5q81 -17 141.5 8.5t63.5 97.5q3 63 -46 111t-184 79q-118 28 -162 81.5t-40 132.5q3 84 70.5 134.5t170.5 49.5q53 0 101.5 -12.5t71.5 -24.5l22 -12l1 -141q-18 47 -80 104q-52 51 -122 66t-122 -15q-29 -18 -42 -51.5t-7 -70.5q17 -103 173 -136z" />
    <glyph glyph-name="scedilla" unicode="&#x15f;" horiz-adv-x="436" 
d="M238 -11l-22 -32q46 -3 65.5 -25.5t15.5 -52.5q-6 -40 -37.5 -57t-66.5 -12t-58 23q22 -9 48 -10t49 13t26 44q3 29 -18 43.5t-48 16.5l34 49q-22 1 -43 4.5t-34.5 6.5t-31 10t-24 10t-21.5 11.5t-16 8.5l-2 134q40 -90 101 -129q38 -25 82 -34t78 4t39 49
q8 41 -23.5 74.5t-116.5 57.5q-82 23 -115 56.5t-33 80.5q1 56 45 96t125 40q86 0 138 -43v-99q-29 58 -77.5 93.5t-99.5 34.5q-71 -2 -79 -61q-5 -11 -0.5 -26.5t13.5 -31t37 -32t71 -27.5q92 -25 128.5 -58.5t36.5 -83.5q1 -60 -41 -103t-125 -43z" />
    <glyph glyph-name="Scaron" unicode="&#x160;" horiz-adv-x="597" 
d="M197 898l82 -137h56l69 136l-98 -102zM511 520q-18 47 -80 104q-52 51 -122 66t-122 -15q-29 -18 -42 -51.5t-7 -70.5q17 -103 173 -136q143 -30 199.5 -87.5t45.5 -155.5q-8 -97 -77 -142.5t-164 -45.5q-163 2 -262 76l-2 190q31 -87 99.5 -151.5t150.5 -84.5
q81 -17 141.5 8.5t63.5 97.5q3 63 -46 111t-184 79q-118 28 -162 81.5t-40 132.5q3 84 70.5 134.5t170.5 49.5q53 0 101.5 -12.5t71.5 -24.5l22 -12z" />
    <glyph glyph-name="scaron" unicode="&#x161;" horiz-adv-x="436" 
d="M120 652l82 -137h56l70 136l-98 -102zM374 327q-29 58 -77.5 93.5t-99.5 34.5q-71 -2 -79 -61q-5 -11 -0.5 -26.5t13.5 -31t37 -32t71 -27.5q92 -25 128.5 -58.5t36.5 -83.5q1 -60 -41 -103t-125 -43q-20 0 -39 1.5t-36 6t-28.5 7.5t-26 9.5t-20 9t-18.5 9.5l-14 8
l-2 134q40 -90 101 -129q38 -25 82 -34t78 4t39 49q8 41 -23.5 74.5t-116.5 57.5q-82 23 -115 56.5t-33 80.5q1 56 45 96t125 40q86 0 138 -43v-99z" />
    <glyph glyph-name="uni0162" unicode="&#x162;" horiz-adv-x="675" 
d="M625 700l26 -168q-26 58 -68 98q-62 59 -162 59h-36v-600q0 -30 12 -50t31 -27.5t30 -9.5t21 -2h-280q10 0 20.5 2t29.5 9.5t31 27.5t12 50v600h-42q-97 0 -162 -61q-20 -18 -38 -42.5t-26 -39.5l-8 -16l29 170h580zM311 -60l40 58l14 2l-30 -43q46 -3 65.5 -25.5
t15.5 -52.5q-6 -40 -37.5 -57t-66.5 -12t-58 23q22 -9 48 -10t49 13t26 44q3 29 -18 43.5t-48 16.5z" />
    <glyph glyph-name="uni0163" unicode="&#x163;" horiz-adv-x="354" 
d="M347 118q-4 -19 -12 -38.5t-24 -41.5t-44 -35t-63 -12l-23 -34q46 -4 65.5 -26t14.5 -52q-6 -40 -37.5 -57t-66.5 -12t-58 23q16 -7 35.5 -9t38.5 1.5t33 17.5t16 37q3 29 -17.5 43.5t-47.5 16.5l36 52q-36 3 -60 19.5t-35.5 45.5t-15.5 58.5t-4 70.5v256h-43l-12 9h55
v119l79 66q0 -87 -1 -185h122l-9 -9h-113v-260q1 -74 15.5 -108.5t60.5 -38.5q42 -4 71.5 21t43.5 62z" />
    <glyph glyph-name="Tcaron" unicode="&#x164;" horiz-adv-x="675" 
d="M380 761h-56l-82 137l109 -103l99 102zM625 700l26 -168q-26 58 -68 98q-62 59 -162 59h-36v-600q0 -30 12 -50t31 -27.5t30 -9.5t21 -2h-280q10 0 20.5 2t29.5 9.5t31 27.5t12 50v600h-42q-97 0 -162 -61q-20 -18 -38 -42.5t-26 -39.5l-8 -16l29 170h580z" />
    <glyph glyph-name="tcaron" unicode="&#x165;" horiz-adv-x="354" 
d="M267 636q-19 -2 -33.5 9.5t-16.5 31.5q-2 19 9.5 33.5t30.5 16.5q17 1 30 -6q4 -2 10 -8q7 -7 10 -16q17 -34 0.5 -95.5t-60.5 -90.5q24 21 37.5 60.5t6.5 73.5q-11 -7 -24 -9zM232 35q42 -4 71.5 21t43.5 62q-4 -19 -12 -38.5t-24 -41.5t-44.5 -35t-64.5 -12
q-39 1 -64.5 17t-38 45.5t-17 60t-4.5 72.5v256h-43l-12 9h55v119l79 66q0 -87 -1 -185h122l-9 -9h-113v-260q1 -74 15.5 -108.5t60.5 -38.5z" />
    <glyph glyph-name="Tbar" unicode="&#x166;" horiz-adv-x="675" 
d="M442 794v-9h-197v8zM625 700l26 -168q-26 58 -68 98q-62 59 -162 59h-36v-600q0 -30 12 -50t31 -27.5t30 -9.5t21 -2h-280q10 0 20.5 2t29.5 9.5t31 27.5t12 50v600h-42q-97 0 -162 -61q-20 -18 -38 -42.5t-26 -39.5l-8 -16l29 170h580z" />
    <glyph glyph-name="tbar" unicode="&#x167;" horiz-adv-x="354" 
d="M248 677v-9h-197v8zM232 35q42 -4 71.5 21t43.5 62q-4 -19 -12 -38.5t-24 -41.5t-44.5 -35t-64.5 -12q-39 1 -64.5 17t-38 45.5t-17 60t-4.5 72.5v256h-43l-12 9h55v119l79 66q0 -87 -1 -185h122l-9 -9h-113v-260q1 -74 15.5 -108.5t60.5 -38.5z" />
    <glyph glyph-name="Umacron" unicode="&#x16a;" horiz-adv-x="683" 
d="M480 798v-9h-197v8zM579 580q0 37 -12 63.5t-30.5 37.5t-30.5 14.5t-23 4.5h197q-9 -1 -20 -5t-29 -15t-29.5 -38t-11.5 -66v-283q0 -300 -235 -300q-49 0 -88.5 11.5t-66 30.5t-46 48.5t-30 59t-17 69.5t-8 72.5t-1.5 74.5v240q0 27 -8 47.5t-18.5 30t-24.5 15.5t-22 7
t-14 1h273q-7 0 -15 -1t-22 -7t-25 -15.5t-19 -30t-8 -47.5v-297q0 -128 46 -202t147 -72q97 2 144 67.5t47 203.5v281z" />
    <glyph glyph-name="umacron" unicode="&#x16b;" horiz-adv-x="539" 
d="M363 549v-9h-197v8zM205 43q33 -13 84 3.5t87 51.5q-35 -44 -93 -78.5t-116 -29.5q-22 2 -38 9t-25.5 22.5t-15.5 27.5t-8 37.5t-2.5 39.5t-0.5 45v16v194q0 24 -9.5 39.5t-24 21t-22.5 7t-15 1.5h149v-69v-167v-46t1.5 -37t4.5 -33.5t8.5 -23t14 -20.5t21.5 -11z
M382 385q0 22 -9 37t-23.5 20t-22 6.5t-14.5 1.5h147v-352q0 -7 1.5 -13t3.5 -10t5.5 -6.5t6 -4t6.5 -2t6 -0.5h5h4l-116 -75v70v328z" />
    <glyph glyph-name="Uring" unicode="&#x16e;" horiz-adv-x="683" 
d="M389 760q-25 0 -43 18.5t-18 43.5q0 26 18 44.5t43 18.5q27 0 45.5 -17.5t17.5 -45.5q0 -25 -18.5 -43.5t-44.5 -18.5zM390 872q-19 0 -33.5 -14.5t-14.5 -34.5q0 -19 14.5 -33.5t33.5 -14.5q20 0 34.5 14.5t14.5 33.5q0 20 -14.5 34.5t-34.5 14.5zM579 580
q0 37 -12 63.5t-30.5 37.5t-30.5 14.5t-23 4.5h197q-9 -1 -20 -5t-29 -15t-29.5 -38t-11.5 -66v-283q0 -300 -235 -300q-49 0 -88.5 11.5t-66 30.5t-46 48.5t-30 59t-17 69.5t-8 72.5t-1.5 74.5v240q0 27 -8 47.5t-18.5 30t-24.5 15.5t-22 7t-14 1h273q-7 0 -15 -1t-22 -7
t-25 -15.5t-19 -30t-8 -47.5v-297q0 -128 46 -202t147 -72q97 2 144 67.5t47 203.5v281z" />
    <glyph glyph-name="uring" unicode="&#x16f;" horiz-adv-x="539" 
d="M266 510q-25 0 -43.5 18.5t-18.5 43.5q0 26 18 44.5t44 18.5q27 0 45 -17.5t18 -45.5q0 -25 -18.5 -43.5t-44.5 -18.5zM267 622q-20 0 -34 -14t-14 -34t14 -34.5t34 -14.5q19 0 33.5 14.5t14.5 34.5t-14.5 34t-33.5 14zM205 43q33 -13 84 3.5t87 51.5q-35 -44 -93 -78.5
t-116 -29.5q-22 2 -38 9t-25.5 22.5t-15.5 27.5t-8 37.5t-2.5 39.5t-0.5 45v16v194q0 24 -9.5 39.5t-24 21t-22.5 7t-15 1.5h149v-69v-167v-46t1.5 -37t4.5 -33.5t8.5 -23t14 -20.5t21.5 -11zM382 385q0 22 -9 37t-23.5 20t-22 6.5t-14.5 1.5h147v-352q0 -7 1.5 -13t3.5 -10
t5.5 -6.5t6 -4t6.5 -2t6 -0.5h5h4l-116 -75v70v328z" />
    <glyph glyph-name="Uhungarumlaut" unicode="&#x170;" horiz-adv-x="683" 
d="M415 901q10 -7 6 -23t-24 -31l-122 -84l84 119q14 21 29.5 26t26.5 -7zM527 847l-122 -84l84 119q13 21 29 26t26 -7q10 -7 6.5 -23t-23.5 -31zM579 580q0 37 -12 63.5t-30.5 37.5t-30.5 14.5t-23 4.5h197q-9 -1 -20 -5t-29 -15t-29.5 -38t-11.5 -66v-283
q0 -300 -235 -300q-49 0 -88.5 11.5t-66 30.5t-46 48.5t-30 59t-17 69.5t-8 72.5t-1.5 74.5v240q0 27 -8 47.5t-18.5 30t-24.5 15.5t-22 7t-14 1h273q-7 0 -15 -1t-22 -7t-25 -15.5t-19 -30t-8 -47.5v-297q0 -128 46 -202t147 -72q97 2 144 67.5t47 203.5v281z" />
    <glyph glyph-name="uhungarumlaut" unicode="&#x171;" horiz-adv-x="539" 
d="M310 651q10 -6 6.5 -22.5t-24.5 -31.5l-121 -84l84 119q13 21 29 26t26 -7zM402 597l-122 -84l84 119q13 21 29 26t26 -7q10 -6 6.5 -22.5t-23.5 -31.5zM205 43q33 -13 84 3.5t87 51.5q-35 -44 -93 -78.5t-116 -29.5q-22 2 -38 9t-25.5 22.5t-15.5 27.5t-8 37.5
t-2.5 39.5t-0.5 45v16v194q0 24 -9.5 39.5t-24 21t-22.5 7t-15 1.5h149v-69v-167v-46t1.5 -37t4.5 -33.5t8.5 -23t14 -20.5t21.5 -11zM382 385q0 22 -9 37t-23.5 20t-22 6.5t-14.5 1.5h147v-352q0 -7 1.5 -13t3.5 -10t5.5 -6.5t6 -4t6.5 -2t6 -0.5h5h4l-116 -75v70v328z" />
    <glyph glyph-name="Uogonek" unicode="&#x172;" horiz-adv-x="683" 
d="M579 580q0 37 -12 63.5t-30.5 37.5t-30.5 14.5t-23 4.5h197q-9 -1 -20 -5t-29 -15t-29.5 -38t-11.5 -66v-283q0 -279 -204 -299q-25 -16 -41 -43t-10 -57q5 -30 24 -45t41 -14t43 8q-23 -19 -57.5 -23t-66 13.5t-38.5 56.5q-14 58 39 105q-49 4 -87 21t-61.5 46t-39 60.5
t-22.5 75t-9.5 79t-2.5 82.5v240q0 27 -8 47.5t-18.5 30t-24.5 15.5t-22 7t-14 1h273q-7 0 -15 -1t-22 -7t-25 -15.5t-19 -30t-8 -47.5v-297q0 -128 46 -202t147 -72q97 2 144 67.5t47 203.5v281z" />
    <glyph glyph-name="uogonek" unicode="&#x173;" horiz-adv-x="539" 
d="M205 43q33 -13 84 3.5t87 51.5q-56 -68 -134 -97q-25 -17 -42.5 -46t-12.5 -61q5 -30 24.5 -45t41 -14t42.5 8q-23 -19 -57.5 -23t-66 13.5t-38.5 56.5q-10 57 34 100q-22 2 -38 9t-25.5 22.5t-15.5 27.5t-8 37.5t-2.5 39.5t-0.5 45v16v194q0 24 -9.5 39.5t-24 21
t-22.5 7t-15 1.5h149v-69v-167v-46t1.5 -37t4.5 -33.5t8.5 -23t14 -20.5t21.5 -11zM382 385q0 22 -9 37t-23.5 20t-22 6.5t-14.5 1.5h147v-352q0 -7 1.5 -13t3.5 -10t5.5 -6.5t6 -4t6.5 -2t6 -0.5h5h4l-116 -75v70v328z" />
    <glyph glyph-name="Wcircumflex" unicode="&#x174;" horiz-adv-x="1107" 
d="M671 745l-99 102l-109 -103l82 137h56zM892 700h223q-84 -15 -128 -124l-234 -602l-198 450l-179 -450q-280 636 -287 651q-35 75 -111 75h91.5h118.5h93q-2 0 -6 -0.5t-14 -3t-19 -6.5t-18.5 -12t-14.5 -17.5t-5 -25t8 -34.5q37 -94 164 -387q24 -47 40 -47
q12 0 21 10.5t27 53.5q10 25 18 44.5t25.5 63t40.5 101.5l-82 185q-35 75 -111 75h91.5h118.5h93q-2 0 -6 -0.5t-14 -3t-18.5 -6.5t-18 -12t-14.5 -17.5t-5 -25t7 -34.5l164 -387q1 -2 4.5 -8t5 -9.5t5 -8.5t6 -8t6 -6.5t6.5 -5t7 -1.5q11 0 20.5 13t25.5 53q64 160 132 335
q23 57 2 93.5t-81 38.5z" />
    <glyph glyph-name="wcircumflex" unicode="&#x175;" horiz-adv-x="706" 
d="M479 494l-98 102l-110 -103l83 137h55zM564 450h170q-42 -9 -68 -38q-17 -19 -30 -51l-149 -380l-141 319l-116 -319l-186 411q-13 25 -32.5 39.5t-32.5 16.5l-13 2h195q-2 0 -5.5 -0.5t-12.5 -3.5t-13 -9t-7.5 -16t4.5 -25l106 -250q11 -25 24 -25q17 0 35 51l50 136
l-37 84q-13 25 -30.5 39.5t-28.5 16.5l-11 2h191q-2 0 -6 -1t-13.5 -4t-14 -9t-8.5 -17t4 -27l104 -243q13 -32 28 -32q14 0 33 49l73 189l4 11q12 34 -6.5 56.5t-59.5 27.5z" />
    <glyph glyph-name="Ycircumflex" unicode="&#x176;" horiz-adv-x="579" 
d="M431 745l-98 102l-110 -103l82 137h56zM428 700h194q-77 -17 -128 -109l-118 -213q-26 -48 -26 -110v-186q0 -32 19 -52t35 -24.5t30 -5.5h-263q13 0 30 4.5t36.5 24t19.5 49.5l1 179q0 53 -24 92l-158 270q-26 42 -59 61.5t-55 19.5l263 -1q-39 -2 -51.5 -29t8.5 -63
l133 -233q24 -41 49 5l108 194q29 49 18.5 84t-62.5 43z" />
    <glyph glyph-name="ycircumflex" unicode="&#x177;" horiz-adv-x="449" 
d="M353 494l-98 102l-110 -103l83 137h55zM329 450h159q-36 -9 -61 -38q-16 -15 -31 -50l-156 -382l-57 -137q-15 -37 -33 -47.5t-44 -7.5q-19 3 -29 19t-5 34q10 30 42 29q11 -1 22.5 -12t15.5 -12q22 -5 39 33l44 107l-180 407q-13 25 -32.5 39.5t-32.5 15.5l-13 2h202
q-2 0 -6 -1t-14 -4.5t-14.5 -9.5t-9 -16.5t4.5 -26.5l104 -242q15 -31 30 -31q4 0 8 2t7 7t5.5 9t6 11.5t5.5 11.5l80 196l4 11q12 34 -4.5 56t-56.5 27z" />
    <glyph glyph-name="Ydieresis" unicode="&#x178;" horiz-adv-x="579" 
d="M226 791q-18 0 -31.5 13.5t-13.5 32.5q0 18 13.5 31t31.5 13q19 0 32.5 -13t13.5 -31q0 -19 -13 -32.5t-33 -13.5zM432 791q-18 0 -31.5 13.5t-13.5 32.5q0 18 13.5 31t31.5 13q19 0 32.5 -13t13.5 -31q0 -19 -13 -32.5t-33 -13.5zM428 700h194q-77 -17 -128 -109
l-118 -213q-26 -48 -26 -110v-186q0 -32 19 -52t35 -24.5t30 -5.5h-263q13 0 30 4.5t36.5 24t19.5 49.5l1 179q0 53 -24 92l-158 270q-26 42 -59 61.5t-55 19.5l263 -1q-39 -2 -51.5 -29t8.5 -63l133 -233q24 -41 49 5l108 194q29 49 18.5 84t-62.5 43z" />
    <glyph glyph-name="Zacute" unicode="&#x179;" horiz-adv-x="645" 
d="M278 760l122 84q20 15 23.5 31.5t-6.5 22.5q-10 12 -26 7t-29 -26zM216 9h39q136 3 240 79q33 25 60.5 57.5t38.5 52.5l10 19l-50 -217h-543l418 622q25 36 16.5 52t-51.5 16h-40q-133 0 -219 -64q-28 -20 -53.5 -49t-37.5 -48l-11 -19l50 190h507q-10 -13 -206 -307.5
t-213 -321.5q-40 -62 45 -62z" />
    <glyph glyph-name="zacute" unicode="&#x17a;" horiz-adv-x="498" 
d="M223 513l122 84q20 15 24 31.5t-6 22.5q-11 12 -26.5 7t-29.5 -26zM248 4q69 2 128 38q23 14 44.5 40.5t31.5 45.5l10 20l-28 -151l-392 1l282 409q9 14 11 22.5t-5 13t-24 4.5h-60q-38 1 -63.5 -9t-58.5 -31q-18 -11 -36 -28.5t-28 -28.5l-9 -12l33 116h368
q-50 -68 -161 -228.5t-122 -179.5q-25 -41 21 -41z" />
    <glyph glyph-name="Zdotaccent" unicode="&#x17b;" horiz-adv-x="645" 
d="M341 783q-18 0 -31 13t-13 32q0 17 13 30t31 13t30.5 -13t12.5 -30q0 -19 -12.5 -32t-30.5 -13zM216 9h39q136 3 240 79q33 25 60.5 57.5t38.5 52.5l10 19l-50 -217h-543l418 622q25 36 16.5 52t-51.5 16h-40q-133 0 -219 -64q-28 -20 -53.5 -49t-37.5 -48l-11 -19
l50 190h507q-10 -13 -206 -307.5t-213 -321.5q-40 -62 45 -62z" />
    <glyph glyph-name="zdotaccent" unicode="&#x17c;" horiz-adv-x="498" 
d="M272 536q-19 0 -32.5 14t-13.5 32q0 19 13.5 32.5t32.5 13.5t32.5 -13.5t13.5 -32.5q0 -18 -13.5 -32t-32.5 -14zM248 4q69 2 128 38q23 14 44.5 40.5t31.5 45.5l10 20l-28 -151l-392 1l282 409q9 14 11 22.5t-5 13t-24 4.5h-60q-38 1 -63.5 -9t-58.5 -31
q-18 -11 -36 -28.5t-28 -28.5l-9 -12l33 116h368q-50 -68 -161 -228.5t-122 -179.5q-25 -41 21 -41z" />
    <glyph glyph-name="Zcaron" unicode="&#x17d;" horiz-adv-x="645" 
d="M220 898l82 -137h56l70 136l-98 -102zM216 9h39q136 3 240 79q33 25 60.5 57.5t38.5 52.5l10 19l-50 -217h-543l418 622q25 36 16.5 52t-51.5 16h-40q-133 0 -219 -64q-28 -20 -53.5 -49t-37.5 -48l-11 -19l50 190h507q-10 -13 -206 -307.5t-213 -321.5q-40 -62 45 -62z
" />
    <glyph glyph-name="zcaron" unicode="&#x17e;" horiz-adv-x="498" 
d="M167 652l82 -137h56l69 136l-98 -102zM248 4q69 2 128 38q23 14 44.5 40.5t31.5 45.5l10 20l-28 -151l-392 1l282 409q9 14 11 22.5t-5 13t-24 4.5h-60q-38 1 -63.5 -9t-58.5 -31q-18 -11 -36 -28.5t-28 -28.5l-9 -12l33 116h368q-50 -68 -161 -228.5t-122 -179.5
q-25 -41 21 -41z" />
    <glyph glyph-name="Scommaaccent" unicode="&#x218;" horiz-adv-x="597" 
d="M311 417q143 -30 199.5 -87.5t45.5 -155.5q-8 -97 -77 -142.5t-164 -45.5q-163 2 -262 76l-2 190q31 -87 99.5 -151.5t150.5 -84.5q81 -17 141.5 8.5t63.5 97.5q3 63 -46 111t-184 79q-118 28 -162 81.5t-40 132.5q3 84 70.5 134.5t170.5 49.5q53 0 101.5 -12.5
t71.5 -24.5l22 -12l1 -141q-18 47 -80 104q-52 51 -122 66t-122 -15q-29 -18 -42 -51.5t-7 -70.5q17 -103 173 -136zM304 -74q32 3 47 -24q10 -26 10 -60.5t-18 -73t-49 -59.5q25 21 38 61t6 74q-10 -8 -24 -9q-19 -2 -33.5 9.5t-16.5 31.5q-2 19 9.5 34t30.5 16z" />
    <glyph glyph-name="scommaaccent" unicode="&#x219;" horiz-adv-x="436" 
d="M404 135q1 -60 -41 -103t-125 -43q-20 0 -39 1.5t-36 6t-28.5 7.5t-26 9.5t-20 9t-18.5 9.5l-14 8l-2 134q40 -90 101 -129q38 -25 82 -34t78 4t39 49q8 41 -23.5 74.5t-116.5 57.5q-82 23 -115 56.5t-33 80.5q1 56 45 96t125 40q86 0 138 -43v-99q-29 58 -77.5 93.5
t-99.5 34.5q-71 -2 -79 -61q-5 -11 -0.5 -26.5t13.5 -31t37 -32t71 -27.5q92 -25 128.5 -58.5t36.5 -83.5zM261 -91q2 -4 4 -6q10 -25 10.5 -59.5t-17.5 -74t-49 -60.5q24 21 37 61t6 74q-9 -7 -24 -9q-19 -2 -33.5 10t-16.5 31t10 34t31 16q20 3 36 -11z" />
    <glyph glyph-name="uni021A" unicode="&#x21a;" horiz-adv-x="675" 
d="M625 700l26 -168q-26 58 -68 98q-62 59 -162 59h-36v-600q0 -30 12 -50t31 -27.5t30 -9.5t21 -2h-280q10 0 20.5 2t29.5 9.5t31 27.5t12 50v600h-42q-97 0 -162 -61q-20 -18 -38 -42.5t-26 -39.5l-8 -16l29 170h580zM376 -83q20 -15 23 -54.5t-15 -85t-53 -68.5
q25 21 38 61t6 74q-11 -8 -24 -9q-19 -2 -33.5 10t-16.5 31t9.5 34t30.5 16q21 2 35 -9z" />
    <glyph glyph-name="uni021B" unicode="&#x21b;" horiz-adv-x="354" 
d="M232 35q42 -4 71.5 21t43.5 62q-4 -19 -12 -38.5t-24 -41.5t-44.5 -35t-64.5 -12q-39 1 -64.5 17t-38 45.5t-17 60t-4.5 72.5v256h-43l-12 9h55v119l79 66q0 -87 -1 -185h122l-9 -9h-113v-260q1 -74 15.5 -108.5t60.5 -38.5zM183 -74q18 2 32 -7.5t19 -25.5
q15 -40 -1 -97t-60 -87q25 21 38 61t6 74q-11 -8 -24 -9q-19 -2 -33.5 10t-16.5 31t9.5 34t30.5 16z" />
    <glyph glyph-name="circumflex" unicode="&#x2c6;" horiz-adv-x="297" 
d="M50 524l110 103l98 -102l-70 136h-55z" />
    <glyph glyph-name="caron" unicode="&#x2c7;" horiz-adv-x="297" 
d="M50 683l83 -137h55l70 135l-98 -102z" />
    <glyph glyph-name="breve" unicode="&#x2d8;" horiz-adv-x="286" 
d="M142 574q-36 0 -62.5 17t-36.5 49q1 -44 28 -74t73 -30q45 0 70.5 31.5t26.5 71.5q-19 -65 -99 -65z" />
    <glyph glyph-name="dotaccent" unicode="&#x2d9;" horiz-adv-x="205" 
d="M106 533q-19 0 -32 13.5t-13 31.5t13 31t32 13q17 0 30 -13t13 -31t-13 -31.5t-30 -13.5z" />
    <glyph glyph-name="ring" unicode="&#x2da;" horiz-adv-x="600" 
d="M211 510q-25 0 -43 18.5t-18 43.5q0 26 18 44.5t43 18.5q27 0 45.5 -17.5t17.5 -45.5q0 -25 -18.5 -43.5t-44.5 -18.5zM212 525q20 0 34.5 14.5t14.5 34.5t-14.5 34t-34.5 14t-34 -14t-14 -34t14.5 -34.5t33.5 -14.5z" />
    <glyph glyph-name="ogonek" unicode="&#x2db;" horiz-adv-x="276" 
d="M175 0q-28 -15 -47 -44t-13 -62q5 -30 24 -45t41 -14t43 8q-23 -19 -57.5 -23t-66 13.5t-38.5 56.5q-12 63 45 110h69z" />
    <glyph glyph-name="tilde" unicode="&#x2dc;" horiz-adv-x="348" 
d="M38 525q5 27 19.5 43t25.5 19.5t22 3.5q25 0 59.5 -33.5t68.5 -32.5q37 1 59 31.5t19 66.5q-2 -30 -21 -46.5t-46 -15.5q-21 0 -53.5 29.5t-57.5 32.5q-37 3 -65.5 -23.5t-29.5 -74.5z" />
    <glyph glyph-name="hungarumlaut" unicode="&#x2dd;" horiz-adv-x="339" 
d="M137 505l122 85q20 15 23.5 31t-6.5 23q-10 12 -26 6.5t-29 -26.5zM246 505l122 85q20 15 24 31t-6 23q-11 12 -26.5 6.5t-29.5 -26.5z" />
    <glyph glyph-name="Wgrave" unicode="&#x1e80;" horiz-adv-x="1107" 
d="M465 840q-20 15 -24 31t6 23q11 12 26.5 6.5t28.5 -26.5l85 -119zM892 700h223q-84 -15 -128 -124l-234 -602l-198 450l-179 -450q-280 636 -287 651q-35 75 -111 75h91.5h118.5h93q-2 0 -6 -0.5t-14 -3t-19 -6.5t-18.5 -12t-14.5 -17.5t-5 -25t8 -34.5q37 -94 164 -387
q24 -47 40 -47q12 0 21 10.5t27 53.5q10 25 18 44.5t25.5 63t40.5 101.5l-82 185q-35 75 -111 75h91.5h118.5h93q-2 0 -6 -0.5t-14 -3t-18.5 -6.5t-18 -12t-14.5 -17.5t-5 -25t7 -34.5l164 -387q1 -2 4.5 -8t5 -9.5t5 -8.5t6 -8t6 -6.5t6.5 -5t7 -1.5q11 0 20.5 13t25.5 53
q64 160 132 335q23 57 2 93.5t-81 38.5z" />
    <glyph glyph-name="wgrave" unicode="&#x1e81;" horiz-adv-x="706" 
d="M261 597q-21 15 -24.5 31t6.5 23q10 12 26 7t29 -26l84 -120zM564 450h170q-42 -9 -68 -38q-17 -19 -30 -51l-149 -380l-141 319l-116 -319l-186 411q-13 25 -32.5 39.5t-32.5 16.5l-13 2h195q-2 0 -5.5 -0.5t-12.5 -3.5t-13 -9t-7.5 -16t4.5 -25l106 -250q11 -25 24 -25
q17 0 35 51l50 136l-37 84q-13 25 -30.5 39.5t-28.5 16.5l-11 2h191q-2 0 -6 -1t-13.5 -4t-14 -9t-8.5 -17t4 -27l104 -243q13 -32 28 -32q14 0 33 49l73 189l4 11q12 34 -6.5 56.5t-59.5 27.5z" />
    <glyph glyph-name="Wacute" unicode="&#x1e82;" horiz-adv-x="1107" 
d="M641 898q10 -6 6.5 -22.5t-24.5 -31.5l-122 -84l85 119q13 21 28.5 26t26.5 -7zM892 700h223q-84 -15 -128 -124l-234 -602l-198 450l-179 -450q-280 636 -287 651q-35 75 -111 75h91.5h118.5h93q-2 0 -6 -0.5t-14 -3t-19 -6.5t-18.5 -12t-14.5 -17.5t-5 -25t8 -34.5
q37 -94 164 -387q24 -47 40 -47q12 0 21 10.5t27 53.5q10 25 18 44.5t25.5 63t40.5 101.5l-82 185q-35 75 -111 75h91.5h118.5h93q-2 0 -6 -0.5t-14 -3t-18.5 -6.5t-18 -12t-14.5 -17.5t-5 -25t7 -34.5l164 -387q1 -2 4.5 -8t5 -9.5t5 -8.5t6 -8t6 -6.5t6.5 -5t7 -1.5
q11 0 20.5 13t25.5 53q64 160 132 335q23 57 2 93.5t-81 38.5z" />
    <glyph glyph-name="wacute" unicode="&#x1e83;" horiz-adv-x="706" 
d="M454 651q10 -6 6.5 -22.5t-23.5 -31.5l-122 -84l84 119q13 21 29 26t26 -7zM564 450h170q-42 -9 -68 -38q-17 -19 -30 -51l-149 -380l-141 319l-116 -319l-186 411q-13 25 -32.5 39.5t-32.5 16.5l-13 2h195q-2 0 -5.5 -0.5t-12.5 -3.5t-13 -9t-7.5 -16t4.5 -25l106 -250
q11 -25 24 -25q17 0 35 51l50 136l-37 84q-13 25 -30.5 39.5t-28.5 16.5l-11 2h191q-2 0 -6 -1t-13.5 -4t-14 -9t-8.5 -17t4 -27l104 -243q13 -32 28 -32q14 0 33 49l73 189l4 11q12 34 -6.5 56.5t-59.5 27.5z" />
    <glyph glyph-name="Wdieresis" unicode="&#x1e84;" horiz-adv-x="1107" 
d="M398 783q-18 0 -31.5 14t-13.5 33q0 18 13.5 30.5t31.5 12.5q19 0 32.5 -12.5t13.5 -30.5q0 -20 -13.5 -33.5t-32.5 -13.5zM604 783q-19 0 -32.5 14t-13.5 33q0 18 13.5 30.5t32.5 12.5t32.5 -12.5t13.5 -30.5q0 -20 -13.5 -33.5t-32.5 -13.5zM892 700h223
q-84 -15 -128 -124l-234 -602l-198 450l-179 -450q-280 636 -287 651q-35 75 -111 75h91.5h118.5h93q-2 0 -6 -0.5t-14 -3t-19 -6.5t-18.5 -12t-14.5 -17.5t-5 -25t8 -34.5q37 -94 164 -387q24 -47 40 -47q12 0 21 10.5t27 53.5q10 25 18 44.5t25.5 63t40.5 101.5l-82 185
q-35 75 -111 75h91.5h118.5h93q-2 0 -6 -0.5t-14 -3t-18.5 -6.5t-18 -12t-14.5 -17.5t-5 -25t7 -34.5l164 -387q1 -2 4.5 -8t5 -9.5t5 -8.5t6 -8t6 -6.5t6.5 -5t7 -1.5q11 0 20.5 13t25.5 53q64 160 132 335q23 57 2 93.5t-81 38.5z" />
    <glyph glyph-name="wdieresis" unicode="&#x1e85;" horiz-adv-x="706" 
d="M255 541q-18 0 -31.5 13.5t-13.5 32.5q0 18 13.5 31t31.5 13q19 0 32.5 -13t13.5 -31q0 -19 -13.5 -32.5t-32.5 -13.5zM461 541q-18 0 -31.5 13.5t-13.5 32.5q0 18 13.5 31t31.5 13q19 0 32.5 -13t13.5 -31q0 -19 -13.5 -32.5t-32.5 -13.5zM564 450h170q-42 -9 -68 -38
q-17 -19 -30 -51l-149 -380l-141 319l-116 -319l-186 411q-13 25 -32.5 39.5t-32.5 16.5l-13 2h195q-2 0 -5.5 -0.5t-12.5 -3.5t-13 -9t-7.5 -16t4.5 -25l106 -250q11 -25 24 -25q17 0 35 51l50 136l-37 84q-13 25 -30.5 39.5t-28.5 16.5l-11 2h191q-2 0 -6 -1t-13.5 -4
t-14 -9t-8.5 -17t4 -27l104 -243q13 -32 28 -32q14 0 33 49l73 189l4 11q12 34 -6.5 56.5t-59.5 27.5z" />
    <glyph glyph-name="uni1EA0" unicode="&#x1ea0;" horiz-adv-x="624" 
d="M553 87q14 -35 37 -56.5t36.5 -25.5t26.5 -5h-268q4 0 9.5 1.5t21 7t22.5 15t13 26.5t-6 41l-71 195h-231l-65 -171q-20 -46 -3 -78.5t71 -36.5h-198q35 2 65.5 32.5t51.5 85.5l238 612q1 -4 3 -9zM261 561q-13 0 -42 -76l-71 -189l222 1l-74 208q-21 56 -35 56zM657 0
h-4h4zM284 -75q19 0 32.5 -13.5t13.5 -32.5t-13.5 -32.5t-32.5 -13.5t-32.5 13.5t-13.5 32.5t13.5 32.5t32.5 13.5z" />
    <glyph glyph-name="uni1EA1" unicode="&#x1ea1;" 
d="M480 56q11 1 17 19q-5 -17 -10 -29t-15 -26t-25 -21t-36 -7q-69 0 -69 82v193q-49 -15 -82 -27.5t-65 -30t-48.5 -39.5t-18.5 -49q-2 -34 18.5 -60t61.5 -28q63 -5 130 48q-20 -21 -31 -31.5t-34 -28t-49.5 -25.5t-56.5 -8q-63 0 -91.5 36t-25.5 80q1 20 9 37t18.5 29.5
t30.5 24.5t35.5 20t45 17.5t47.5 14.5t53 14.5t53 14.5v56q0 71 -31 102t-81 22q-38 -7 -64 -28.5t-26 -57.5q0 -10 6.5 -25.5t7.5 -25.5q1 -20 -13 -32.5t-32 -12.5t-31.5 12t-12.5 38q1 50 53.5 89t113.5 51q78 15 134.5 -16t54.5 -122v-245q0 -39 21.5 -44t37.5 19z
M260 -75q19 0 32 -13.5t13 -32.5t-13 -32.5t-32 -13.5t-32.5 13.5t-13.5 32.5t13.5 32.5t32.5 13.5z" />
    <glyph glyph-name="uni1EB8" unicode="&#x1eb8;" horiz-adv-x="651" 
d="M510 70q36 26 62 53t34 41l9 15l-43 -179h-552q8 0 19.5 2.5t28.5 9.5t28.5 25.5t11.5 45.5v537q0 27 -11.5 45t-29 24.5t-28 8.5t-19.5 2h517l35 -160q-9 16 -37.5 48t-62.5 55q-42 28 -81 37.5t-127 9.5h-62v-321h56q34 1 60.5 11t40.5 24t23.5 28t11.5 24l3 10v-207
q-1 4 -3 10.5t-11.5 23.5t-23 30t-40.5 24t-61 11h-56v-263q0 -28 7 -47t20 -26.5t23.5 -10t23.5 -2.5h63q88 0 171 61zM330 -75q19 0 32.5 -13.5t13.5 -32.5t-13.5 -32.5t-32.5 -13.5t-32.5 13.5t-13.5 32.5t13.5 32.5t32.5 13.5z" />
    <glyph glyph-name="uni1EB9" unicode="&#x1eb9;" horiz-adv-x="515" 
d="M297 47q125 -5 174 95q-14 -65 -69 -109.5t-132 -43.5q-95 2 -159.5 67.5t-66.5 169.5q-3 142 112 210q59 37 137 33q78 -5 127 -61.5t47 -146.5h-347q0 -93 48.5 -152t128.5 -62zM191 434q-66 -48 -71 -165q148 0 179 4q64 6 85 34q11 14 14.5 36t-5.5 48.5t-32 44.5
q-33 28 -82 27t-88 -29zM276 -167q-19 0 -32.5 13.5t-13.5 32.5t13.5 32.5t32.5 13.5t32.5 -13.5t13.5 -32.5t-13.5 -32.5t-32.5 -13.5z" />
    <glyph glyph-name="uni1ECA" unicode="&#x1eca;" horiz-adv-x="335" 
d="M211 85q0 -23 8.5 -40t19.5 -25.5t25.5 -13t22 -5.5t14.5 -1h-272q9 0 19.5 2t28.5 9t29.5 26.5t11.5 47.5v530q0 29 -11.5 48t-29.5 26t-28.5 9t-19.5 2h272q-9 0 -20 -2t-29 -9t-29.5 -26t-11.5 -48v-530zM168 -75q19 0 32 -13.5t13 -32.5t-13 -32.5t-32 -13.5
t-32.5 13.5t-13.5 32.5t13.5 32.5t32.5 13.5z" />
    <glyph glyph-name="uni1ECB" unicode="&#x1ecb;" horiz-adv-x="296" 
d="M146 527q-20 0 -34.5 15t-14.5 35q0 21 14.5 35.5t34.5 14.5t35 -14.5t15 -35.5q0 -20 -15 -35t-35 -15zM190 68q0 -24 9 -39t23.5 -20.5t22.5 -7t15 -1.5h-222q8 0 16 1.5t23.5 7t25 20.5t9.5 39v277q0 30 -12.5 41.5t-28.5 7.5l119 76v-402zM154 -75q19 0 32.5 -13.5
t13.5 -32.5t-13.5 -32.5t-32.5 -13.5t-32.5 13.5t-13.5 32.5t13.5 32.5t32.5 13.5z" />
    <glyph glyph-name="Ygrave" unicode="&#x1ef2;" horiz-adv-x="579" 
d="M253 840q-20 15 -23.5 31t6.5 23q10 12 26 6.5t29 -26.5l84 -119zM428 700h194q-77 -17 -128 -109l-118 -213q-26 -48 -26 -110v-186q0 -32 19 -52t35 -24.5t30 -5.5h-263q13 0 30 4.5t36.5 24t19.5 49.5l1 179q0 53 -24 92l-158 270q-26 42 -59 61.5t-55 19.5l263 -1
q-39 -2 -51.5 -29t8.5 -63l133 -233q24 -41 49 5l108 194q29 49 18.5 84t-62.5 43z" />
    <glyph glyph-name="ygrave" unicode="&#x1ef3;" horiz-adv-x="449" 
d="M189 597q-21 15 -24.5 31t6.5 23q11 12 26.5 7t28.5 -26l85 -120zM329 450h159q-36 -9 -61 -38q-16 -15 -31 -50l-156 -382l-57 -137q-15 -37 -33 -47.5t-44 -7.5q-19 3 -29 19t-5 34q10 30 42 29q11 -1 22.5 -12t15.5 -12q22 -5 39 33l44 107l-180 407
q-13 25 -32.5 39.5t-32.5 15.5l-13 2h202q-2 0 -6 -1t-14 -4.5t-14.5 -9.5t-9 -16.5t4.5 -26.5l104 -242q15 -31 30 -31q4 0 8 2t7 7t5.5 9t6 11.5t5.5 11.5l80 196l4 11q12 34 -4.5 56t-56.5 27z" />
    <glyph glyph-name="uni1EF4" unicode="&#x1ef4;" horiz-adv-x="579" 
d="M428 700h194q-77 -17 -128 -109l-118 -213q-26 -48 -26 -110v-186q0 -32 19 -52t35 -24.5t30 -5.5h-263q13 0 30 4.5t36.5 24t19.5 49.5l1 179q0 53 -24 92l-158 270q-26 42 -59 61.5t-55 19.5l263 -1q-39 -2 -51.5 -29t8.5 -63l133 -233q24 -41 49 5l108 194
q29 49 18.5 84t-62.5 43zM302 -75q19 0 32 -13.5t13 -32.5t-13 -32.5t-32 -13.5t-33 13.5t-14 32.5t14 32.5t33 13.5z" />
    <glyph glyph-name="uni1EF5" unicode="&#x1ef5;" horiz-adv-x="449" 
d="M329 450h159q-36 -9 -61 -38q-16 -15 -31 -50l-156 -382l-57 -137q-15 -37 -33 -47.5t-44 -7.5q-19 3 -29 19t-5 34q10 30 42 29q11 -1 22.5 -12t15.5 -12q22 -5 39 33l44 107l-180 407q-13 25 -32.5 39.5t-32.5 15.5l-13 2h202q-2 0 -6 -1t-14 -4.5t-14.5 -9.5t-9 -16.5
t4.5 -26.5l104 -242q15 -31 30 -31q4 0 8 2t7 7t5.5 9t6 11.5t5.5 11.5l80 196l4 11q12 34 -4.5 56t-56.5 27zM239 -256q19 0 32 -13t13 -32t-13 -32.5t-32 -13.5t-33 13.5t-14 32.5t13.5 32t33.5 13z" />
    <glyph glyph-name="uni1EF9" unicode="&#x1ef9;" horiz-adv-x="449" 
d="M198 591q-11 0 -22 -3.5t-25.5 -19.5t-19.5 -43q1 48 29.5 74.5t65.5 23.5q25 -3 57.5 -32.5t53.5 -29.5q27 -1 46 15.5t21 46.5q3 -36 -19 -66.5t-59 -31.5q-34 -1 -68.5 32.5t-59.5 33.5zM329 450h159q-36 -9 -61 -38q-16 -15 -31 -50l-156 -382l-57 -137
q-15 -37 -33 -47.5t-44 -7.5q-19 3 -29 19t-5 34q10 30 42 29q11 -1 22.5 -12t15.5 -12q22 -5 39 33l44 107l-180 407q-13 25 -32.5 39.5t-32.5 15.5l-13 2h202q-2 0 -6 -1t-14 -4.5t-14.5 -9.5t-9 -16.5t4.5 -26.5l104 -242q15 -31 30 -31q4 0 8 2t7 7t5.5 9t6 11.5
t5.5 11.5l80 196l4 11q12 34 -4.5 56t-56.5 27z" />
    <glyph glyph-name="endash" unicode="&#x2013;" horiz-adv-x="591" 
d="M57 275h477v-11h-477v11z" />
    <glyph glyph-name="emdash" unicode="&#x2014;" horiz-adv-x="719" 
d="M57 275h605v-11h-605v11z" />
    <glyph glyph-name="quoteleft" unicode="&#x2018;" horiz-adv-x="211" 
d="M145 610q2 -19 -9.5 -34t-30.5 -16q-18 -2 -32 7.5t-19 25.5q-15 40 1 97t60 87q-25 -21 -38 -61t-6 -74q11 8 24 9q19 2 33.5 -10t16.5 -31z" />
    <glyph glyph-name="quoteright" unicode="&#x2019;" horiz-adv-x="211" 
d="M137 721q22 -12 26.5 -52.5t-13.5 -87t-54 -70.5q24 21 37.5 60.5t6.5 73.5q-10 -7 -24 -9q-19 -2 -33.5 10t-16.5 31t9.5 33.5t30.5 16.5q18 2 31 -7v1z" />
    <glyph glyph-name="quotesinglbase" unicode="&#x201a;" horiz-adv-x="211" 
d="M137 85q22 -12 26.5 -52.5t-13.5 -87t-54 -70.5q24 21 37.5 61t6.5 74q-10 -8 -24 -10q-19 -2 -33.5 10t-16.5 31t9.5 33.5t30.5 16.5q18 1 31 -6z" />
    <glyph glyph-name="quotedblleft" unicode="&#x201c;" horiz-adv-x="335" 
d="M95 613q19 2 33.5 -10t16.5 -31t-9.5 -33.5t-30.5 -16.5q-18 -2 -31.5 6.5t-18.5 24.5q-17 34 -0.5 94.5t60.5 90.5q-24 -21 -37.5 -61t-6.5 -74q10 8 24 10zM269 572q2 -19 -9.5 -33.5t-30.5 -16.5q-18 -1 -31 6q-22 12 -26.5 52.5t13.5 87t54 70.5q-24 -21 -37.5 -60.5
t-6.5 -73.5q11 8 24 9q19 2 33.5 -10t16.5 -31z" />
    <glyph glyph-name="quotedblright" unicode="&#x201d;" horiz-adv-x="323" 
d="M147 721q22 -12 27 -52.5t-13 -87t-54 -70.5q24 21 37 60.5t6 73.5q-9 -7 -23 -9q-20 -2 -34.5 10t-15.5 31q-2 19 9.5 33.5t30.5 16.5q17 1 30 -6zM259 721q22 -12 27 -52.5t-13 -87t-54 -70.5q24 21 37.5 60.5t6.5 73.5q-11 -7 -24 -9q-19 -2 -33.5 9.5t-16.5 31.5
q-2 19 9.5 33.5t30.5 16.5q17 1 30 -6z" />
    <glyph glyph-name="quotedblbase" unicode="&#x201e;" horiz-adv-x="332" 
d="M137 85q22 -12 26.5 -52.5t-13.5 -87t-54 -70.5q24 21 37.5 61t6.5 74q-10 -8 -24 -10q-19 -2 -33.5 10t-16.5 31t9.5 33.5t30.5 16.5q18 1 31 -6zM258 85q22 -12 26.5 -52.5t-13.5 -87t-54 -70.5q24 21 37.5 61t6.5 74q-10 -8 -24 -10q-19 -2 -33.5 10t-16.5 31
t9.5 33.5t30.5 16.5q18 1 31 -6z" />
    <glyph glyph-name="dagger" unicode="&#x2020;" horiz-adv-x="468" 
d="M405 579v-9h-165v-626h-9v626h-168v9h168v228h9v-228h165z" />
    <glyph glyph-name="daggerdbl" unicode="&#x2021;" horiz-adv-x="468" 
d="M405 570h-168v-361h168v-9h-168v-256h-9v256h-165v9h165v361h-165v9h165v228h9v-228h168v-9z" />
    <glyph glyph-name="bullet" unicode="&#x2022;" horiz-adv-x="259" 
d="M129 239q-27 0 -46.5 19.5t-19.5 46.5t20 47t46 20q28 0 47.5 -20t19.5 -47q0 -28 -19.5 -47t-47.5 -19z" />
    <glyph glyph-name="ellipsis" unicode="&#x2026;" horiz-adv-x="474" 
d="M99 -3q-19 0 -32.5 13.5t-13.5 31.5q0 19 13.5 32.5t32.5 13.5t32.5 -13.5t13.5 -32.5q0 -18 -13.5 -31.5t-32.5 -13.5zM246 -3q-19 0 -32.5 13.5t-13.5 31.5q0 19 13.5 32.5t32.5 13.5t32 -13.5t13 -32.5q0 -18 -13 -31.5t-32 -13.5zM394 -3q-19 0 -32.5 13.5
t-13.5 31.5q0 19 13.5 32.5t32.5 13.5t32 -13.5t13 -32.5q0 -18 -13 -31.5t-32 -13.5z" />
    <glyph glyph-name="perthousand" unicode="&#x2030;" horiz-adv-x="979" 
d="M196 425q-19 -1 -39 2.5t-42.5 14t-40 34.5t-24.5 59q-12 60 17 107.5t87 62.5q69 16 117.5 -15.5t55.5 -105.5q7 -67 -31 -111t-100 -48zM282 590q-11 61 -44 92t-81 17q-43 -14 -56 -59t-5 -91q11 -66 44 -94t71 -22q48 5 65 50t6 107zM84 0l459 701h17l-457 -701h-19z
M477 -3q-19 -1 -39 2.5t-42.5 14t-40 34.5t-24.5 59q-12 60 17 107.5t87 62.5q69 16 117.5 -15.5t55.5 -105.5q7 -67 -31 -111t-100 -48zM797 -3q-19 -1 -39 2.5t-42.5 14t-40 34.5t-24.5 59q-12 60 17 107.5t87 62.5q69 16 117.5 -15.5t55.5 -105.5q7 -67 -31 -111
t-100 -48zM563 162q-11 61 -44 92t-81 17q-43 -14 -56.5 -60t-4.5 -91q11 -66 43.5 -93.5t71.5 -22.5q48 6 65 51t6 107zM883 162q-11 61 -44 92t-81 17q-43 -14 -56.5 -60t-4.5 -91q11 -66 43.5 -93.5t71.5 -22.5q48 6 65 51t6 107z" />
    <glyph glyph-name="guilsinglleft" unicode="&#x2039;" horiz-adv-x="252" 
d="M195 417l-123 -143l113 -150l-157 151z" />
    <glyph glyph-name="guilsinglright" unicode="&#x203a;" horiz-adv-x="252" 
d="M48 417l122 -143l-112 -150l157 151z" />
    <glyph glyph-name="Euro" unicode="&#x20ac;" horiz-adv-x="623" 
d="M31 375l-12 9h63q10 205 167 296q44 25 100 28.5t104.5 -12t82 -53.5t33.5 -90q0 -26 -14 -40.5t-35 -13.5q-25 1 -36.5 24.5t-4.5 51.5q15 64 -18 97t-85 29t-92 -35q-98 -72 -105 -282h253l-9 -9h-392zM517 195q20 1 34.5 -14t14.5 -43q0 -53 -52 -97t-99 -51
q-110 -15 -180 22q-141 76 -152 294h-52l-12 9h413l-9 -9h-244q2 -57 13.5 -109t33 -98.5t60.5 -74.5t89 -28q61 -1 90 34t17 87q-8 29 0.5 53t34.5 25z" />
    <glyph glyph-name="trademark" unicode="&#x2122;" horiz-adv-x="869" 
d="M688 354q7 0 15 1.5t19 12.5t11 31v220q0 31 -6 31q-7 0 -16 -23l-120 -284l-152 294q-10 15 -15 -3l-2 -17v-200q0 -28 14 -43.5t28 -17.5l15 -2h-115q7 0 16.5 2t23.5 17.5t14 43.5v211q0 14 -3 25.5t-7.5 19t-10 12.5t-10.5 7.5t-9.5 4t-7.5 1.5l-3 1h92l127 -241
q9 -17 16 -23.5t14.5 -2t14.5 21.5l104 244h87q-6 0 -13.5 -1.5t-19 -12.5t-11.5 -31v-254q0 -20 11.5 -31t19.5 -12.5t15 -1.5h-136zM248 693h-16v-292q0 -21 12 -32.5t20 -13t16 -1.5h-142q8 0 16 1.5t20 13t12 32.5v292h-18q-51 0 -84 -29q-10 -9 -20 -23.5t-15 -24.5
l-5 -10l20 92h286l20 -91q-17 35 -37 56q-34 30 -85 30z" />
    <glyph glyph-name="partialdiff" unicode="&#x2202;" horiz-adv-x="529" 
d="M284 -10q-32 -2 -65.5 4.5t-70.5 25t-65.5 58t-40.5 96.5q-21 103 26 182t142 102q59 12 106 7t72 -23q-18 88 -76.5 157.5t-160.5 93.5q103 -12 181 -70.5t119.5 -148t48.5 -199.5q7 -123 -54.5 -201t-161.5 -84zM415 269q-17 100 -69 152t-127 28q-46 -14 -72 -61
t-27 -97t4 -94q18 -106 71 -154.5t114 -40.5q72 9 98 87.5t8 179.5z" />
    <glyph glyph-name="emptyset" unicode="&#x2205;" horiz-adv-x="576" 
d="M524 262q12 -111 -52 -188.5t-162 -82.5q-105 -5 -174 52l-38 -42h-20l47 52q-47 43 -62 116q-22 101 25.5 183t141.5 107q138 35 224 -45l31 35h21l-41 -46q49 -52 59 -141zM147 188q8 -43 27 -81l233 256q-29 56 -76.5 81.5t-102.5 4.5q-60 -22 -79.5 -97.5
t-1.5 -163.5zM334 5q49 5 77.5 47.5t31.5 101t-7 125.5q-5 31 -21 70l-233 -256q28 -49 69 -70t83 -18z" />
    <glyph glyph-name="product" unicode="&#x220f;" horiz-adv-x="722" 
d="M100 -216l14 1v951h494v-950h14v963h-522v-965z" />
    <glyph glyph-name="summation" unicode="&#x2211;" horiz-adv-x="592" 
d="M63 -85v16l290 440l-289 395v17h471v-16h-451l292 -394l-293 -443h433v-15h-453z" />
    <glyph glyph-name="minus" unicode="&#x2212;" horiz-adv-x="459" 
d="M57 356h345v-11h-345v11z" />
    <glyph glyph-name="radical" unicode="&#x221a;" horiz-adv-x="537" 
d="M492 699l-17 1l-214 -857l-131 307h-73v-14h60l147 -340z" />
    <glyph glyph-name="infinity" unicode="&#x221e;" horiz-adv-x="660" 
d="M346 396q54 82 156 75q73 -5 102.5 -65t10.5 -124q-13 -43 -48.5 -70t-92.5 -26q-84 2 -133 100q-18 -36 -63.5 -71t-107.5 -32q-66 1 -101 50t-29 110q4 58 43 91t93 30q87 -4 139 -118q19 31 31 50zM347 297q14 -32 48.5 -50.5t78.5 -18.5q46 0 82.5 20t49.5 59
q15 58 -27 91q-13 33 -57 40t-82 -17q-20 -13 -35.5 -30.5t-23 -30t-19 -34t-15.5 -29.5zM162 232q90 0 147 104q-45 78 -131 81q-51 3 -90.5 -21.5t-40.5 -69.5q-2 -37 27 -65.5t88 -28.5z" />
    <glyph glyph-name="integral" unicode="&#x222b;" horiz-adv-x="443" 
d="M351 799q46 -4 73 -29.5t27 -63.5q0 -18 -11.5 -31t-28.5 -13q-24 0 -35.5 21t-1.5 45q10 28 -3.5 46.5t-40.5 19.5q-46 1 -64 -32.5t-18 -107.5v-718q0 -81 -58.5 -125t-137.5 -23q-36 9 -59.5 33t-23.5 52q0 20 12 32.5t29 12.5q26 0 35.5 -19t3.5 -45q-6 -28 9.5 -46
t44.5 -19q40 -1 55 33.5t15 109.5v706q0 88 51.5 129.5t126.5 31.5z" />
    <glyph glyph-name="approxequal" unicode="&#x2248;" horiz-adv-x="396" 
d="M58 326q19 53 67 53q31 0 72 -28t74 -28q32 0 52 23.5t16 54.5q-5 -49 -68 -49q-20 0 -61.5 25.5t-67.5 28.5q-33 2 -56.5 -19t-27.5 -61zM57 250q19 52 66 52q31 0 72.5 -27.5t73.5 -27.5t52 23.5t16 53.5q-5 -49 -68 -49q-20 0 -61.5 26t-66.5 29q-33 2 -56.5 -19.5
t-27.5 -60.5z" />
    <glyph glyph-name="notequal" unicode="&#x2260;" horiz-adv-x="554" 
d="M488 418h-178l-89 -145h267v-11h-274l-69 -112h-14l69 112h-134v11h141l90 145h-231v11h238l63 102h13l-63 -102h171v-11z" />
    <glyph glyph-name="lessequal" unicode="&#x2264;" horiz-adv-x="470" 
d="M395 474v-11l-318 -131l318 -139v-12l-347 151zM68 141h345v-11h-345v11z" />
    <glyph glyph-name="greaterequal" unicode="&#x2265;" horiz-adv-x="487" 
d="M80 474v-11l318 -131l-318 -139v-12l347 151zM406 141h-345v-11h345v11z" />
    <glyph glyph-name="zero.osf" horiz-adv-x="567" 
d="M300 -1q-32 -2 -65.5 4t-70.5 23.5t-66 56.5t-41 96q-21 99 27 178.5t144 102.5q113 27 194 -25t93 -175q10 -110 -52 -182.5t-163 -78.5zM429 274q-16 96 -68.5 149.5t-127.5 28.5q-33 -10 -55.5 -38.5t-31 -64t-10.5 -76t6 -74.5q18 -107 70.5 -152t111.5 -37
q48 7 77 49t32.5 98t-4.5 117z" />
    <glyph glyph-name="one.osf" horiz-adv-x="331" 
d="M202 65q0 -22 10 -37t26.5 -20t25 -6.5t16.5 -1.5h-229q8 0 16 1.5t23 6.5t24.5 20t9.5 37v184q-1 5 0 62q1 66 -16 80.5t-52 -7.5l147 101q0 -55 -0.5 -95t-0.5 -66v-56v-203z" />
    <glyph glyph-name="two.osf" horiz-adv-x="461" 
d="M415 56l-94 -164q32 62 23 85t-81 23h-210q95 50 178 133q52 51 75.5 95.5t18.5 100.5q-5 49 -40 73.5t-83 16.5q-33 -6 -62 -25.5t-42 -36.5l-13 -17q2 5 5.5 12.5t16.5 27t28 35.5t39.5 31t51.5 19q76 12 117 -29.5t41 -95.5q0 -12 -2 -23.5t-4.5 -21t-9.5 -21.5
t-11.5 -20t-15.5 -21.5t-17 -20.5t-22 -23l-23.5 -23.5l-27 -27l-28.5 -28.5q-39 -40 -36 -46.5t48 -7.5h3.5h3h3.5h170z" />
    <glyph glyph-name="three.osf" horiz-adv-x="553" 
d="M396 149q65 -18 102.5 -67.5t36.5 -126.5q-2 -111 -88 -171.5t-204 -36.5q-123 26 -166 173q13 -24 25.5 -41t35 -39t55.5 -35t74 -15q75 -5 125.5 36.5t53.5 118.5q4 85 -50 133.5t-131 37.5q-1 0 -3 -0.5t-3 -0.5l9 3q17 6 34.5 16t42.5 29.5t42.5 52.5t20.5 73
q5 52 -27 91.5t-92 41.5q-96 5 -166 -74q60 104 174 111q89 6 136.5 -39t48.5 -105q5 -112 -86 -166z" />
    <glyph glyph-name="four.osf" horiz-adv-x="610" 
d="M570 1h-110v-125l-73 -82v207h-325l398 558v-491h176zM386 68v310q0 61 -36 12l-202 -286q-24 -36 13 -37z" />
    <glyph glyph-name="five.osf" horiz-adv-x="540" 
d="M122 214q-6 -27 -1 -30q3 -2 15 4q43 31 79.5 41.5t80.5 11.5q88 2 146.5 -50.5t58.5 -148.5q0 -90 -78 -168q-47 -47 -134 -87.5t-151 -58.5l-63 -17q91 30 163.5 72.5t123 106t51.5 134.5q1 59 -29.5 101t-95.5 48q-37 5 -71.5 -1t-57 -17.5t-39.5 -24t-25 -21.5l-8 -9
l76 361h313l-54 -72h-218q-17 0 -27 -3.5t-16.5 -14t-8.5 -18.5t-6 -27z" />
    <glyph glyph-name="six.osf" horiz-adv-x="587" 
d="M222 605q116 124 262 124q-52 -6 -111 -38t-105 -104q-56 -88 -72 -171q27 24 70 34q109 28 193 -23.5t96 -172.5q11 -110 -52.5 -186t-164.5 -78q-200 -2 -245 186q-8 35 -8 80.5t9.5 104t42.5 124t85 120.5zM360 2q70 8 97.5 85.5t12.5 177.5q-15 97 -71.5 148.5
t-128.5 25.5q-65 -24 -85 -99t-6 -156q18 -105 71.5 -147t109.5 -35z" />
    <glyph glyph-name="seven.osf" horiz-adv-x="538" 
d="M550 458q-83 -112 -156 -267q-12 -25 -22 -49t-17.5 -42.5t-14 -42.5t-10.5 -36t-8 -37.5t-5.5 -32.5t-4 -35.5t-3 -32t-3 -36t-2.5 -35.5q-3 -51 -37 -60q-27 -7 -43 18q-9 15 -7 36q4 44 17.5 90t45 110.5t53 105t72.5 133.5q16 29 27 50.5t17.5 38.5t8 27.5t-1 18
t-9 11t-16.5 6t-24 2t-31 -0.5h-22h-91q-86 0 -129 -17.5t-64 -75.5l40 153h440z" />
    <glyph glyph-name="eight.osf" horiz-adv-x="566" 
d="M418 365q55 -27 92.5 -80.5t29.5 -124.5q-8 -88 -93 -135.5t-191 -33.5q-88 11 -137 65t-39 133q4 35 20 62.5t43.5 48.5t51.5 34t60 29q-19 9 -40.5 24.5t-46 40.5t-38 61t-9.5 76q6 76 71 116.5t147 34.5q79 -4 124 -49.5t43 -111.5q-3 -101 -154 -156q34 -17 66 -34z
M187 572q3 -58 42 -96.5t113 -72.5q95 70 101 150q3 58 -30 105.5t-97 49.5t-97.5 -37t-31.5 -99zM265 358q-100 -65 -109 -170q-6 -72 36.5 -127.5t121.5 -59.5q53 -3 90.5 16t51 50t16.5 69.5t-13 75.5q-9 24 -26 45t-41.5 37t-43.5 26t-47 22t-36 16z" />
    <glyph glyph-name="nine.osf" horiz-adv-x="567" 
d="M402 -162q-118 -126 -264 -126q51 6 111 39.5t107 104.5q53 81 75 175q-29 -23 -71 -34q-107 -28 -190 23.5t-95 170.5q-10 107 53 182t162 79q37 2 70.5 -5t69.5 -25.5t62.5 -57.5t38.5 -96q8 -38 9 -78.5t-7 -100t-41.5 -125.5t-89.5 -126zM267 441q-46 -8 -74 -48
t-33 -95t2 -118q14 -96 70.5 -146t126.5 -25q45 16 68.5 62.5t23 95.5t-5.5 94q-18 108 -68 149.5t-110 30.5z" />
    <glyph glyph-name="ampersand.001" horiz-adv-x="812" 
d="M789 485q25 0 41.5 -10.5t16.5 -31.5q0 -13 -7.5 -22t-20.5 -9q-19 0 -35 18t-41 18q-17 0 -33.5 -6t-30 -14t-29.5 -25t-26.5 -29.5t-27 -38t-25.5 -40t-27.5 -45.5t-27.5 -46q47 -65 70 -119q36 -82 36 -158q0 -120 -75 -211q-41 -50 -88.5 -74t-115.5 -24q-28 0 -43 2
q-30 3 -55.5 16.5t-41 31t-26.5 34t-15 28.5l-5 11q2 -4 5.5 -10t18 -21.5t31.5 -27.5t46 -21.5t62 -9.5q120 0 193.5 94t73.5 220q0 101 -79 226q-76 -126 -105 -161q-73 -91 -168 -96h-12q-72 0 -124 43.5t-52 124.5q0 34 13.5 67t31.5 57.5t51.5 54.5t57.5 48t66.5 48
t62.5 45q-74 91 -74 166q0 64 39 107t97 43q48 0 78 -28t31 -80q1 -48 -27.5 -88.5t-77.5 -83.5q-12 -10 -53 -41q27 -33 73 -87.5t66 -80.5q6 -7 16.5 -21t12.5 -17q10 17 30 49q14 22 33 53.5t27 43.5t20.5 30t24 29.5t27.5 25.5q51 43 116 43zM271 588q0 -40 13 -75.5
t51 -86.5q9 7 35 28q53 45 76 84.5t22 88.5q-1 34 -23 57t-55 25q-44 3 -81.5 -33.5t-37.5 -87.5zM244 -29q40 0 76 18t69.5 54t57.5 70t56 86q-11 18 -24 36q-18 26 -35.5 48.5t-29 36.5t-36 43t-41.5 50q-74 -53 -92 -68q-73 -57 -111.5 -110t-38.5 -119q0 -61 39 -103
t110 -42z" />
    </font>
</defs>
</svg>
